<svg width="2600" height="1734" viewBox="0 0 2600 1734" fill="none" xmlns="http://www.w3.org/2000/svg">
<path d="M1986.85 1298.08L1933.53 1298.08" stroke="#0D1846"/>
<path d="M1988.16 1298.08L1934.85 1298.08" stroke="#0D1846" stroke-width="2"/>
<path d="M1719.61 420.131L1719.61 437.459L1703.81 437.459L1703.81 420.131L1719.61 420.131Z" fill="#0D1846" stroke="#0D1846"/>
<path d="M1604.8 421L1604.8 438.328L1589 438.328L1589 421L1604.8 421Z" fill="#0D1846" stroke="#0D1846"/>
<path d="M1484.8 421L1484.8 438.328L1469 438.328L1469 421L1484.8 421Z" fill="#0D1846" stroke="#0D1846" stroke-width="2"/>
<path d="M1716.97 491.367L1716.97 508.695L1701.18 508.695L1701.18 491.367L1716.97 491.367Z" fill="#0D1846" stroke="#0D1846"/>
<path d="M1827.56 420.131L1827.56 437.459L1811.76 437.459L1811.76 420.131L1827.56 420.131Z" fill="#0D1846" stroke="#0D1846"/>
<path d="M1827.56 491.367L1827.56 508.695L1811.76 508.695L1811.76 491.367L1827.56 491.367Z" fill="#0D1846" stroke="#0D1846"/>
<path d="M1605.08 491.367L1605.08 508.695L1589.28 508.695L1589.28 491.367L1605.08 491.367Z" fill="#0D1846" stroke="#0D1846"/>
<path d="M1484.8 491L1484.8 508.328L1469 508.328L1469 491L1484.8 491Z" fill="#0D1846" stroke="#0D1846"/>
<path d="M1469.48 340.242L1594.55 340.242L1594.55 255.528" stroke="#0D1846" stroke-width="2"/>
<path d="M1348.37 437.459L1348.37 254.554" stroke="#0D1846" stroke-width="2"/>
<path d="M304.418 437.459L304.418 254.554" stroke="#0D1846" stroke-width="2"/>
<path d="M179.355 437.459L179.355 254.554" stroke="#0D1846" stroke-width="2"/>
<path d="M393.938 437.459L393.937 254.554" stroke="#0D1846" stroke-width="2"/>
<path d="M596.672 437.459L596.672 254.554" stroke="#0D1846" stroke-width="2"/>
<path d="M653.277 437.459L653.277 254.554" stroke="#0D1846" stroke-width="2"/>
<path d="M711.203 437.459L711.203 254.554" stroke="#0D1846" stroke-width="2"/>
<path d="M532.164 437.459L532.164 254.554" stroke="#0D1846" stroke-width="2"/>
<path d="M1119.22 436.904L1119.22 253.999" stroke="#0D1846" stroke-width="2"/>
<path d="M1062.61 436.904L1062.61 253.999" stroke="#0D1846" stroke-width="2"/>
<path d="M1006 436.904L1006 253.999" stroke="#0D1846" stroke-width="2"/>
<path d="M1236 437.904L1236 254.999" stroke="#0D1846" stroke-width="2"/>
<path d="M530 502.961L6.55651e-06 502.961" stroke="#0D1846" stroke-width="4"/>
<path d="M1404.98 502.92L597.989 502.92" stroke="#0D1846" stroke-width="4"/>
<path d="M1406.29 437.42L-3.76184e-05 436.442" stroke="#0D1846" stroke-width="4"/>
<path d="M1406.29 437.459L1406.29 254.554" stroke="#0D1846" stroke-width="2"/>
<path d="M1819.33 690.623L1819.33 253.575" stroke="#0D1846" stroke-width="2"/>
<path d="M1724.88 689.676L0.318026 689.676" stroke="#0D1846" stroke-width="4"/>
<path d="M1975 689.676L1763.05 689.676" stroke="#0D1846" stroke-width="4"/>
<path d="M1874.95 1387.59L1874.95 1235.49" stroke="#0D1846" stroke-width="2"/>
<path d="M1826.24 1387.59L1826.24 1235.49" stroke="#0D1846" stroke-width="2"/>
<path d="M1760.42 1387.59L1760.42 1235.49" stroke="#0D1846" stroke-width="2"/>
<path d="M1934.19 1385.66L1934.19 1233.56" stroke="#0D1846" stroke-width="2"/>
<path d="M2084.27 1389.51L2084.27 1236.45" stroke="#0D1846" stroke-width="2"/>
<path d="M1799.91 1081.46C1800.96 1070.68 1800.35 815.129 1799.91 688.7" stroke="#0D1846" stroke-width="4"/>
<path d="M1690.65 1080.52C1690.65 1071.9 1690.65 867.708 1690.65 766.689" stroke="#0D1846" stroke-width="4"/>
<path d="M1690.65 767.635C1690.65 765.468 1690.65 714.107 1690.65 688.697" stroke="#0D1846" stroke-width="4"/>
<path d="M1418.14 1080.52L1693.28 1080.52" stroke="#0D1846" stroke-width="4"/>
<path d="M1797.28 1080.52L2533.18 1080.52" stroke="#0D1846" stroke-width="4"/>
<path d="M2436 1731L2434.03 1194.11" stroke="#0D1846" stroke-width="5"/>
<path d="M1418 1731L1417.89 1073.76" stroke="#0D1846" stroke-width="5"/>
<path d="M1418.14 1097.84L1418.14 735.838" stroke="#0D1846" stroke-width="5"/>
<path d="M2439 1731L2161 1731" stroke="#0D1846" stroke-width="5"/>
<path d="M1691 1731H1416" stroke="#0D1846" stroke-width="5"/>
<path d="M2435.76 1234.54L1418.14 1234.54" stroke="#0D1846" stroke-width="4"/>
<path d="M2161 1731L2160.89 1237" stroke="#0D1846" stroke-width="5"/>
<path d="M1691 1731L1690.89 1235.76" stroke="#0D1846" stroke-width="5"/>
<path d="M2160.62 1388.55L1690.65 1387.59" stroke="#0D1846" stroke-width="4"/>
<path d="M2031.61 1388.55L2031.61 1236.45" stroke="#0D1846" stroke-width="2"/>
<path d="M1987.51 1388.55L1987.51 1234.53" stroke="#0D1846" stroke-width="2"/>
<path d="M1418.14 735.883L1690.65 735.883" stroke="#0D1846" stroke-width="4"/>
<path d="M1972.37 693.525L1972.37 252.628" stroke="#0D1846" stroke-width="4"/>
<path d="M3.00005 694L1.99995 254" stroke="#0D1846" stroke-width="4"/>
<path d="M1975 253.576L-3.94583e-05 253.576" stroke="#0D1846" stroke-width="4"/>
<path d="M1972.37 597.262L1819.66 597.262" stroke="#0D1846" stroke-width="2"/>
<path d="M1913.13 689.676L1913.13 597.261" stroke="#0D1846" stroke-width="2"/>
<path d="M1236.17 689.676L1236.17 502.676" stroke="#0D1846" stroke-width="5"/>
<path d="M1176.17 687.676L1176.17 502.676" stroke="#0D1846" stroke-width="2"/>
<path d="M1119.17 687.676L1119.17 502.676" stroke="#0D1846" stroke-width="2"/>
<path d="M1006.17 687.676L1006.17 502.676" stroke="#0D1846" stroke-width="2"/>
<path d="M893.172 687.676L893.172 502.676" stroke="#0D1846" stroke-width="2"/>
<path d="M774.395 691.6L774.395 504.844" stroke="#0D1846" stroke-width="2"/>
<path d="M711.203 691.6L711.203 504.844" stroke="#0D1846" stroke-width="2"/>
<path d="M597.988 689.676L597.988 502.92" stroke="#0D1846" stroke-width="4"/>
<path d="M774.395 578.006L711.205 578.006" stroke="#0D1846" stroke-width="2"/>
<path d="M532.164 687.75L532.164 502.92" stroke="#0D1846" stroke-width="4"/>
<path d="M413 687.83L413 503" stroke="#0D1846" stroke-width="2"/>
<path d="M288 689.676L288 504.845" stroke="#0D1846" stroke-width="2"/>
<path d="M482.137 687.75L482.137 502.92" stroke="#0D1846" stroke-width="2"/>
<path d="M54.2891 437.459L54.289 254.554" stroke="#0D1846" stroke-width="2"/>
<path d="M54.2891 687.75L54.289 504.845" stroke="#0D1846" stroke-width="2"/>
<path d="M1533.33 341.193L1533.33 255.517" stroke="#0D1846" stroke-width="2"/>
<path d="M1469.48 435.533L1469.48 254.553" stroke="#0D1846" stroke-width="2"/>
<path d="M1737.38 255.498L1737.38 123.614L1342.44 123.614L1342.44 255.498" stroke="#0D1846"/>
<path d="M1745.94 255.498L1745.94 113.025L1333.89 113.025" stroke="#0D1846"/>
<path d="M1334.21 113.027L1334.21 254.541" stroke="#0D1846"/>
<path d="M1845.51 439.158C1849.21 439.158 1852.07 439.982 1854.1 441.629C1856.14 443.276 1857.16 445.596 1857.16 448.59C1857.16 451.583 1856.14 453.904 1854.1 455.551C1852.07 457.184 1849.21 458 1845.51 458H1835.16V427.191H1854.79V431.338H1839.56V439.158H1845.51ZM1845.47 454.047C1847.82 454.047 1849.59 453.589 1850.8 452.672C1852.01 451.741 1852.62 450.38 1852.62 448.59C1852.62 446.799 1852.01 445.446 1850.8 444.529C1849.59 443.598 1847.82 443.133 1845.47 443.133H1839.56V454.047H1845.47ZM1872.32 457.742C1873.08 459.948 1873.46 461.767 1873.46 463.199C1873.46 465.104 1872.91 466.658 1871.81 467.861C1870.7 469.064 1869.17 469.666 1867.21 469.666C1865.78 469.666 1864.32 469.208 1862.85 468.291V463.629C1864.45 465.061 1865.89 465.777 1867.17 465.777C1867.91 465.777 1868.5 465.577 1868.93 465.176C1869.36 464.789 1869.62 464.266 1869.7 463.607C1869.79 462.963 1869.75 462.24 1869.59 461.438C1869.45 460.65 1869.2 459.84 1868.84 459.01L1858.85 436H1863.26L1870.28 453.338L1877.46 436H1881.73L1872.32 457.742ZM1910.07 435.463C1912.96 435.463 1915.34 436.487 1917.18 438.535C1919.04 440.569 1919.98 443.391 1919.98 447C1919.98 450.609 1919.04 453.438 1917.18 455.486C1915.34 457.52 1912.96 458.537 1910.07 458.537C1908.9 458.537 1907.73 458.265 1906.57 457.721C1905.41 457.162 1904.45 456.389 1903.69 455.4V469H1899.74V455.4C1898.98 456.389 1898.02 457.162 1896.86 457.721C1895.7 458.265 1894.53 458.537 1893.36 458.537C1890.46 458.537 1888.09 457.52 1886.22 455.486C1884.38 453.438 1883.45 450.609 1883.45 447C1883.45 443.391 1884.38 440.569 1886.22 438.535C1888.09 436.487 1890.46 435.463 1893.36 435.463C1894.53 435.463 1895.7 435.742 1896.86 436.301C1898.02 436.845 1898.98 437.611 1899.74 438.6V425H1903.69V438.6C1904.45 437.611 1905.41 436.845 1906.57 436.301C1907.73 435.742 1908.9 435.463 1910.07 435.463ZM1893.76 454.777C1895.58 454.777 1897.04 454.068 1898.13 452.65C1899.23 451.232 1899.78 449.349 1899.78 447C1899.78 444.651 1899.23 442.768 1898.13 441.35C1897.04 439.932 1895.58 439.223 1893.76 439.223C1891.9 439.223 1890.41 439.932 1889.27 441.35C1888.16 442.768 1887.6 444.651 1887.6 447C1887.6 449.349 1888.16 451.232 1889.27 452.65C1890.41 454.068 1891.9 454.777 1893.76 454.777ZM1909.68 454.777C1911.55 454.777 1913.04 454.068 1914.15 452.65C1915.28 451.232 1915.85 449.349 1915.85 447C1915.85 444.651 1915.28 442.768 1914.15 441.35C1913.04 439.932 1911.55 439.223 1909.68 439.223C1907.87 439.223 1906.4 439.932 1905.3 441.35C1904.2 442.768 1903.65 444.651 1903.65 447C1903.65 449.349 1904.2 451.232 1905.3 452.65C1906.4 454.068 1907.87 454.777 1909.68 454.777ZM1946.81 452.113C1945.91 454.133 1944.52 455.73 1942.64 456.904C1940.78 458.079 1938.6 458.666 1936.11 458.666C1933.92 458.666 1931.92 458.158 1930.12 457.141C1928.33 456.124 1926.92 454.727 1925.88 452.951C1924.87 451.161 1924.36 449.177 1924.36 447C1924.36 444.895 1924.85 442.947 1925.84 441.156C1926.83 439.366 1928.17 437.948 1929.86 436.902C1931.56 435.857 1933.41 435.334 1935.4 435.334C1937.76 435.334 1939.76 435.878 1941.4 436.967C1943.04 438.055 1944.17 439.559 1944.77 441.479C1945.37 443.383 1945.38 445.518 1944.79 447.881H1928.51C1928.71 449.915 1929.51 451.576 1930.91 452.865C1932.31 454.14 1934.05 454.777 1936.11 454.777C1937.92 454.777 1939.45 454.348 1940.71 453.488C1941.97 452.629 1942.87 451.462 1943.42 449.986L1946.81 452.113ZM1935.4 439.072C1933.67 439.072 1932.21 439.552 1931.04 440.512C1929.87 441.471 1929.09 442.811 1928.72 444.529H1941.27C1941.31 442.882 1940.8 441.564 1939.74 440.576C1938.7 439.574 1937.25 439.072 1935.4 439.072ZM1967.48 439.695H1959.34V458H1955.38V439.695H1947.24V436H1967.48V439.695Z" fill="#0D1846"/>
<path d="M1263.89 327.996L1268.29 325.504L1268.29 357L1263.89 357L1263.89 327.996ZM1278.62 327.996L1283.03 325.504L1283.03 357L1278.62 357L1278.62 327.996ZM1293.36 327.996L1297.77 325.504L1297.77 357L1293.36 357L1293.36 327.996ZM1324.32 326.191L1324.32 329.887L1310.83 357L1306.25 357L1319.9 330.166L1303.61 330.166L1303.61 326.191L1324.32 326.191Z" fill="#0D1846"/>
<path d="M1193 625.412L1190.5 621.008L1222 621.008L1222 625.412L1193 625.412ZM1193 610.674L1190.5 606.27L1222 606.27L1222 610.674L1193 610.674ZM1193 595.936L1190.5 591.531L1222 591.531L1222 595.936L1193 595.936ZM1201.01 571.4C1201.01 569.538 1201.43 567.813 1202.26 566.223C1203.09 564.633 1204.29 563.344 1205.87 562.355C1207.43 561.367 1209.2 560.873 1211.17 560.873C1214.52 560.873 1217.28 561.897 1219.44 563.945C1221.59 565.994 1222.67 568.636 1222.67 571.873C1222.67 573.033 1222.49 574.165 1222.15 575.268C1221.82 576.356 1221.27 577.416 1220.5 578.447C1219.72 579.464 1218.77 580.352 1217.64 581.111C1216.49 581.87 1215.06 582.479 1213.34 582.938C1211.61 583.396 1209.68 583.625 1207.56 583.625C1204.94 583.625 1202.56 583.26 1200.41 582.529C1198.26 581.785 1196.47 580.753 1195.04 579.436C1193.6 578.104 1192.5 576.521 1191.73 574.688C1190.94 572.854 1190.55 570.849 1190.55 568.672C1190.55 567.197 1190.76 565.886 1191.19 564.74L1195.81 564.053C1195.11 565.729 1194.76 567.526 1194.76 569.445C1194.76 570.663 1194.97 571.83 1195.4 572.947C1195.82 574.064 1196.44 575.11 1197.27 576.084C1198.1 577.044 1199.23 577.831 1200.67 578.447C1202.08 579.049 1203.71 579.393 1205.54 579.479C1203.97 578.605 1202.82 577.466 1202.11 576.063C1201.37 574.645 1201.01 573.091 1201.01 571.4ZM1218.52 571.959C1218.52 570.011 1217.89 568.414 1216.63 567.168C1215.37 565.908 1213.76 565.277 1211.79 565.277C1209.73 565.277 1208.1 565.879 1206.9 567.082C1205.68 568.285 1205.07 569.911 1205.07 571.959C1205.07 573.821 1205.7 575.361 1206.96 576.578C1208.22 577.781 1209.83 578.383 1211.79 578.383C1213.7 578.383 1215.3 577.745 1216.59 576.471C1217.87 575.182 1218.52 573.678 1218.52 571.959Z" fill="#0D1846"/>
<path d="M1033.34 581.996L1037.74 579.504L1037.74 611L1033.34 611L1033.34 581.996ZM1048.07 581.996L1052.48 579.504L1052.48 611L1048.07 611L1048.07 581.996ZM1062.81 581.996L1067.22 579.504L1067.22 611L1062.81 611L1062.81 581.996ZM1098 603.158L1092.16 603.158L1092.16 611.666L1087.76 611.666L1087.76 603.158L1072.31 603.158L1072.31 599.463L1089.52 580.191L1092.16 580.191L1092.16 599.248L1098 599.248L1098 603.158ZM1087.76 599.248L1087.76 587.453L1077.34 599.248L1087.76 599.248Z" fill="#0D1846"/>
<path d="M907.039 581.996L911.443 579.504L911.443 611L907.039 611L907.039 581.996ZM921.777 581.996L926.182 579.504L926.182 611L921.777 611L921.777 581.996ZM936.516 581.996L940.92 579.504L940.92 611L936.516 611L936.516 581.996ZM971.707 603.158L965.863 603.158L965.863 611.666L961.459 611.666L961.459 603.158L946.012 603.158L946.012 599.463L963.221 580.191L965.863 580.191L965.863 599.248L971.707 599.248L971.707 603.158ZM961.459 599.248L961.459 587.453L951.039 599.248L961.459 599.248ZM984.361 588.334C987.298 588.334 989.532 589.079 991.064 590.568C992.611 592.058 993.385 594.192 993.385 596.971L993.385 611L989.432 611L989.432 608.443C988.544 609.403 987.29 610.184 985.672 610.785C984.053 611.372 982.521 611.666 981.074 611.666C979.083 611.666 977.429 611.172 976.111 610.184C974.808 609.195 974.156 607.749 974.156 605.844C974.156 604.841 974.371 603.953 974.801 603.18C975.23 602.406 975.846 601.769 976.648 601.268C977.465 600.752 978.339 600.337 979.27 600.021C980.2 599.692 981.282 599.406 982.514 599.162C985.35 598.575 987.075 598.167 987.691 597.938C988.608 597.608 989.174 597.128 989.389 596.498C989.475 596.226 989.518 595.882 989.518 595.467C989.518 594.407 989.066 593.555 988.164 592.91C987.262 592.266 985.98 591.943 984.318 591.943C982.6 591.943 980.952 592.416 979.377 593.361C977.816 594.307 976.648 595.61 975.875 597.271L973.318 594.156C974.593 592.337 976.197 590.912 978.131 589.881C980.064 588.85 982.141 588.334 984.361 588.334ZM981.59 608.143C982.879 608.143 984.132 607.892 985.35 607.391C986.581 606.889 987.591 606.188 988.379 605.285C989.167 604.383 989.561 603.416 989.561 602.385L989.561 600.215C988.4 600.917 986.538 601.547 983.975 602.105C983.244 602.263 982.678 602.392 982.277 602.492C981.876 602.578 981.411 602.7 980.881 602.857C980.365 603.001 979.971 603.151 979.699 603.309C979.427 603.452 979.148 603.638 978.861 603.867C978.589 604.082 978.396 604.326 978.281 604.598C978.181 604.87 978.131 605.185 978.131 605.543C978.131 606.402 978.396 607.054 978.926 607.498C979.47 607.928 980.358 608.143 981.59 608.143Z" fill="#0D1846"/>
<path d="M804.558 581.996L808.962 579.504L808.962 611L804.558 611L804.558 581.996ZM819.296 581.996L823.701 579.504L823.701 611L819.296 611L819.296 581.996ZM834.035 581.996L838.439 579.504L838.439 611L834.035 611L834.035 581.996ZM865.187 607.047L865.187 611L844.712 611L844.712 607.885L848.494 604.705C849.883 603.545 851.086 602.507 852.103 601.59C853.12 600.673 854.208 599.62 855.369 598.432C856.529 597.243 857.467 596.147 858.183 595.145C858.914 594.128 859.515 593.061 859.988 591.943C860.46 590.826 860.682 589.773 860.654 588.785C860.611 587.138 860.052 585.835 858.978 584.875C857.918 583.901 856.479 583.414 854.66 583.414C852.568 583.414 850.993 584.037 849.933 585.283C848.887 586.515 848.365 588.148 848.365 590.182C848.365 590.497 848.393 590.984 848.451 591.643L844.455 589.795L844.455 589.623C844.455 586.587 845.428 584.152 847.376 582.318C849.324 580.471 851.888 579.547 855.068 579.547C856.901 579.547 858.534 579.883 859.966 580.557C861.413 581.23 862.573 582.268 863.447 583.672C864.335 585.076 864.779 586.751 864.779 588.699C864.779 589.63 864.643 590.576 864.371 591.535C864.098 592.48 863.762 593.361 863.361 594.178C862.96 594.994 862.387 595.882 861.642 596.842C860.897 597.801 860.195 598.646 859.537 599.377C858.892 600.093 858.025 600.952 856.937 601.955C855.863 602.958 854.939 603.796 854.165 604.469C853.406 605.128 852.397 605.987 851.136 607.047L865.187 607.047Z" fill="#0D1846"/>
<path d="M622.433 581.996L626.837 579.504L626.837 611L622.433 611L622.433 581.996ZM637.171 581.996L641.576 579.504L641.576 611L637.171 611L637.171 581.996ZM651.91 581.996L656.314 579.504L656.314 611L651.91 611L651.91 581.996ZM683.535 609.646C681.615 610.993 679.417 611.666 676.939 611.666C674.461 611.666 672.255 610.993 670.322 609.646C668.388 608.286 666.884 606.388 665.81 603.953C664.75 601.518 664.22 598.732 664.22 595.596C664.22 592.473 664.75 589.695 665.81 587.26C666.884 584.811 668.388 582.913 670.322 581.566C672.255 580.22 674.461 579.547 676.939 579.547C679.417 579.547 681.615 580.22 683.535 581.566C685.468 582.913 686.965 584.803 688.025 587.238C689.085 589.673 689.615 592.459 689.615 595.596C689.615 598.732 689.085 601.518 688.025 603.953C686.965 606.388 685.468 608.286 683.535 609.646ZM670.923 604.254C672.47 606.431 674.475 607.52 676.939 607.52C679.403 607.52 681.393 606.438 682.912 604.275C684.444 602.098 685.211 599.205 685.211 595.596C685.211 591.986 684.444 589.1 682.912 586.938C681.393 584.76 679.403 583.672 676.939 583.672C674.475 583.672 672.47 584.76 670.923 586.938C669.391 589.115 668.625 592.001 668.625 595.596C668.625 599.191 669.391 602.077 670.923 604.254Z" fill="#0D1846"/>
<path d="M829.558 327.996L833.962 325.504L833.962 357L829.558 357L829.558 327.996ZM844.296 327.996L848.701 325.504L848.701 357L844.296 357L844.296 327.996ZM859.035 327.996L863.439 325.504L863.439 357L859.035 357L859.035 327.996ZM882.431 338.309C884.981 338.309 887.115 339.118 888.833 340.736C890.552 342.341 891.412 344.518 891.412 347.268C891.412 350.175 890.28 352.639 888.017 354.658C885.768 356.663 882.983 357.666 879.66 357.666C877.669 357.666 875.792 357.322 874.031 356.635C872.269 355.947 870.744 354.952 869.455 353.648L870.636 348.986C873.272 351.98 876.279 353.52 879.66 353.605C881.794 353.605 883.541 353.033 884.902 351.887C886.277 350.727 886.964 349.187 886.964 347.268C886.964 345.477 886.406 344.081 885.289 343.078C884.171 342.061 882.725 341.553 880.949 341.553C879.574 341.553 878.163 341.947 876.716 342.734L874.611 339.877L884.687 330.166L870.873 330.166L870.873 326.191L890.101 326.191L890.101 329.629L881.164 338.395C881.45 338.337 881.872 338.309 882.431 338.309Z" fill="#0D1846"/>
<path d="M1081 373.763L1078.5 369.359L1110 369.359L1110 373.763L1081 373.763ZM1081 359.025L1078.5 354.62L1110 354.62L1110 359.025L1081 359.025ZM1081 344.286L1078.5 339.882L1110 339.882L1110 344.286L1081 344.286ZM1089.18 322.652C1089.18 321.391 1089.39 320.188 1089.8 319.042C1090.22 317.896 1090.83 316.858 1091.63 315.927C1092.43 314.996 1093.49 314.258 1094.81 313.714C1096.13 313.156 1097.61 312.876 1099.26 312.876C1101.39 312.876 1103.33 313.37 1105.08 314.359C1106.81 315.347 1108.18 316.729 1109.18 318.505C1110.17 320.281 1110.67 322.279 1110.67 324.499C1110.67 328.452 1109.28 331.718 1106.52 334.296L1101.99 333.029C1105.07 330.522 1106.61 327.679 1106.61 324.499C1106.61 322.337 1105.91 320.596 1104.52 319.279C1103.13 317.947 1101.38 317.281 1099.26 317.281C1097.37 317.281 1095.87 317.911 1094.77 319.171C1093.66 320.432 1093.11 321.9 1093.11 323.575C1093.11 324.678 1093.37 325.717 1093.89 326.691C1094.39 327.65 1095.13 328.417 1096.1 328.99L1094.68 332.32L1079.19 330.966L1079.19 314.187L1083.17 314.187L1083.17 327.443L1091.07 328.195C1089.81 326.533 1089.18 324.686 1089.18 322.652Z" fill="#0D1846"/>
<path d="M552.996 387.424L550.504 383.02L582 383.02L582 387.424L552.996 387.424ZM552.996 372.686L550.504 368.282L582 368.282L582 372.686L552.996 372.686ZM580.646 341.061C581.993 342.98 582.666 345.179 582.666 347.657C582.666 350.135 581.993 352.34 580.646 354.274C579.286 356.208 577.388 357.712 574.953 358.786C572.518 359.846 569.732 360.376 566.596 360.376C563.473 360.376 560.695 359.846 558.26 358.786C555.811 357.712 553.913 356.208 552.566 354.274C551.22 352.34 550.547 350.135 550.547 347.657C550.547 345.179 551.22 342.98 552.566 341.061C553.913 339.128 555.803 337.631 558.238 336.571C560.673 335.511 563.459 334.981 566.596 334.981C569.732 334.981 572.518 335.511 574.953 336.571C577.388 337.631 579.286 339.128 580.646 341.061ZM575.254 353.672C577.431 352.126 578.52 350.12 578.52 347.657C578.52 345.193 577.438 343.202 575.275 341.684C573.098 340.152 570.205 339.385 566.596 339.385C562.986 339.385 560.1 340.152 557.937 341.684C555.76 343.202 554.672 345.193 554.672 347.657C554.672 350.12 555.76 352.126 557.937 353.672C560.115 355.205 563.001 355.971 566.596 355.971C570.191 355.971 573.077 355.205 575.254 353.672ZM561.182 319.942C561.182 318.682 561.389 317.478 561.805 316.333C562.22 315.187 562.829 314.148 563.631 313.217C564.433 312.286 565.493 311.549 566.811 311.005C568.128 310.446 569.611 310.167 571.258 310.167C573.392 310.167 575.333 310.661 577.08 311.649C578.813 312.637 580.181 314.02 581.184 315.796C582.172 317.572 582.666 319.57 582.666 321.79C582.666 325.743 581.284 329.008 578.52 331.587L573.986 330.319C577.066 327.812 578.605 324.969 578.605 321.79C578.605 319.627 577.911 317.887 576.521 316.569C575.132 315.237 573.378 314.571 571.258 314.571C569.367 314.571 567.87 315.201 566.768 316.462C565.665 317.722 565.113 319.19 565.113 320.866C565.113 321.969 565.371 323.007 565.887 323.981C566.388 324.941 567.126 325.707 568.1 326.28L566.682 329.61L551.191 328.256L551.191 311.477L555.166 311.477L555.166 324.733L563.072 325.485C561.812 323.824 561.182 321.976 561.182 319.942Z" fill="#0D1846"/>
<path d="M671.996 369.361L669.504 364.957L701 364.957L701 369.361L671.996 369.361ZM671.996 354.623L669.504 350.218L701 350.218L701 354.623L671.996 354.623ZM671.996 339.884L669.504 335.48L701 335.48L701 339.884L671.996 339.884ZM671.996 325.146L669.504 320.742L701 320.742L701 325.146L671.996 325.146Z" fill="#0D1846"/>
<path d="M80.7224 335.996L85.1267 333.504L85.1267 365L80.7224 365L80.7224 335.996ZM95.4607 335.996L99.865 333.504L99.865 365L95.4607 365L95.4607 335.996ZM127.086 363.646C125.166 364.993 122.968 365.666 120.49 365.666C118.012 365.666 115.806 364.993 113.873 363.646C111.939 362.286 110.435 360.388 109.361 357.953C108.301 355.518 107.771 352.732 107.771 349.596C107.771 346.473 108.301 343.695 109.361 341.26C110.435 338.811 111.939 336.913 113.873 335.566C115.806 334.22 118.012 333.547 120.49 333.547C122.968 333.547 125.166 334.22 127.086 335.566C129.019 336.913 130.516 338.803 131.576 341.238C132.636 343.673 133.166 346.459 133.166 349.596C133.166 352.732 132.636 355.518 131.576 357.953C130.516 360.388 129.019 362.286 127.086 363.646ZM114.474 358.254C116.021 360.431 118.026 361.52 120.49 361.52C122.954 361.52 124.944 360.438 126.463 358.275C127.995 356.098 128.761 353.205 128.761 349.596C128.761 345.986 127.995 343.1 126.463 340.938C124.944 338.76 122.954 337.672 120.49 337.672C118.026 337.672 116.021 338.76 114.474 340.938C112.942 343.115 112.176 346.001 112.176 349.596C112.176 353.191 112.942 356.077 114.474 358.254ZM149.064 346.309C151.614 346.309 153.748 347.118 155.467 348.736C157.185 350.341 158.045 352.518 158.045 355.268C158.045 358.175 156.913 360.639 154.65 362.658C152.401 364.663 149.616 365.666 146.293 365.666C144.302 365.666 142.426 365.322 140.664 364.635C138.902 363.947 137.377 362.952 136.088 361.648L137.269 356.986C139.905 359.98 142.913 361.52 146.293 361.605C148.427 361.605 150.174 361.033 151.535 359.887C152.91 358.727 153.597 357.187 153.597 355.268C153.597 353.477 153.039 352.081 151.922 351.078C150.804 350.061 149.358 349.553 147.582 349.553C146.207 349.553 144.796 349.947 143.349 350.734L141.244 347.877L151.32 338.166L137.506 338.166L137.506 334.191L156.734 334.191L156.734 337.629L147.797 346.395C148.083 346.337 148.506 346.309 149.064 346.309Z" fill="#0D1846"/>
<path d="M205.037 335.996L209.441 333.504L209.441 365L205.037 365L205.037 335.996ZM219.775 335.996L224.179 333.504L224.179 365L219.775 365L219.775 335.996ZM251.4 363.646C249.481 364.993 247.282 365.666 244.804 365.666C242.327 365.666 240.121 364.993 238.187 363.646C236.254 362.286 234.75 360.388 233.676 357.953C232.616 355.518 232.086 352.732 232.086 349.596C232.086 346.473 232.616 343.695 233.676 341.26C234.75 338.811 236.254 336.913 238.187 335.566C240.121 334.22 242.327 333.547 244.804 333.547C247.282 333.547 249.481 334.22 251.4 335.566C253.334 336.913 254.831 338.803 255.89 341.238C256.95 343.673 257.48 346.459 257.48 349.596C257.48 352.732 256.95 355.518 255.89 357.953C254.831 360.388 253.334 362.286 251.4 363.646ZM238.789 358.254C240.336 360.431 242.341 361.52 244.804 361.52C247.268 361.52 249.259 360.438 250.777 358.275C252.31 356.098 253.076 353.205 253.076 349.596C253.076 345.986 252.31 343.1 250.777 340.938C249.259 338.76 247.268 337.672 244.804 337.672C242.341 337.672 240.336 338.76 238.789 340.938C237.256 343.115 236.49 346.001 236.49 349.596C236.49 353.191 237.256 356.077 238.789 358.254ZM272.519 344.182C273.78 344.182 274.983 344.389 276.129 344.805C277.275 345.22 278.313 345.829 279.244 346.631C280.175 347.433 280.913 348.493 281.457 349.811C282.015 351.128 282.295 352.611 282.295 354.258C282.295 356.392 281.801 358.333 280.812 360.08C279.824 361.813 278.442 363.181 276.666 364.184C274.89 365.172 272.892 365.666 270.672 365.666C266.719 365.666 263.453 364.284 260.875 361.52L262.142 356.986C264.649 360.066 267.492 361.605 270.672 361.605C272.834 361.605 274.575 360.911 275.892 359.521C277.224 358.132 277.89 356.378 277.89 354.258C277.89 352.367 277.26 350.87 276 349.768C274.739 348.665 273.271 348.113 271.595 348.113C270.493 348.113 269.454 348.371 268.48 348.887C267.521 349.388 266.754 350.126 266.181 351.1L262.851 349.682L264.205 334.191L280.984 334.191L280.984 338.166L267.728 338.166L266.976 346.072C268.638 344.812 270.485 344.182 272.519 344.182Z" fill="#0D1846"/>
<path d="M16.9961 627.061L14.5039 622.657L46 622.657L46 627.061L16.9961 627.061ZM16.9961 612.323L14.5039 607.919L46 607.919L46 612.323L16.9961 612.323ZM44.6465 580.698C45.9928 582.617 46.666 584.816 46.666 587.294C46.666 589.772 45.9928 591.977 44.6465 593.911C43.2858 595.844 41.388 597.348 38.9531 598.423C36.5182 599.482 33.7324 600.012 30.5957 600.012C27.4733 600.012 24.6947 599.482 22.2598 598.423C19.8105 597.348 17.9128 595.844 16.5664 593.911C15.22 591.977 14.5469 589.772 14.5469 587.294C14.5469 584.816 15.22 582.617 16.5664 580.698C17.9128 578.764 19.8034 577.268 22.2383 576.208C24.6732 575.148 27.459 574.618 30.5957 574.618C33.7324 574.618 36.5182 575.148 38.9531 576.208C41.388 577.268 43.2858 578.764 44.6465 580.698ZM39.2539 593.309C41.431 591.762 42.5195 589.757 42.5195 587.294C42.5195 584.83 41.4381 582.839 39.2754 581.321C37.0983 579.788 34.2051 579.022 30.5957 579.022C26.9863 579.022 24.1003 579.788 21.9375 581.321C19.7604 582.839 18.6719 584.83 18.6719 587.294C18.6719 589.757 19.7604 591.762 21.9375 593.309C24.1146 594.842 27.0006 595.608 30.5957 595.608C34.1908 595.608 37.0768 594.842 39.2539 593.309ZM16.9961 566.475L14.5039 562.071L46 562.071L46 566.475L16.9961 566.475Z" fill="#0D1846"/>
<path d="M132.707 581.996L137.111 579.504L137.111 611L132.707 611L132.707 581.996ZM147.445 581.996L151.849 579.504L151.849 611L147.445 611L147.445 581.996ZM179.07 609.646C177.151 610.993 174.952 611.666 172.474 611.666C169.997 611.666 167.791 610.993 165.857 609.646C163.924 608.286 162.42 606.388 161.346 603.953C160.286 601.518 159.756 598.732 159.756 595.596C159.756 592.473 160.286 589.695 161.346 587.26C162.42 584.811 163.924 582.913 165.857 581.566C167.791 580.22 169.997 579.547 172.474 579.547C174.952 579.547 177.151 580.22 179.07 581.566C181.004 582.913 182.5 584.803 183.56 587.238C184.62 589.673 185.15 592.459 185.15 595.596C185.15 598.732 184.62 601.518 183.56 603.953C182.5 606.388 181.004 608.286 179.07 609.646ZM166.459 604.254C168.006 606.431 170.011 607.52 172.474 607.52C174.938 607.52 176.929 606.438 178.447 604.275C179.98 602.098 180.746 599.205 180.746 595.596C180.746 591.986 179.98 589.1 178.447 586.938C176.929 584.76 174.938 583.672 172.474 583.672C170.011 583.672 168.006 584.76 166.459 586.938C164.926 589.115 164.16 592.001 164.16 595.596C164.16 599.191 164.926 602.077 166.459 604.254ZM213.746 603.158L207.902 603.158L207.902 611.666L203.498 611.666L203.498 603.158L188.051 603.158L188.051 599.463L205.26 580.191L207.902 580.191L207.902 599.248L213.746 599.248L213.746 603.158ZM203.498 599.248L203.498 587.453L193.078 599.248L203.498 599.248Z" fill="#0D1846"/>
<path d="M307.25 581.996L311.654 579.504L311.654 611L307.25 611L307.25 581.996ZM321.988 581.996L326.392 579.504L326.392 611L321.988 611L321.988 581.996ZM353.613 609.646C351.694 610.993 349.495 611.666 347.017 611.666C344.54 611.666 342.334 610.993 340.4 609.646C338.467 608.286 336.963 606.388 335.889 603.953C334.829 601.518 334.299 598.732 334.299 595.596C334.299 592.473 334.829 589.695 335.889 587.26C336.963 584.811 338.467 582.913 340.4 581.566C342.334 580.22 344.54 579.547 347.017 579.547C349.495 579.547 351.694 580.22 353.613 581.566C355.547 582.913 357.043 584.803 358.103 587.238C359.163 589.673 359.693 592.459 359.693 595.596C359.693 598.732 359.163 601.518 358.103 603.953C357.043 606.388 355.547 608.286 353.613 609.646ZM341.002 604.254C342.549 606.431 344.554 607.52 347.017 607.52C349.481 607.52 351.472 606.438 352.99 604.275C354.523 602.098 355.289 599.205 355.289 595.596C355.289 591.986 354.523 589.1 352.99 586.938C351.472 584.76 349.481 583.672 347.017 583.672C344.554 583.672 342.549 584.76 341.002 586.938C339.469 589.115 338.703 592.001 338.703 595.596C338.703 599.191 339.469 602.077 341.002 604.254ZM377.633 590.01C379.495 590.01 381.221 590.425 382.81 591.256C384.4 592.087 385.689 593.29 386.678 594.865C387.666 596.426 388.16 598.195 388.16 600.172C388.16 603.523 387.136 606.281 385.088 608.443C383.04 610.592 380.397 611.666 377.16 611.666C376 611.666 374.868 611.494 373.765 611.15C372.677 610.821 371.617 610.27 370.586 609.496C369.569 608.723 368.681 607.77 367.922 606.639C367.163 605.493 366.554 604.061 366.096 602.342C365.637 600.609 365.408 598.682 365.408 596.563C365.408 593.941 365.773 591.557 366.504 589.408C367.249 587.26 368.28 585.469 369.598 584.037C370.93 582.605 372.512 581.502 374.346 580.729C376.179 579.941 378.184 579.547 380.361 579.547C381.836 579.547 383.147 579.762 384.293 580.191L384.98 584.811C383.305 584.109 381.507 583.758 379.588 583.758C378.37 583.758 377.203 583.973 376.086 584.402C374.969 584.818 373.923 585.441 372.949 586.271C371.989 587.102 371.202 588.234 370.586 589.666C369.984 591.084 369.64 592.71 369.555 594.543C370.428 592.967 371.567 591.822 372.971 591.105C374.389 590.375 375.943 590.01 377.633 590.01ZM377.074 607.52C379.022 607.52 380.619 606.889 381.865 605.629C383.125 604.369 383.756 602.757 383.756 600.795C383.756 598.732 383.154 597.1 381.951 595.896C380.748 594.679 379.122 594.07 377.074 594.07C375.212 594.07 373.672 594.701 372.455 595.961C371.252 597.221 370.65 598.833 370.65 600.795C370.65 602.7 371.288 604.297 372.562 605.586C373.851 606.875 375.355 607.52 377.074 607.52Z" fill="#0D1846"/>
<path d="M427.924 335.996L432.328 333.504L432.328 365L427.924 365L427.924 335.996ZM442.662 335.996L447.066 333.504L447.066 365L442.662 365L442.662 335.996ZM474.287 363.646C472.368 364.993 470.169 365.666 467.691 365.666C465.213 365.666 463.008 364.993 461.074 363.646C459.14 362.286 457.636 360.388 456.562 357.953C455.502 355.518 454.972 352.732 454.972 349.596C454.972 346.473 455.502 343.695 456.562 341.26C457.636 338.811 459.14 336.913 461.074 335.566C463.008 334.22 465.213 333.547 467.691 333.547C470.169 333.547 472.368 334.22 474.287 335.566C476.22 336.913 477.717 338.803 478.777 341.238C479.837 343.673 480.367 346.459 480.367 349.596C480.367 352.732 479.837 355.518 478.777 357.953C477.717 360.388 476.22 362.286 474.287 363.646ZM461.676 358.254C463.222 360.431 465.228 361.52 467.691 361.52C470.155 361.52 472.146 360.438 473.664 358.275C475.196 356.098 475.963 353.205 475.963 349.596C475.963 345.986 475.196 343.1 473.664 340.938C472.146 338.76 470.155 337.672 467.691 337.672C465.228 337.672 463.222 338.76 461.676 340.938C460.143 343.115 459.377 346.001 459.377 349.596C459.377 353.191 460.143 356.077 461.676 358.254ZM503.398 334.191L503.398 337.887L489.906 365L485.33 365L498.972 338.166L482.687 338.166L482.687 334.191L503.398 334.191Z" fill="#0D1846"/>
<path d="M336.996 393.011L334.504 388.606L366 388.606L366 393.011L336.996 393.011ZM336.996 378.272L334.504 373.868L366 373.868L366 378.272L336.996 378.272ZM364.646 346.647C365.993 348.567 366.666 350.765 366.666 353.243C366.666 355.721 365.993 357.927 364.646 359.86C363.286 361.794 361.388 363.298 358.953 364.372C356.518 365.432 353.732 365.962 350.596 365.962C347.473 365.962 344.695 365.432 342.26 364.372C339.811 363.298 337.913 361.794 336.566 359.86C335.22 357.927 334.547 355.721 334.547 353.243C334.547 350.765 335.22 348.567 336.566 346.647C337.913 344.714 339.803 343.217 342.238 342.157C344.673 341.097 347.459 340.567 350.596 340.567C353.732 340.567 356.518 341.097 358.953 342.157C361.388 343.217 363.286 344.714 364.646 346.647ZM359.254 359.259C361.431 357.712 362.52 355.707 362.52 353.243C362.52 350.78 361.438 348.789 359.275 347.27C357.098 345.738 354.205 344.972 350.596 344.972C346.986 344.972 344.1 345.738 341.937 347.27C339.76 348.789 338.672 350.78 338.672 353.243C338.672 355.707 339.76 357.712 341.937 359.259C344.115 360.791 347.001 361.558 350.596 361.558C354.191 361.558 357.077 360.791 359.254 359.259ZM335.191 317.536L338.887 317.536L366 331.028L366 335.604L339.166 321.962L339.166 338.247L335.191 338.247L335.191 317.536ZM343.334 303.7C343.334 300.764 344.079 298.53 345.568 296.997C347.058 295.45 349.192 294.677 351.971 294.677L366 294.677L366 298.63L363.443 298.63C364.403 299.518 365.184 300.771 365.785 302.39C366.372 304.008 366.666 305.541 366.666 306.987C366.666 308.978 366.172 310.632 365.184 311.95C364.195 313.254 362.749 313.905 360.844 313.905C359.841 313.905 358.953 313.69 358.18 313.261C357.406 312.831 356.769 312.215 356.268 311.413C355.752 310.597 355.337 309.723 355.021 308.792C354.692 307.861 354.406 306.78 354.162 305.548C353.575 302.712 353.167 300.986 352.937 300.37C352.608 299.453 352.128 298.888 351.498 298.673C351.226 298.587 350.882 298.544 350.467 298.544C349.407 298.544 348.555 298.995 347.91 299.897C347.266 300.8 346.943 302.082 346.943 303.743C346.943 305.462 347.416 307.109 348.361 308.684C349.307 310.246 350.61 311.413 352.271 312.186L349.156 314.743C347.337 313.468 345.912 311.864 344.881 309.931C343.85 307.997 343.334 305.92 343.334 303.7ZM363.143 306.472C363.143 305.183 362.892 303.929 362.391 302.712C361.889 301.48 361.187 300.47 360.285 299.683C359.383 298.895 358.416 298.501 357.385 298.501L355.215 298.501C355.917 299.661 356.547 301.523 357.105 304.087C357.263 304.817 357.392 305.383 357.492 305.784C357.578 306.185 357.7 306.651 357.857 307.181C358.001 307.696 358.151 308.09 358.309 308.362C358.452 308.634 358.638 308.914 358.867 309.2C359.082 309.472 359.326 309.666 359.598 309.78C359.87 309.88 360.185 309.931 360.543 309.931C361.402 309.931 362.054 309.666 362.498 309.136C362.928 308.591 363.143 307.703 363.143 306.472Z" fill="#0D1846"/>
<path d="M2235.07 1452L2239.47 1449.5L2239.47 1481L2235.07 1481L2235.07 1452ZM2249.81 1452L2254.21 1449.5L2254.21 1481L2249.81 1481L2249.81 1452ZM2283.62 1467.62C2284.91 1467.5 2286.14 1467.67 2287.32 1468.13C2288.51 1468.57 2289.49 1469.31 2290.26 1470.34C2291.04 1471.36 2291.42 1472.55 2291.42 1473.91C2291.42 1475.13 2291.15 1476.24 2290.61 1477.26C2290.08 1478.26 2289.37 1479.08 2288.48 1479.71C2287.59 1480.33 2286.6 1480.81 2285.49 1481.15C2284.4 1481.49 2283.28 1481.67 2282.12 1481.67C2279.6 1481.67 2277.44 1481.04 2275.63 1479.8C2273.83 1478.55 2272.52 1476.98 2271.7 1475.07L2274.88 1472.81C2275.49 1474.4 2276.42 1475.67 2277.65 1476.62C2278.9 1477.55 2280.36 1478.01 2282.03 1478.01C2283.67 1478.01 2284.97 1477.63 2285.94 1476.88C2286.92 1476.1 2287.4 1475.08 2287.4 1473.82C2287.4 1472.79 2287.01 1471.93 2286.22 1471.22C2285.43 1470.51 2284.45 1470.12 2283.26 1470.06C2282.07 1470.01 2280.79 1470.34 2279.41 1471.05L2277.74 1468.73L2285.26 1462.7L2273.63 1462.7L2273.63 1459L2290.58 1459L2290.58 1462.31L2283.62 1467.62ZM2305.39 1458.33C2308.32 1458.33 2310.56 1459.08 2312.09 1460.57C2313.64 1462.06 2314.41 1464.19 2314.41 1466.97L2314.41 1481L2310.46 1481L2310.46 1478.44C2309.57 1479.4 2308.32 1480.18 2306.7 1480.79C2305.08 1481.37 2303.55 1481.67 2302.1 1481.67C2300.11 1481.67 2298.45 1481.17 2297.14 1480.18C2295.83 1479.2 2295.18 1477.75 2295.18 1475.84C2295.18 1474.84 2295.4 1473.95 2295.83 1473.18C2296.26 1472.41 2296.87 1471.77 2297.67 1471.27C2298.49 1470.75 2299.36 1470.34 2300.29 1470.02C2301.23 1469.69 2302.31 1469.41 2303.54 1469.16C2306.38 1468.57 2308.1 1468.17 2308.72 1467.94C2309.63 1467.61 2310.2 1467.13 2310.41 1466.5C2310.5 1466.23 2310.54 1465.88 2310.54 1465.47C2310.54 1464.41 2310.09 1463.55 2309.19 1462.91C2308.29 1462.27 2307.01 1461.94 2305.34 1461.94C2303.63 1461.94 2301.98 1462.42 2300.4 1463.36C2298.84 1464.31 2297.67 1465.61 2296.9 1467.27L2294.34 1464.16C2295.62 1462.34 2297.22 1460.91 2299.16 1459.88C2301.09 1458.85 2303.17 1458.33 2305.39 1458.33ZM2302.62 1478.14C2303.9 1478.14 2305.16 1477.89 2306.38 1477.39C2307.61 1476.89 2308.62 1476.19 2309.4 1475.29C2310.19 1474.38 2310.59 1473.42 2310.59 1472.38L2310.59 1470.21C2309.43 1470.92 2307.56 1471.55 2305 1472.11C2304.27 1472.26 2303.7 1472.39 2303.3 1472.49C2302.9 1472.58 2302.44 1472.7 2301.91 1472.86C2301.39 1473 2301 1473.15 2300.72 1473.31C2300.45 1473.45 2300.17 1473.64 2299.89 1473.87C2299.61 1474.08 2299.42 1474.33 2299.31 1474.6C2299.21 1474.87 2299.16 1475.18 2299.16 1475.54C2299.16 1476.4 2299.42 1477.05 2299.95 1477.5C2300.5 1477.93 2301.38 1478.14 2302.62 1478.14ZM2340.58 1459L2340.58 1481L2336.6 1481L2336.6 1462.7L2327.45 1462.7L2327.37 1469.21C2327.35 1470.77 2327.29 1472.13 2327.17 1473.31C2327.06 1474.47 2326.86 1475.56 2326.57 1476.6C2326.3 1477.63 2325.93 1478.46 2325.47 1479.11C2325.02 1479.75 2324.43 1480.26 2323.71 1480.63C2323 1480.99 2322.15 1481.17 2321.18 1481.17C2320.69 1481.17 2320.05 1481.1 2319.27 1480.96L2318.38 1476.92C2319.22 1477.1 2319.94 1477.22 2320.55 1477.26C2321.83 1477.26 2322.67 1476.42 2323.09 1474.73C2323.36 1473.64 2323.51 1471.57 2323.54 1468.52C2323.54 1468.46 2323.54 1468.38 2323.54 1468.28L2323.54 1468.11L2323.58 1459L2340.58 1459ZM2356.65 1458.33C2359.58 1458.33 2361.82 1459.08 2363.35 1460.57C2364.9 1462.06 2365.67 1464.19 2365.67 1466.97L2365.67 1481L2361.72 1481L2361.72 1478.44C2360.83 1479.4 2359.58 1480.18 2357.96 1480.79C2356.34 1481.37 2354.81 1481.67 2353.36 1481.67C2351.37 1481.67 2349.72 1481.17 2348.4 1480.18C2347.1 1479.2 2346.44 1477.75 2346.44 1475.84C2346.44 1474.84 2346.66 1473.95 2347.09 1473.18C2347.52 1472.41 2348.13 1471.77 2348.94 1471.27C2349.75 1470.75 2350.63 1470.34 2351.56 1470.02C2352.49 1469.69 2353.57 1469.41 2354.8 1469.16C2357.64 1468.57 2359.36 1468.17 2359.98 1467.94C2360.9 1467.61 2361.46 1467.13 2361.68 1466.5C2361.76 1466.23 2361.8 1465.88 2361.8 1465.47C2361.8 1464.41 2361.35 1463.55 2360.45 1462.91C2359.55 1462.27 2358.27 1461.94 2356.61 1461.94C2354.89 1461.94 2353.24 1462.42 2351.66 1463.36C2350.1 1464.31 2348.94 1465.61 2348.16 1467.27L2345.61 1464.16C2346.88 1462.34 2348.48 1460.91 2350.42 1459.88C2352.35 1458.85 2354.43 1458.33 2356.65 1458.33ZM2353.88 1478.14C2355.17 1478.14 2356.42 1477.89 2357.64 1477.39C2358.87 1476.89 2359.88 1476.19 2360.67 1475.29C2361.45 1474.38 2361.85 1473.42 2361.85 1472.38L2361.85 1470.21C2360.69 1470.92 2358.83 1471.55 2356.26 1472.11C2355.53 1472.26 2354.97 1472.39 2354.56 1472.49C2354.16 1472.58 2353.7 1472.7 2353.17 1472.86C2352.65 1473 2352.26 1473.15 2351.99 1473.31C2351.71 1473.45 2351.43 1473.64 2351.15 1473.87C2350.88 1474.08 2350.68 1474.33 2350.57 1474.6C2350.47 1474.87 2350.42 1475.18 2350.42 1475.54C2350.42 1476.4 2350.68 1477.05 2351.21 1477.5C2351.76 1477.93 2352.65 1478.14 2353.88 1478.14Z" fill="#0D1846"/>
<path d="M2038.33 1167L2034.52 1167L2034.52 1143.97L2019.33 1143.97L2019.33 1167L2015.52 1167L2015.52 1140.39L2038.33 1140.39L2038.33 1167ZM2063.04 1161.92C2062.26 1163.66 2061.06 1165.04 2059.44 1166.05C2057.83 1167.07 2055.95 1167.58 2053.8 1167.58C2051.91 1167.58 2050.18 1167.14 2048.62 1166.26C2047.08 1165.38 2045.86 1164.17 2044.97 1162.64C2044.09 1161.09 2043.65 1159.38 2043.65 1157.5C2043.65 1155.68 2044.08 1154 2044.93 1152.45C2045.79 1150.91 2046.94 1149.68 2048.4 1148.78C2049.87 1147.88 2051.47 1147.42 2053.19 1147.42C2055.23 1147.42 2056.96 1147.89 2058.37 1148.83C2059.79 1149.78 2060.76 1151.07 2061.28 1152.73C2061.8 1154.38 2061.8 1156.22 2061.3 1158.26L2047.23 1158.26C2047.41 1160.02 2048.1 1161.45 2049.31 1162.57C2050.52 1163.67 2052.02 1164.22 2053.8 1164.22C2055.36 1164.22 2056.68 1163.85 2057.77 1163.1C2058.86 1162.36 2059.64 1161.35 2060.11 1160.08L2063.04 1161.92ZM2053.19 1150.65C2051.69 1150.65 2050.44 1151.07 2049.42 1151.9C2048.41 1152.73 2047.74 1153.88 2047.42 1155.37L2058.25 1155.37C2058.29 1153.94 2057.85 1152.81 2056.94 1151.95C2056.03 1151.09 2054.78 1150.65 2053.19 1150.65ZM2077.01 1147.42C2079.75 1147.42 2082.02 1148.39 2083.84 1150.32C2085.67 1152.24 2086.59 1154.63 2086.59 1157.5C2086.59 1160.37 2085.67 1162.77 2083.84 1164.7C2082.02 1166.62 2079.75 1167.58 2077.01 1167.58C2074.69 1167.58 2072.62 1166.67 2070.82 1164.87L2070.82 1176.5L2067.4 1176.5L2067.4 1148L2070.82 1148L2070.82 1150.13C2072.62 1148.33 2074.69 1147.42 2077.01 1147.42ZM2072.43 1162.32C2073.59 1163.59 2075.07 1164.22 2076.86 1164.22C2078.66 1164.22 2080.13 1163.59 2081.28 1162.32C2082.44 1161.06 2083.02 1159.45 2083.02 1157.5C2083.02 1155.55 2082.44 1153.94 2081.28 1152.68C2080.13 1151.41 2078.66 1150.78 2076.86 1150.78C2075.07 1150.78 2073.59 1151.41 2072.43 1152.68C2071.28 1153.94 2070.7 1155.55 2070.7 1157.5C2070.7 1159.45 2071.28 1161.06 2072.43 1162.32ZM2109.76 1161.92C2108.98 1163.66 2107.78 1165.04 2106.16 1166.05C2104.55 1167.07 2102.67 1167.58 2100.52 1167.58C2098.63 1167.58 2096.9 1167.14 2095.34 1166.26C2093.8 1165.38 2092.58 1164.17 2091.69 1162.64C2090.81 1161.09 2090.37 1159.38 2090.37 1157.5C2090.37 1155.68 2090.8 1154 2091.65 1152.45C2092.51 1150.91 2093.66 1149.68 2095.12 1148.78C2096.59 1147.88 2098.19 1147.42 2099.91 1147.42C2101.95 1147.42 2103.68 1147.89 2105.09 1148.83C2106.51 1149.78 2107.48 1151.07 2108 1152.73C2108.52 1154.38 2108.52 1156.22 2108.02 1158.26L2093.95 1158.26C2094.13 1160.02 2094.82 1161.45 2096.03 1162.57C2097.24 1163.67 2098.74 1164.22 2100.52 1164.22C2102.08 1164.22 2103.4 1163.85 2104.49 1163.1C2105.58 1162.36 2106.36 1161.35 2106.83 1160.08L2109.76 1161.92ZM2099.91 1150.65C2098.41 1150.65 2097.16 1151.07 2096.14 1151.9C2095.13 1152.73 2094.46 1153.88 2094.14 1155.37L2104.97 1155.37C2105.01 1153.94 2104.57 1152.81 2103.66 1151.95C2102.75 1151.09 2101.5 1150.65 2099.91 1150.65ZM2125.64 1167L2119.89 1159.63L2114.2 1167L2109.95 1167L2117.85 1157.31L2110.28 1148L2114.55 1148L2119.89 1155L2125.37 1148L2129.54 1148L2121.88 1157.28L2129.89 1167L2125.64 1167ZM2135.35 1143.58C2134.64 1143.58 2134.05 1143.34 2133.57 1142.86C2133.08 1142.38 2132.84 1141.78 2132.84 1141.08C2132.84 1140.35 2133.08 1139.74 2133.57 1139.24C2134.05 1138.75 2134.64 1138.5 2135.35 1138.5C2136.07 1138.5 2136.67 1138.75 2137.17 1139.24C2137.67 1139.74 2137.93 1140.35 2137.93 1141.08C2137.93 1141.78 2137.68 1142.38 2137.19 1142.86C2136.69 1143.34 2136.08 1143.58 2135.35 1143.58ZM2133.68 1148L2137.09 1148L2137.09 1167L2133.68 1167L2133.68 1148ZM2162.94 1163.81L2162.55 1171.64L2159.51 1171.64L2159.51 1167L2144.5 1167L2144.74 1171.64L2141.69 1171.64L2140.93 1163.81L2142.71 1163.81C2142.96 1163.81 2143.18 1163.74 2143.38 1163.6C2143.58 1163.47 2143.75 1163.25 2143.88 1162.96C2144.03 1162.66 2144.16 1162.35 2144.25 1162.03C2144.35 1161.71 2144.43 1161.29 2144.5 1160.77C2144.56 1160.23 2144.61 1159.76 2144.64 1159.34C2144.69 1158.9 2144.72 1158.35 2144.74 1157.67C2144.75 1156.99 2144.76 1156.42 2144.76 1155.98C2144.77 1155.53 2144.77 1154.94 2144.77 1154.2L2144.77 1148L2159.79 1148L2159.79 1163.81L2162.94 1163.81ZM2156.35 1163.81L2156.35 1151.19L2148.11 1151.19L2148.11 1154.68C2148.11 1158.75 2147.73 1161.79 2146.96 1163.81L2156.35 1163.81ZM2196.19 1163.81L2195.8 1171.64L2192.76 1171.64L2192.76 1167L2177.75 1167L2177.99 1171.64L2174.94 1171.64L2174.18 1163.81L2175.96 1163.81C2176.21 1163.81 2176.43 1163.74 2176.63 1163.6C2176.83 1163.47 2177 1163.25 2177.13 1162.96C2177.28 1162.66 2177.41 1162.35 2177.5 1162.03C2177.6 1161.71 2177.68 1161.29 2177.75 1160.77C2177.81 1160.23 2177.86 1159.76 2177.89 1159.34C2177.94 1158.9 2177.97 1158.35 2177.99 1157.67C2178 1156.99 2178.01 1156.42 2178.01 1155.98C2178.02 1155.53 2178.02 1154.94 2178.02 1154.2L2178.02 1148L2193.04 1148L2193.04 1163.81L2196.19 1163.81ZM2189.6 1163.81L2189.6 1151.19L2181.36 1151.19L2181.36 1154.68C2181.36 1158.75 2180.98 1161.79 2180.21 1163.81L2189.6 1163.81ZM2213.56 1166.26C2211.99 1167.14 2210.24 1167.58 2208.32 1167.58C2206.41 1167.58 2204.66 1167.14 2203.09 1166.26C2201.52 1165.38 2200.29 1164.17 2199.4 1162.64C2198.51 1161.09 2198.06 1159.38 2198.06 1157.5C2198.06 1155.62 2198.51 1153.91 2199.4 1152.38C2200.29 1150.83 2201.52 1149.62 2203.09 1148.74C2204.66 1147.86 2206.41 1147.42 2208.32 1147.42C2210.24 1147.42 2211.99 1147.86 2213.56 1148.74C2215.13 1149.62 2216.36 1150.83 2217.25 1152.38C2218.14 1153.91 2218.58 1155.62 2218.58 1157.5C2218.58 1159.38 2218.14 1161.09 2217.25 1162.64C2216.36 1164.17 2215.13 1165.38 2213.56 1166.26ZM2203.52 1162.32C2204.78 1163.59 2206.38 1164.22 2208.32 1164.22C2210.27 1164.22 2211.87 1163.59 2213.13 1162.32C2214.39 1161.06 2215.02 1159.45 2215.02 1157.5C2215.02 1155.55 2214.39 1153.94 2213.13 1152.68C2211.87 1151.41 2210.27 1150.78 2208.32 1150.78C2206.38 1150.78 2204.78 1151.41 2203.52 1152.68C2202.27 1153.94 2201.64 1155.55 2201.64 1157.5C2201.64 1159.45 2202.27 1161.06 2203.52 1162.32ZM2249.09 1163.59L2249.09 1167L2231.41 1167L2231.41 1164.31L2234.67 1161.56C2235.87 1160.56 2236.91 1159.66 2237.79 1158.87C2238.67 1158.08 2239.61 1157.17 2240.61 1156.15C2241.61 1155.12 2242.42 1154.17 2243.04 1153.31C2243.67 1152.43 2244.19 1151.51 2244.6 1150.54C2245.01 1149.58 2245.2 1148.67 2245.17 1147.81C2245.14 1146.39 2244.65 1145.27 2243.73 1144.44C2242.81 1143.6 2241.57 1143.18 2240 1143.18C2238.19 1143.18 2236.83 1143.71 2235.92 1144.79C2235.01 1145.85 2234.56 1147.26 2234.56 1149.02C2234.56 1149.29 2234.59 1149.71 2234.63 1150.28L2231.18 1148.69L2231.18 1148.54C2231.18 1145.92 2232.02 1143.81 2233.71 1142.23C2235.39 1140.63 2237.6 1139.84 2240.35 1139.84C2241.93 1139.84 2243.34 1140.13 2244.58 1140.71C2245.83 1141.29 2246.83 1142.19 2247.59 1143.4C2248.35 1144.61 2248.74 1146.06 2248.74 1147.74C2248.74 1148.54 2248.62 1149.36 2248.38 1150.19C2248.15 1151.01 2247.86 1151.77 2247.51 1152.47C2247.17 1153.18 2246.67 1153.94 2246.03 1154.77C2245.38 1155.6 2244.78 1156.33 2244.21 1156.96C2243.65 1157.58 2242.9 1158.32 2241.96 1159.19C2241.04 1160.05 2240.24 1160.78 2239.57 1161.36C2238.91 1161.93 2238.04 1162.67 2236.95 1163.59L2249.09 1163.59ZM2277.11 1167L2267.83 1158.63L2267.83 1167L2264.42 1167L2264.42 1148L2267.83 1148L2267.83 1156.2L2276.57 1148L2281.06 1148L2271.22 1157.2L2282.08 1167L2277.11 1167ZM2297.61 1166.26C2296.04 1167.14 2294.29 1167.58 2292.38 1167.58C2290.46 1167.58 2288.72 1167.14 2287.14 1166.26C2285.57 1165.38 2284.34 1164.17 2283.45 1162.64C2282.56 1161.09 2282.12 1159.38 2282.12 1157.5C2282.12 1155.62 2282.56 1153.91 2283.45 1152.38C2284.34 1150.83 2285.57 1149.62 2287.14 1148.74C2288.72 1147.86 2290.46 1147.42 2292.38 1147.42C2294.29 1147.42 2296.04 1147.86 2297.61 1148.74C2299.18 1149.62 2300.41 1150.83 2301.3 1152.38C2302.19 1153.91 2302.64 1155.62 2302.64 1157.5C2302.64 1159.38 2302.19 1161.09 2301.3 1162.64C2300.41 1164.17 2299.18 1165.38 2297.61 1166.26ZM2287.57 1162.32C2288.83 1163.59 2290.43 1164.22 2292.38 1164.22C2294.32 1164.22 2295.92 1163.59 2297.18 1162.32C2298.44 1161.06 2299.08 1159.45 2299.08 1157.5C2299.08 1155.55 2298.44 1153.94 2297.18 1152.68C2295.92 1151.41 2294.32 1150.78 2292.38 1150.78C2290.43 1150.78 2288.83 1151.41 2287.57 1152.68C2286.32 1153.94 2285.7 1155.55 2285.7 1157.5C2285.7 1159.45 2286.32 1161.06 2287.57 1162.32ZM2317 1147.42C2319.73 1147.42 2322.01 1148.39 2323.83 1150.32C2325.66 1152.24 2326.57 1154.63 2326.57 1157.5C2326.57 1160.37 2325.66 1162.77 2323.83 1164.7C2322.01 1166.62 2319.73 1167.58 2317 1167.58C2314.67 1167.58 2312.61 1166.67 2310.8 1164.87L2310.8 1176.5L2307.39 1176.5L2307.39 1148L2310.8 1148L2310.8 1150.13C2312.61 1148.33 2314.67 1147.42 2317 1147.42ZM2312.42 1162.32C2313.58 1163.59 2315.06 1164.22 2316.85 1164.22C2318.64 1164.22 2320.12 1163.59 2321.27 1162.32C2322.43 1161.06 2323.01 1159.45 2323.01 1157.5C2323.01 1155.55 2322.43 1153.94 2321.27 1152.68C2320.12 1151.41 2318.64 1150.78 2316.85 1150.78C2315.06 1150.78 2313.58 1151.41 2312.42 1152.68C2311.27 1153.94 2310.69 1155.55 2310.69 1157.5C2310.69 1159.45 2311.27 1161.06 2312.42 1162.32ZM2348.43 1167L2345 1167L2345 1151.19L2334.74 1151.19L2334.74 1167L2331.32 1167L2331.32 1148L2348.43 1148L2348.43 1167ZM2364.05 1166.78C2364.71 1168.68 2365.04 1170.25 2365.04 1171.49C2365.04 1173.14 2364.56 1174.48 2363.61 1175.52C2362.66 1176.56 2361.33 1177.08 2359.64 1177.08C2358.4 1177.08 2357.15 1176.68 2355.87 1175.89L2355.87 1171.86C2357.26 1173.1 2358.5 1173.72 2359.6 1173.72C2360.24 1173.72 2360.75 1173.54 2361.12 1173.2C2361.49 1172.86 2361.72 1172.41 2361.79 1171.84C2361.86 1171.29 2361.83 1170.66 2361.7 1169.97C2361.57 1169.29 2361.36 1168.59 2361.05 1167.87L2352.42 1148L2356.22 1148L2362.29 1162.97L2368.49 1148L2372.18 1148L2364.05 1166.78ZM2383.81 1167.58C2381.92 1167.58 2380.2 1167.14 2378.64 1166.26C2377.09 1165.38 2375.87 1164.17 2374.98 1162.64C2374.1 1161.09 2373.67 1159.38 2373.67 1157.5C2373.67 1155.62 2374.12 1153.91 2375.04 1152.36C2375.95 1150.81 2377.19 1149.61 2378.75 1148.74C2380.32 1147.86 2382.05 1147.42 2383.93 1147.42C2385.6 1147.42 2387.09 1147.72 2388.42 1148.3C2389.74 1148.88 2390.83 1149.72 2391.68 1150.82L2389.55 1153.73C2388.93 1152.82 2388.13 1152.1 2387.14 1151.58C2386.16 1151.05 2385.09 1150.78 2383.93 1150.78C2381.98 1150.78 2380.38 1151.41 2379.12 1152.68C2377.87 1153.94 2377.25 1155.55 2377.25 1157.5C2377.25 1159.45 2377.86 1161.06 2379.1 1162.32C2380.34 1163.59 2381.91 1164.22 2383.81 1164.22C2385.6 1164.22 2387.06 1163.74 2388.21 1162.79C2389.37 1161.82 2390.12 1160.56 2390.44 1158.98L2393.39 1160.69C2392.79 1162.77 2391.65 1164.44 2389.96 1165.7C2388.26 1166.95 2386.21 1167.58 2383.81 1167.58ZM2405.02 1166.78C2405.68 1168.68 2406.01 1170.25 2406.01 1171.49C2406.01 1173.14 2405.53 1174.48 2404.58 1175.52C2403.62 1176.56 2402.3 1177.08 2400.61 1177.08C2399.37 1177.08 2398.11 1176.68 2396.84 1175.89L2396.84 1171.86C2398.23 1173.1 2399.47 1173.72 2400.57 1173.72C2401.21 1173.72 2401.72 1173.54 2402.09 1173.2C2402.46 1172.86 2402.68 1172.41 2402.76 1171.84C2402.83 1171.29 2402.8 1170.66 2402.67 1169.97C2402.54 1169.29 2402.33 1168.59 2402.02 1167.87L2393.39 1148L2397.19 1148L2403.26 1162.97L2409.46 1148L2413.15 1148L2405.02 1166.78Z" fill="#0D1846"/>
<path d="M2110 1339.83L2107.5 1335.43L2139 1335.43L2139 1339.83L2110 1339.83ZM2110 1325.09L2107.5 1320.69L2139 1320.69L2139 1325.09L2110 1325.09ZM2135.05 1293.94L2139 1293.94L2139 1314.42L2135.88 1314.42L2132.71 1310.63C2131.54 1309.25 2130.51 1308.04 2129.59 1307.02C2128.67 1306.01 2127.62 1304.92 2126.43 1303.76C2125.24 1302.6 2124.15 1301.66 2123.14 1300.94C2122.13 1300.21 2121.06 1299.61 2119.94 1299.14C2118.83 1298.67 2117.77 1298.45 2116.79 1298.47C2115.14 1298.52 2113.83 1299.08 2112.87 1300.15C2111.9 1301.21 2111.41 1302.65 2111.41 1304.47C2111.41 1306.56 2112.04 1308.13 2113.28 1309.19C2114.51 1310.24 2116.15 1310.76 2118.18 1310.76C2118.5 1310.76 2118.98 1310.73 2119.64 1310.68L2117.79 1314.67L2117.62 1314.67C2114.59 1314.67 2112.15 1313.7 2110.32 1311.75C2108.47 1309.8 2107.55 1307.24 2107.55 1304.06C2107.55 1302.23 2107.88 1300.59 2108.56 1299.16C2109.23 1297.72 2110.27 1296.55 2111.67 1295.68C2113.08 1294.79 2114.75 1294.35 2116.7 1294.35C2117.63 1294.35 2118.58 1294.49 2119.54 1294.76C2120.48 1295.03 2121.36 1295.37 2122.18 1295.77C2122.99 1296.17 2123.88 1296.74 2124.84 1297.49C2125.8 1298.23 2126.65 1298.93 2127.38 1299.59C2128.09 1300.24 2128.95 1301.1 2129.96 1302.19C2130.96 1303.27 2131.8 1304.19 2132.47 1304.96C2133.13 1305.72 2133.99 1306.73 2135.05 1307.99L2135.05 1293.94ZM2110 1286.08L2107.5 1281.67L2139 1281.67L2139 1286.08L2110 1286.08Z" fill="#0D1846"/>
<path d="M1783 1347.53L1780.5 1343.13L1812 1343.13L1812 1347.53L1783 1347.53ZM1783 1332.79L1780.5 1328.39L1812 1328.39L1812 1332.79L1783 1332.79ZM1808.05 1301.64L1812 1301.64L1812 1322.12L1808.88 1322.12L1805.71 1318.33C1804.54 1316.95 1803.51 1315.74 1802.59 1314.73C1801.67 1313.71 1800.62 1312.62 1799.43 1311.46C1798.24 1310.3 1797.15 1309.36 1796.14 1308.65C1795.13 1307.91 1794.06 1307.31 1792.94 1306.84C1791.83 1306.37 1790.77 1306.15 1789.79 1306.17C1788.14 1306.22 1786.83 1306.78 1785.87 1307.85C1784.9 1308.91 1784.41 1310.35 1784.41 1312.17C1784.41 1314.26 1785.04 1315.84 1786.28 1316.9C1787.51 1317.94 1789.15 1318.46 1791.18 1318.46C1791.5 1318.46 1791.98 1318.43 1792.64 1318.38L1790.79 1322.37L1790.62 1322.37C1787.59 1322.37 1785.15 1321.4 1783.32 1319.45C1781.47 1317.5 1780.55 1314.94 1780.55 1311.76C1780.55 1309.93 1780.88 1308.29 1781.56 1306.86C1782.23 1305.42 1783.27 1304.26 1784.67 1303.38C1786.08 1302.49 1787.75 1302.05 1789.7 1302.05C1790.63 1302.05 1791.58 1302.19 1792.54 1302.46C1793.48 1302.73 1794.36 1303.07 1795.18 1303.47C1795.99 1303.87 1796.88 1304.44 1797.84 1305.19C1798.8 1305.93 1799.65 1306.63 1800.38 1307.29C1801.09 1307.94 1801.95 1308.8 1802.96 1309.89C1803.96 1310.97 1804.8 1311.89 1805.47 1312.66C1806.13 1313.42 1806.99 1314.43 1808.05 1315.69L1808.05 1301.64ZM1810.65 1276.89C1811.99 1278.81 1812.67 1281.01 1812.67 1283.49C1812.67 1285.96 1811.99 1288.17 1810.65 1290.1C1809.29 1292.04 1807.39 1293.54 1804.95 1294.62C1802.52 1295.68 1799.73 1296.21 1796.6 1296.21C1793.47 1296.21 1790.69 1295.68 1788.26 1294.62C1785.81 1293.54 1783.91 1292.04 1782.57 1290.1C1781.22 1288.17 1780.55 1285.96 1780.55 1283.49C1780.55 1281.01 1781.22 1278.81 1782.57 1276.89C1783.91 1274.96 1785.8 1273.46 1788.24 1272.4C1790.67 1271.34 1793.46 1270.81 1796.6 1270.81C1799.73 1270.81 1802.52 1271.34 1804.95 1272.4C1807.39 1273.46 1809.29 1274.96 1810.65 1276.89ZM1805.25 1289.5C1807.43 1287.96 1808.52 1285.95 1808.52 1283.49C1808.52 1281.02 1807.44 1279.03 1805.28 1277.51C1803.1 1275.98 1800.21 1275.22 1796.6 1275.22C1792.99 1275.22 1790.1 1275.98 1787.94 1277.51C1785.76 1279.03 1784.67 1281.02 1784.67 1283.49C1784.67 1285.95 1785.76 1287.96 1787.94 1289.5C1790.11 1291.04 1793 1291.8 1796.6 1291.8C1800.19 1291.8 1803.08 1291.04 1805.25 1289.5Z" fill="#0D1846"/>
<path d="M1485.1 1452L1489.51 1449.5L1489.51 1481L1485.1 1481L1485.1 1452ZM1516.25 1477.05L1516.25 1481L1495.78 1481L1495.78 1477.88L1499.56 1474.71C1500.95 1473.54 1502.15 1472.51 1503.17 1471.59C1504.19 1470.67 1505.28 1469.62 1506.44 1468.43C1507.6 1467.24 1508.53 1466.15 1509.25 1465.14C1509.98 1464.13 1510.58 1463.06 1511.06 1461.94C1511.53 1460.83 1511.75 1459.77 1511.72 1458.79C1511.68 1457.14 1511.12 1455.83 1510.05 1454.88C1508.99 1453.9 1507.55 1453.41 1505.73 1453.41C1503.64 1453.41 1502.06 1454.04 1501 1455.28C1499.96 1456.51 1499.43 1458.15 1499.43 1460.18C1499.43 1460.5 1499.46 1460.98 1499.52 1461.64L1495.52 1459.79L1495.52 1459.62C1495.52 1456.59 1496.5 1454.15 1498.44 1452.32C1500.39 1450.47 1502.96 1449.55 1506.14 1449.55C1507.97 1449.55 1509.6 1449.88 1511.03 1450.56C1512.48 1451.23 1513.64 1452.27 1514.51 1453.67C1515.4 1455.08 1515.85 1456.75 1515.85 1458.7C1515.85 1459.63 1515.71 1460.58 1515.44 1461.54C1515.17 1462.48 1514.83 1463.36 1514.43 1464.18C1514.03 1464.99 1513.45 1465.88 1512.71 1466.84C1511.97 1467.8 1511.26 1468.65 1510.6 1469.38C1509.96 1470.09 1509.09 1470.95 1508 1471.96C1506.93 1472.96 1506.01 1473.8 1505.23 1474.47C1504.47 1475.13 1503.46 1475.99 1502.2 1477.05L1516.25 1477.05ZM1543.2 1467.62C1544.49 1467.5 1545.72 1467.67 1546.89 1468.13C1548.08 1468.57 1549.06 1469.31 1549.84 1470.34C1550.61 1471.36 1551 1472.55 1551 1473.91C1551 1475.13 1550.72 1476.24 1550.18 1477.26C1549.65 1478.26 1548.94 1479.08 1548.05 1479.71C1547.16 1480.33 1546.17 1480.81 1545.07 1481.15C1543.98 1481.49 1542.85 1481.67 1541.69 1481.67C1539.17 1481.67 1537.01 1481.04 1535.2 1479.8C1533.4 1478.55 1532.09 1476.98 1531.27 1475.07L1534.45 1472.81C1535.07 1474.4 1535.99 1475.67 1537.22 1476.62C1538.47 1477.55 1539.93 1478.01 1541.61 1478.01C1543.24 1478.01 1544.54 1477.63 1545.52 1476.88C1546.49 1476.1 1546.98 1475.08 1546.98 1473.82C1546.98 1472.79 1546.58 1471.93 1545.8 1471.22C1545.01 1470.51 1544.02 1470.12 1542.83 1470.06C1541.64 1470.01 1540.36 1470.34 1538.99 1471.05L1537.31 1468.73L1544.83 1462.7L1533.21 1462.7L1533.21 1459L1550.16 1459L1550.16 1462.31L1543.2 1467.62ZM1564.96 1458.33C1567.9 1458.33 1570.13 1459.08 1571.66 1460.57C1573.21 1462.06 1573.98 1464.19 1573.98 1466.97L1573.98 1481L1570.03 1481L1570.03 1478.44C1569.14 1479.4 1567.89 1480.18 1566.27 1480.79C1564.65 1481.37 1563.12 1481.67 1561.67 1481.67C1559.68 1481.67 1558.03 1481.17 1556.71 1480.18C1555.41 1479.2 1554.75 1477.75 1554.75 1475.84C1554.75 1474.84 1554.97 1473.95 1555.4 1473.18C1555.83 1472.41 1556.45 1471.77 1557.25 1471.27C1558.06 1470.75 1558.94 1470.34 1559.87 1470.02C1560.8 1469.69 1561.88 1469.41 1563.11 1469.16C1565.95 1468.57 1567.67 1468.17 1568.29 1467.94C1569.21 1467.61 1569.77 1467.13 1569.99 1466.5C1570.07 1466.23 1570.12 1465.88 1570.12 1465.47C1570.12 1464.41 1569.67 1463.55 1568.76 1462.91C1567.86 1462.27 1566.58 1461.94 1564.92 1461.94C1563.2 1461.94 1561.55 1462.42 1559.98 1463.36C1558.41 1464.31 1557.25 1465.61 1556.47 1467.27L1553.92 1464.16C1555.19 1462.34 1556.8 1460.91 1558.73 1459.88C1560.66 1458.85 1562.74 1458.33 1564.96 1458.33ZM1562.19 1478.14C1563.48 1478.14 1564.73 1477.89 1565.95 1477.39C1567.18 1476.89 1568.19 1476.19 1568.98 1475.29C1569.77 1474.38 1570.16 1473.42 1570.16 1472.38L1570.16 1470.21C1569 1470.92 1567.14 1471.55 1564.57 1472.11C1563.84 1472.26 1563.28 1472.39 1562.88 1472.49C1562.48 1472.58 1562.01 1472.7 1561.48 1472.86C1560.96 1473 1560.57 1473.15 1560.3 1473.31C1560.03 1473.45 1559.75 1473.64 1559.46 1473.87C1559.19 1474.08 1558.99 1474.33 1558.88 1474.6C1558.78 1474.87 1558.73 1475.18 1558.73 1475.54C1558.73 1476.4 1558.99 1477.05 1559.52 1477.5C1560.07 1477.93 1560.96 1478.14 1562.19 1478.14ZM1600.15 1459L1600.15 1481L1596.18 1481L1596.18 1462.7L1587.02 1462.7L1586.94 1469.21C1586.92 1470.77 1586.86 1472.13 1586.75 1473.31C1586.63 1474.47 1586.43 1475.56 1586.14 1476.6C1585.87 1477.63 1585.51 1478.46 1585.05 1479.11C1584.59 1479.75 1584 1480.26 1583.29 1480.63C1582.57 1480.99 1581.73 1481.17 1580.75 1481.17C1580.26 1481.17 1579.63 1481.1 1578.84 1480.96L1577.96 1476.92C1578.79 1477.1 1579.51 1477.22 1580.13 1477.26C1581.4 1477.26 1582.25 1476.42 1582.66 1474.73C1582.94 1473.64 1583.09 1471.57 1583.11 1468.52C1583.11 1468.46 1583.11 1468.38 1583.11 1468.28L1583.11 1468.11L1583.16 1459L1600.15 1459ZM1616.22 1458.33C1619.16 1458.33 1621.39 1459.08 1622.92 1460.57C1624.47 1462.06 1625.25 1464.19 1625.25 1466.97L1625.25 1481L1621.29 1481L1621.29 1478.44C1620.4 1479.4 1619.15 1480.18 1617.53 1480.79C1615.91 1481.37 1614.38 1481.67 1612.93 1481.67C1610.94 1481.67 1609.29 1481.17 1607.97 1480.18C1606.67 1479.2 1606.02 1477.75 1606.02 1475.84C1606.02 1474.84 1606.23 1473.95 1606.66 1473.18C1607.09 1472.41 1607.71 1471.77 1608.51 1471.27C1609.33 1470.75 1610.2 1470.34 1611.13 1470.02C1612.06 1469.69 1613.14 1469.41 1614.37 1469.16C1617.21 1468.57 1618.94 1468.17 1619.55 1467.94C1620.47 1467.61 1621.03 1467.13 1621.25 1466.5C1621.34 1466.23 1621.38 1465.88 1621.38 1465.47C1621.38 1464.41 1620.93 1463.55 1620.02 1462.91C1619.12 1462.27 1617.84 1461.94 1616.18 1461.94C1614.46 1461.94 1612.81 1462.42 1611.24 1463.36C1609.68 1464.31 1608.51 1465.61 1607.74 1467.27L1605.18 1464.16C1606.45 1462.34 1608.06 1460.91 1609.99 1459.88C1611.92 1458.85 1614 1458.33 1616.22 1458.33ZM1613.45 1478.14C1614.74 1478.14 1615.99 1477.89 1617.21 1477.39C1618.44 1476.89 1619.45 1476.19 1620.24 1475.29C1621.03 1474.38 1621.42 1473.42 1621.42 1472.38L1621.42 1470.21C1620.26 1470.92 1618.4 1471.55 1615.84 1472.11C1615.1 1472.26 1614.54 1472.39 1614.14 1472.49C1613.74 1472.58 1613.27 1472.7 1612.74 1472.86C1612.23 1473 1611.83 1473.15 1611.56 1473.31C1611.29 1473.45 1611.01 1473.64 1610.72 1473.87C1610.45 1474.08 1610.26 1474.33 1610.14 1474.6C1610.04 1474.87 1609.99 1475.18 1609.99 1475.54C1609.99 1476.4 1610.26 1477.05 1610.79 1477.5C1611.33 1477.93 1612.22 1478.14 1613.45 1478.14Z" fill="#0D1846"/>
<path d="M1304.85 690L1304.85 503" stroke="#0D1846"/>
<path d="M1294.85 690L1294.85 503" stroke="#0D1846"/>
<path d="M1285.85 690L1285.85 503" stroke="#0D1846"/>
<path d="M1276.85 690L1276.85 503" stroke="#0D1846"/>
<path d="M1313.85 690L1313.85 503" stroke="#0D1846"/>
<path d="M1322.85 690L1322.85 503" stroke="#0D1846"/>
<path d="M1331.85 690L1331.85 503" stroke="#0D1846"/>
<path d="M1339.85 690L1339.85 503" stroke="#0D1846"/>
<path d="M1347.85 503L1347.85 690" stroke="#0D1846"/>
<path d="M1388.85 690L1388.85 503" stroke="#0D1846"/>
<path d="M1396.85 690L1396.85 503" stroke="#0D1846"/>
<path d="M1404.85 503L1404.85 690" stroke="#0D1846"/>
<path d="M1276.85 596L1347.85 596" stroke="#0D1846"/>
<path d="M597.988 653.094L532.165 653.094" stroke="#0D1846"/>
<path d="M597.988 639.617L532.165 639.617" stroke="#0D1846"/>
<path d="M597.988 633.84L532.165 633.84" stroke="#0D1846"/>
<path d="M597.988 618.438L532.165 618.438" stroke="#0D1846"/>
<path d="M597.988 612.662L532.165 612.662" stroke="#0D1846"/>
<path d="M597.988 604.961L532.165 604.961" stroke="#0D1846"/>
<path d="M597.988 591.484L532.165 591.484" stroke="#0D1846"/>
<path d="M597.988 583.783L532.165 583.783" stroke="#0D1846"/>
<path d="M597.988 578.006L532.165 578.006" stroke="#0D1846"/>
<path d="M597.988 564.529L532.165 564.529" stroke="#0D1846"/>
<path d="M597.988 556.826L532.165 556.826" stroke="#0D1846"/>
<path d="M597.988 543.35L532.165 543.35" stroke="#0D1846"/>
<path d="M597.988 647.318L532.165 647.318" stroke="#0D1846"/>
<path d="M597.988 626.139L532.165 626.139" stroke="#0D1846"/>
<path d="M597.988 599.184L532.165 599.184" stroke="#0D1846"/>
<path d="M597.988 570.305L532.165 570.305" stroke="#0D1846"/>
<path d="M596.672 551.051L532.166 551.051" stroke="#0D1846"/>
<path d="M597.988 543.35L532.165 543.35" stroke="#0D1846"/>
<path d="M565.074 653.094L565.074 542.309" stroke="#0D1846"/>
<path d="M2434.44 1122.87L2434.44 1081.47" stroke="#0D1846" stroke-width="5"/>
<path d="M1472.04 438L1397 438" stroke="#0D1846" stroke-width="2"/>
<path d="M2435.1 1220.1L2533.18 1219.14" stroke="#0D1846" stroke-width="5"/>
<path d="M2534.49 1276.9L2534.49 1173.89L2491.71 1151.75L2599 1136.35L2534.49 1112.28L2534.49 1037.19" stroke="#0D1846" stroke-width="3"/>
<path d="M1481.33 1082.44L1481.33 782.088L1689.33 782.088" stroke="#0D1846" stroke-width="3"/>
<path d="M1480.01 861.025L1415.51 861.025" stroke="#0D1846" stroke-width="3"/>
<path d="M1406.29 323.863L1348.37 323.863" stroke="#0D1846" stroke-width="2"/>
<path d="M1175.91 552.977L1119.3 552.977" stroke="#0D1846" stroke-width="2"/>
<path d="M2 373H54" stroke="#0D1846" stroke-width="2"/>
<path d="M652.617 386.436L597.326 386.436" stroke="#0D1846" stroke-width="2"/>
<path d="M1753.84 250.703L1753.84 104.379" stroke="#0D1846"/>
<path d="M1753.84 104.379L1325.99 104.379" stroke="#0D1846"/>
<path d="M1325.99 104.376L1325.99 254.551" stroke="#0D1846"/>
<path d="M1710.39 232.411L1710.39 237.225L1706.45 237.225L1706.45 232.411L1710.39 232.411Z" stroke="#0D1846"/>
<path d="M1710.39 138.068L1710.39 142.881L1706.45 142.881L1706.45 138.068L1710.39 138.068Z" stroke="#0D1846"/>
<path d="M1373.38 232.411L1373.38 237.225L1369.43 237.225L1369.43 232.411L1373.38 232.411Z" stroke="#0D1846"/>
<path d="M1373.38 138.068L1373.38 142.881L1369.43 142.881L1369.43 138.068L1373.38 138.068Z" stroke="#0D1846"/>
<path d="M1543.2 232.411L1543.2 237.225L1539.25 237.225L1539.25 232.411L1543.2 232.411Z" stroke="#0D1846"/>
<path d="M1543.2 138.068L1543.2 142.881L1539.25 142.881L1539.25 138.068L1543.2 138.068Z" stroke="#0D1846"/>
<path d="M1835.99 1338.36L1864 1347.15L1864 1351.08L1841.13 1358.97L1864 1366.64L1864 1370.55L1835.99 1379.59L1835.99 1375.24L1857.96 1368.52L1835.99 1360.92L1835.99 1356.92L1858.51 1349.2L1835.99 1342.48L1835.99 1338.36ZM1864.61 1322.58C1864.61 1324.7 1864.23 1326.7 1863.49 1328.56C1862.74 1330.42 1861.71 1332.01 1860.43 1333.32C1859.12 1334.64 1857.57 1335.68 1855.76 1336.45C1853.95 1337.2 1852.01 1337.58 1849.96 1337.58C1847.25 1337.58 1844.78 1336.95 1842.55 1335.69C1840.33 1334.41 1838.58 1332.66 1837.32 1330.43C1836.04 1328.19 1835.41 1325.7 1835.41 1322.95C1835.41 1320.52 1835.83 1318.35 1836.68 1316.45C1837.51 1314.54 1838.62 1312.98 1840 1311.78L1844.04 1314.03C1842.53 1314.96 1841.35 1316.18 1840.5 1317.68C1839.66 1319.18 1839.23 1320.86 1839.23 1322.72C1839.23 1324.76 1839.7 1326.6 1840.64 1328.23C1841.57 1329.84 1842.85 1331.1 1844.49 1332C1846.12 1332.89 1847.94 1333.34 1849.96 1333.34C1853.07 1333.34 1855.65 1332.33 1857.69 1330.32C1859.74 1328.29 1860.76 1325.71 1860.76 1322.58C1860.76 1319.98 1859.98 1317.81 1858.43 1316.08C1856.87 1314.33 1854.82 1313.27 1852.28 1312.87L1853.77 1308.87C1857.06 1309.54 1859.69 1311.12 1861.66 1313.64C1863.62 1316.14 1864.61 1319.12 1864.61 1322.58ZM1863.96 1251.08L1851.6 1264.16L1864 1264.16L1864 1268.17L1851.6 1268.17L1863.96 1281.25L1864 1287.09L1849.88 1271.64L1835.99 1286.29L1835.99 1281.16L1848.36 1268.17L1835.99 1268.17L1835.99 1264.16L1848.36 1264.16L1835.99 1251.04L1835.99 1246.04L1849.72 1260.69L1864 1245.12L1863.96 1251.08Z" fill="#0D1846"/>
<path d="M1994.19 1333.1L2025 1342.77L2025 1347.09L1999.84 1355.77L2025 1364.21L2025 1368.51L1994.19 1378.45L1994.19 1373.66L2018.36 1366.27L1994.19 1357.91L1994.19 1353.51L2018.96 1345.02L1994.19 1337.63L1994.19 1333.1ZM2025.67 1315.74C2025.67 1318.07 2025.26 1320.27 2024.44 1322.31C2023.61 1324.36 2022.49 1326.11 2021.07 1327.56C2019.64 1329 2017.92 1330.15 2015.93 1330.99C2013.94 1331.82 2011.82 1332.24 2009.55 1332.24C2006.57 1332.24 2003.86 1331.55 2001.41 1330.16C1998.96 1328.75 1997.04 1326.83 1995.65 1324.38C1994.25 1321.91 1993.55 1319.17 1993.55 1316.15C1993.55 1313.47 1994.01 1311.09 1994.94 1308.99C1995.86 1306.89 1997.08 1305.18 1998.6 1303.86L2003.04 1306.33C2001.38 1307.36 2000.09 1308.7 1999.15 1310.35C1998.22 1311.99 1997.76 1313.84 1997.76 1315.89C1997.76 1318.14 1998.27 1320.16 1999.3 1321.95C2000.32 1323.73 2001.73 1325.11 2003.54 1326.1C2005.33 1327.08 2007.33 1327.58 2009.55 1327.58C2012.98 1327.58 2015.81 1326.47 2018.06 1324.25C2020.31 1322.01 2021.43 1319.18 2021.43 1315.74C2021.43 1312.88 2020.58 1310.49 2018.88 1308.59C2017.16 1306.67 2014.9 1305.49 2012.11 1305.06L2013.74 1300.66C2017.37 1301.39 2020.26 1303.14 2022.42 1305.9C2024.58 1308.65 2025.67 1311.93 2025.67 1315.74ZM1994.19 1250.38L2025 1250.38L2025 1254.79L2011.4 1254.79C2012.49 1257.47 2013.03 1260.25 2013.03 1263.15C2013.03 1266.71 2012.06 1269.5 2010.11 1271.5C2008.16 1273.49 2005.36 1274.49 2001.69 1274.49L1994.19 1274.49L1994.19 1270.09L2001.69 1270.09C2006.49 1270.09 2008.89 1267.77 2008.89 1263.15C2008.89 1260.22 2008.32 1257.44 2007.19 1254.79L1994.19 1254.79L1994.19 1250.38Z" fill="#0D1846"/>
<path d="M432.191 612.68L463 622.348L463 626.666L437.842 635.346L463 643.789L463 648.086L432.191 658.033L432.191 653.242L456.361 645.852L432.191 637.494L432.191 633.09L456.963 624.604L432.191 617.213L432.191 612.68ZM463.666 595.32C463.666 597.655 463.258 599.846 462.441 601.895C461.611 603.943 460.486 605.69 459.068 607.137C457.636 608.583 455.924 609.729 453.934 610.574C451.943 611.405 449.816 611.82 447.553 611.82C444.574 611.82 441.859 611.126 439.41 609.736C436.961 608.333 435.042 606.406 433.652 603.957C432.249 601.493 431.547 598.751 431.547 595.729C431.547 593.05 432.012 590.665 432.943 588.574C433.86 586.469 435.077 584.757 436.596 583.439L441.043 585.91C439.382 586.941 438.085 588.281 437.154 589.928C436.223 591.575 435.758 593.423 435.758 595.471C435.758 597.719 436.273 599.739 437.305 601.529C438.322 603.305 439.732 604.687 441.537 605.676C443.327 606.664 445.333 607.158 447.553 607.158C450.976 607.158 453.812 606.048 456.061 603.828C458.309 601.594 459.434 598.758 459.434 595.32C459.434 592.456 458.581 590.071 456.877 588.166C455.158 586.247 452.902 585.072 450.109 584.643L451.742 580.238C455.366 580.969 458.259 582.716 460.422 585.48C462.585 588.23 463.666 591.51 463.666 595.32ZM432.191 541.395L463 541.395L463 545.799L449.4 545.799C450.489 548.477 451.033 551.263 451.033 554.156C451.033 557.723 450.059 560.508 448.111 562.514C446.163 564.505 443.356 565.5 439.689 565.5L432.191 565.5L432.191 561.096L439.689 561.096C444.488 561.096 446.887 558.783 446.887 554.156C446.887 551.234 446.321 548.449 445.189 545.799L432.191 545.799L432.191 541.395Z" fill="#0D1846"/>
<path d="M1478 0V85" stroke="#F15025" stroke-width="5"/>
<path d="M1540 13L1540 78" stroke="#F15025" stroke-width="5"/>
<path d="M1602 0V85" stroke="#F15025" stroke-width="5"/>
<path d="M1540 78L1557 56" stroke="#F15025" stroke-width="5"/>
<path d="M1540.8 78.4511L1522.68 57.5394" stroke="#F15025" stroke-width="5"/>
</svg>
