<svg width="2615" height="440" viewBox="0 0 2615 440" fill="none" xmlns="http://www.w3.org/2000/svg">
<path d="M1146 144L1078 144" stroke="#0D1846"/>
<path d="M2612 189L2.99996 189" stroke="#0D1846" stroke-width="5"/>
<path d="M2.99989 436.999L2612 437" stroke="#0D1846" stroke-width="5"/>
<path d="M2229 253L2229 438" stroke="#0D1846" stroke-width="3"/>
<path d="M2149 254L2149 438" stroke="#0D1846" stroke-width="3"/>
<path d="M2149 191L2149 4.00037" stroke="#0D1846" stroke-width="2"/>
<path d="M1962 191L1962 4.00037" stroke="#0D1846" stroke-width="2"/>
<path d="M1776 190L1776 3.00037" stroke="#0D1846" stroke-width="2"/>
<path d="M251 189L251 4" stroke="#0D1846" stroke-width="2"/>
<path d="M471 191L471 4" stroke="#0D1846" stroke-width="2"/>
<path d="M403 191L403 4" stroke="#0D1846" stroke-width="2"/>
<path d="M2072 253L2072 436" stroke="#0D1846" stroke-width="3"/>
<path d="M1619 253L1619 436" stroke="#0D1846" stroke-width="2"/>
<path d="M1541 253L1541 436" stroke="#0D1846" stroke-width="2"/>
<path d="M1463 253L1463 436" stroke="#0D1846" stroke-width="2"/>
<path d="M1239 253L1239 436" stroke="#0D1846" stroke-width="2"/>
<path d="M1162 253L1162 436" stroke="#0D1846" stroke-width="2"/>
<path d="M1146 190L1146 3" stroke="#0D1846" stroke-width="2"/>
<path d="M1077 190L1077 3" stroke="#0D1846" stroke-width="2"/>
<path d="M2380 190L2380 3" stroke="#0D1846" stroke-width="3"/>
<path d="M1541 190L1541 3" stroke="#0D1846" stroke-width="2"/>
<path d="M1306 190L1306 3" stroke="#0D1846" stroke-width="2"/>
<path d="M539 190L539 3" stroke="#0D1846" stroke-width="2"/>
<path d="M819 190L819 3" stroke="#0D1846" stroke-width="2"/>
<path d="M998 190L998 4" stroke="#0D1846" stroke-width="2"/>
<path d="M327 439L327 252" stroke="#0D1846" stroke-width="2"/>
<path d="M251 439L251 253" stroke="#0D1846" stroke-width="2"/>
<path d="M941 437L941 254" stroke="#0D1846" stroke-width="5"/>
<path d="M1776 436L1776 252" stroke="#0D1846" stroke-width="5"/>
<path d="M2072 253L2612 253" stroke="#0D1846" stroke-width="5"/>
<path d="M939 254L1987 254" stroke="#0D1846" stroke-width="5"/>
<path d="M834 253L834 437" stroke="#0D1846" stroke-width="5"/>
<path d="M761 254L761 438" stroke="#0D1846" stroke-width="2"/>
<path d="M692 253L692 437" stroke="#0D1846" stroke-width="2"/>
<path d="M403 254L403 439" stroke="#0D1846" stroke-width="2"/>
<path d="M251 255L251 439" stroke="#0D1846" stroke-width="2"/>
<path d="M70.0002 252.443L69.998 436" stroke="#0D1846" stroke-width="5"/>
<path d="M3.00011 2.99998L3 437" stroke="#0D1846" stroke-width="5"/>
<path d="M2.9999 2.99954L2612 3" stroke="#0D1846" stroke-width="5"/>
<path d="M2612 438L2612 3.00001" stroke="#0D1846" stroke-width="5"/>
<path d="M1875.03 256L1875.03 439" stroke="#0D1846"/>
<path d="M1867.47 256L1867.47 439" stroke="#0D1846"/>
<path d="M1859.91 256L1859.91 439" stroke="#0D1846"/>
<path d="M1852.35 256L1852.35 439" stroke="#0D1846"/>
<path d="M1882.59 256L1882.59 439" stroke="#0D1846"/>
<path d="M1890.15 256L1890.15 439" stroke="#0D1846"/>
<path d="M1897.72 256L1897.72 439" stroke="#0D1846"/>
<path d="M1903.12 256L1903.12 439" stroke="#0D1846"/>
<path d="M1910.68 439L1910.68 256" stroke="#0D1846"/>
<path d="M1918.24 439L1918.24 256" stroke="#0D1846"/>
<path d="M1925.8 257L1925.8 439" stroke="#0D1846"/>
<path d="M1940.92 256L1940.92 439" stroke="#0D1846"/>
<path d="M1933.36 256L1933.36 439" stroke="#0D1846"/>
<path d="M1942 347L1852.35 346.995" stroke="#0D1846"/>
<path d="M941 399L833.53 399" stroke="#0D1846"/>
<path d="M941 385L833.53 385" stroke="#0D1846"/>
<path d="M941 378L833.53 378" stroke="#0D1846"/>
<path d="M941 364L833.53 364" stroke="#0D1846"/>
<path d="M941 357L833.53 357" stroke="#0D1846"/>
<path d="M941 350L833.53 350" stroke="#0D1846"/>
<path d="M941 336L833.53 336" stroke="#0D1846"/>
<path d="M941 329L833.53 329" stroke="#0D1846"/>
<path d="M941 322L833.53 322" stroke="#0D1846"/>
<path d="M941 308L833.53 308" stroke="#0D1846"/>
<path d="M941 301L833.53 301" stroke="#0D1846"/>
<path d="M941 287L833.53 287" stroke="#0D1846"/>
<path d="M941 392L833.53 392" stroke="#0D1846"/>
<path d="M941 371L833.53 371" stroke="#0D1846"/>
<path d="M941 343L833.53 343" stroke="#0D1846"/>
<path d="M941 315L833.53 315" stroke="#0D1846"/>
<path d="M939.918 294L834.068 294" stroke="#0D1846"/>
<path d="M941 287L833.53 287" stroke="#0D1846"/>
<path d="M886.994 399L886.994 287" stroke="#0D1846"/>
<path d="M2016.01 76.041L2021.01 73.209V109H2016.01V76.041ZM2042.59 87.7598C2045.49 87.7598 2047.92 88.6794 2049.87 90.5186C2051.82 92.3415 2052.8 94.8154 2052.8 97.9404C2052.8 101.244 2051.51 104.044 2048.94 106.339C2046.39 108.618 2043.22 109.757 2039.44 109.757C2037.18 109.757 2035.05 109.366 2033.05 108.585C2031.04 107.804 2029.31 106.673 2027.85 105.191L2029.19 99.8936C2032.18 103.295 2035.6 105.045 2039.44 105.143C2041.87 105.143 2043.85 104.492 2045.4 103.189C2046.96 101.871 2047.74 100.121 2047.74 97.9404C2047.74 95.9059 2047.11 94.319 2045.84 93.1797C2044.57 92.0241 2042.93 91.4463 2040.91 91.4463C2039.35 91.4463 2037.74 91.8939 2036.1 92.7891L2033.71 89.542L2045.16 78.5068H2029.46V73.9902H2051.31V77.8965L2041.15 87.8574C2041.48 87.7923 2041.96 87.7598 2042.59 87.7598ZM2060.34 76.041L2065.35 73.209V109H2060.34V76.041ZM2095.52 73.9902V78.1895L2080.19 109H2074.99L2090.49 78.5068H2071.99V73.9902H2095.52Z" fill="#0D1846"/>
<path d="M2457.01 76.041L2462.01 73.209V109H2457.01V76.041ZM2483.59 87.7598C2486.49 87.7598 2488.92 88.6794 2490.87 90.5186C2492.82 92.3415 2493.8 94.8154 2493.8 97.9404C2493.8 101.244 2492.51 104.044 2489.94 106.339C2487.39 108.618 2484.22 109.757 2480.44 109.757C2478.18 109.757 2476.05 109.366 2474.05 108.585C2472.04 107.804 2470.31 106.673 2468.85 105.191L2470.19 99.8936C2473.18 103.295 2476.6 105.045 2480.44 105.143C2482.87 105.143 2484.85 104.492 2486.4 103.189C2487.96 101.871 2488.74 100.121 2488.74 97.9404C2488.74 95.9059 2488.11 94.319 2486.84 93.1797C2485.57 92.0241 2483.93 91.4463 2481.91 91.4463C2480.35 91.4463 2478.74 91.8939 2477.1 92.7891L2474.71 89.542L2486.16 78.5068H2470.46V73.9902H2492.31V77.8965L2482.15 87.8574C2482.48 87.7923 2482.96 87.7598 2483.59 87.7598ZM2519.99 104.508V109H2496.73V105.46L2501.02 101.847C2502.6 100.528 2503.97 99.3483 2505.13 98.3066C2506.28 97.265 2507.52 96.0687 2508.84 94.7178C2510.16 93.3669 2511.22 92.1217 2512.04 90.9824C2512.87 89.8268 2513.55 88.6143 2514.09 87.3447C2514.62 86.0752 2514.88 84.8789 2514.84 83.7559C2514.79 81.8841 2514.16 80.403 2512.94 79.3125C2511.73 78.2057 2510.1 77.6523 2508.03 77.6523C2505.65 77.6523 2503.86 78.3604 2502.66 79.7764C2501.47 81.1761 2500.88 83.0316 2500.88 85.3428C2500.88 85.7008 2500.91 86.2542 2500.98 87.0029L2496.43 84.9033V84.708C2496.43 81.2575 2497.54 78.4906 2499.75 76.4072C2501.97 74.3076 2504.88 73.2578 2508.5 73.2578C2510.58 73.2578 2512.43 73.6403 2514.06 74.4053C2515.71 75.1702 2517.02 76.3503 2518.02 77.9453C2519.03 79.5404 2519.53 81.4447 2519.53 83.6582C2519.53 84.7161 2519.38 85.7904 2519.07 86.8809C2518.76 87.9551 2518.37 88.9561 2517.92 89.8838C2517.46 90.8115 2516.81 91.8206 2515.97 92.9111C2515.12 94.0016 2514.32 94.9619 2513.57 95.792C2512.84 96.6058 2511.86 97.5824 2510.62 98.7217C2509.4 99.861 2508.35 100.813 2507.47 101.578C2506.61 102.327 2505.46 103.303 2504.03 104.508H2519.99ZM2528.93 76.041L2533.93 73.209V109H2528.93V76.041Z" fill="#0D1846"/>
<path d="M1831.01 76.041L1836.01 73.209V109H1831.01V76.041ZM1857.59 87.7598C1860.49 87.7598 1862.92 88.6794 1864.87 90.5186C1866.82 92.3415 1867.8 94.8154 1867.8 97.9404C1867.8 101.244 1866.51 104.044 1863.94 106.339C1861.39 108.618 1858.22 109.757 1854.44 109.757C1852.18 109.757 1850.05 109.366 1848.05 108.585C1846.04 107.804 1844.31 106.673 1842.85 105.191L1844.19 99.8936C1847.18 103.295 1850.6 105.045 1854.44 105.143C1856.87 105.143 1858.85 104.492 1860.4 103.189C1861.96 101.871 1862.74 100.121 1862.74 97.9404C1862.74 95.9059 1862.11 94.319 1860.84 93.1797C1859.57 92.0241 1857.93 91.4463 1855.91 91.4463C1854.35 91.4463 1852.74 91.8939 1851.1 92.7891L1848.71 89.542L1860.16 78.5068H1844.46V73.9902H1866.31V77.8965L1856.15 87.8574C1856.48 87.7923 1856.96 87.7598 1857.59 87.7598ZM1875.34 76.041L1880.35 73.209V109H1875.34V76.041ZM1899.93 85.3428C1901.36 85.3428 1902.73 85.5788 1904.03 86.0508C1905.33 86.5228 1906.51 87.2145 1907.57 88.126C1908.63 89.0374 1909.46 90.2419 1910.08 91.7393C1910.72 93.2367 1911.04 94.9212 1911.04 96.793C1911.04 99.2181 1910.47 101.424 1909.35 103.409C1908.23 105.379 1906.66 106.933 1904.64 108.072C1902.62 109.195 1900.35 109.757 1897.83 109.757C1893.33 109.757 1889.62 108.186 1886.69 105.045L1888.13 99.8936C1890.98 103.393 1894.21 105.143 1897.83 105.143C1900.28 105.143 1902.26 104.353 1903.76 102.774C1905.27 101.196 1906.03 99.2018 1906.03 96.793C1906.03 94.6445 1905.31 92.9437 1903.88 91.6904C1902.45 90.4372 1900.78 89.8105 1898.88 89.8105C1897.62 89.8105 1896.44 90.1035 1895.34 90.6895C1894.25 91.2591 1893.38 92.0973 1892.72 93.2041L1888.94 91.5928L1890.48 73.9902H1909.55V78.5068H1894.48L1893.63 87.4912C1895.52 86.0589 1897.62 85.3428 1899.93 85.3428Z" fill="#0D1846"/>
<path d="M1620.01 76.041L1625.01 73.209V109H1620.01V76.041ZM1646.59 87.7598C1649.49 87.7598 1651.92 88.6794 1653.87 90.5186C1655.82 92.3415 1656.8 94.8154 1656.8 97.9404C1656.8 101.244 1655.51 104.044 1652.94 106.339C1650.39 108.618 1647.22 109.757 1643.44 109.757C1641.18 109.757 1639.05 109.366 1637.05 108.585C1635.04 107.804 1633.31 106.673 1631.85 105.191L1633.19 99.8936C1636.18 103.295 1639.6 105.045 1643.44 105.143C1645.87 105.143 1647.85 104.492 1649.4 103.189C1650.96 101.871 1651.74 100.121 1651.74 97.9404C1651.74 95.9059 1651.11 94.319 1649.84 93.1797C1648.57 92.0241 1646.93 91.4463 1644.91 91.4463C1643.35 91.4463 1641.74 91.8939 1640.1 92.7891L1637.71 89.542L1649.16 78.5068H1633.46V73.9902H1655.31V77.8965L1645.15 87.8574C1645.48 87.7923 1645.96 87.7598 1646.59 87.7598ZM1664.34 76.041L1669.35 73.209V109H1664.34V76.041ZM1690.93 87.7598C1693.83 87.7598 1696.25 88.6794 1698.2 90.5186C1700.16 92.3415 1701.13 94.8154 1701.13 97.9404C1701.13 101.244 1699.85 104.044 1697.28 106.339C1694.72 108.618 1691.56 109.757 1687.78 109.757C1685.52 109.757 1683.38 109.366 1681.38 108.585C1679.38 107.804 1677.65 106.673 1676.18 105.191L1677.53 99.8936C1680.52 103.295 1683.94 105.045 1687.78 105.143C1690.2 105.143 1692.19 104.492 1693.74 103.189C1695.3 101.871 1696.08 100.121 1696.08 97.9404C1696.08 95.9059 1695.45 94.319 1694.18 93.1797C1692.91 92.0241 1691.26 91.4463 1689.24 91.4463C1687.68 91.4463 1686.08 91.8939 1684.43 92.7891L1682.04 89.542L1693.49 78.5068H1677.79V73.9902H1699.64V77.8965L1689.49 87.8574C1689.81 87.7923 1690.29 87.7598 1690.93 87.7598Z" fill="#0D1846"/>
<path d="M1162.01 76.041L1167.01 73.209V109H1162.01V76.041ZM1188.59 87.7598C1191.49 87.7598 1193.92 88.6794 1195.87 90.5186C1197.82 92.3415 1198.8 94.8154 1198.8 97.9404C1198.8 101.244 1197.51 104.044 1194.94 106.339C1192.39 108.618 1189.22 109.757 1185.44 109.757C1183.18 109.757 1181.05 109.366 1179.05 108.585C1177.04 107.804 1175.31 106.673 1173.85 105.191L1175.19 99.8936C1178.18 103.295 1181.6 105.045 1185.44 105.143C1187.87 105.143 1189.85 104.492 1191.4 103.189C1192.96 101.871 1193.74 100.121 1193.74 97.9404C1193.74 95.9059 1193.11 94.319 1191.84 93.1797C1190.57 92.0241 1188.93 91.4463 1186.91 91.4463C1185.35 91.4463 1183.74 91.8939 1182.1 92.7891L1179.71 89.542L1191.16 78.5068H1175.46V73.9902H1197.31V77.8965L1187.15 87.8574C1187.48 87.7923 1187.96 87.7598 1188.59 87.7598ZM1225.53 107.462C1223.35 108.992 1220.85 109.757 1218.04 109.757C1215.22 109.757 1212.71 108.992 1210.52 107.462C1208.32 105.916 1206.61 103.759 1205.39 100.992C1204.19 98.2253 1203.58 95.0596 1203.58 91.4951C1203.58 87.9469 1204.19 84.7894 1205.39 82.0225C1206.61 79.2393 1208.32 77.0827 1210.52 75.5527C1212.71 74.0228 1215.22 73.2578 1218.04 73.2578C1220.85 73.2578 1223.35 74.0228 1225.53 75.5527C1227.73 77.0827 1229.43 79.2311 1230.63 81.998C1231.84 84.765 1232.44 87.9307 1232.44 91.4951C1232.44 95.0596 1231.84 98.2253 1230.63 100.992C1229.43 103.759 1227.73 105.916 1225.53 107.462ZM1211.2 101.334C1212.96 103.808 1215.24 105.045 1218.04 105.045C1220.84 105.045 1223.1 103.816 1224.82 101.358C1226.56 98.8844 1227.44 95.5967 1227.44 91.4951C1227.44 87.3936 1226.56 84.1139 1224.82 81.6562C1223.1 79.1823 1220.84 77.9453 1218.04 77.9453C1215.24 77.9453 1212.96 79.1823 1211.2 81.6562C1209.46 84.1302 1208.59 87.4098 1208.59 91.4951C1208.59 95.5804 1209.46 98.86 1211.2 101.334ZM1250.43 73.2578C1251.75 73.2578 1253.03 73.4531 1254.27 73.8437C1255.52 74.2181 1256.72 74.8447 1257.88 75.7236C1259.05 76.6025 1260.07 77.6849 1260.93 78.9707C1261.79 80.2565 1262.49 81.8841 1263.01 83.8535C1263.53 85.8066 1263.79 87.9876 1263.79 90.3965C1263.79 93.3913 1263.36 96.1094 1262.52 98.5508C1261.69 100.976 1260.52 103.01 1259 104.654C1257.51 106.282 1255.72 107.543 1253.63 108.438C1251.55 109.317 1249.27 109.757 1246.8 109.757C1246.21 109.757 1245.47 109.684 1244.57 109.537C1243.68 109.407 1242.93 109.228 1242.33 109L1241.55 103.751C1243.45 104.549 1245.5 104.947 1247.7 104.947C1249.08 104.947 1250.41 104.711 1251.68 104.239C1252.95 103.751 1254.13 103.035 1255.22 102.091C1256.31 101.147 1257.2 99.8691 1257.88 98.2578C1258.58 96.6302 1258.98 94.7747 1259.08 92.6914C1258.08 94.4818 1256.78 95.792 1255.17 96.6221C1253.57 97.4359 1251.82 97.8428 1249.9 97.8428C1247.78 97.8428 1245.82 97.3708 1244.01 96.4268C1242.21 95.4827 1240.74 94.1237 1239.62 92.3496C1238.5 90.5592 1237.93 88.541 1237.93 86.2949C1237.93 82.4863 1239.1 79.3613 1241.42 76.9199C1243.75 74.4785 1246.76 73.2578 1250.43 73.2578ZM1250.53 93.2529C1252.65 93.2529 1254.39 92.5368 1255.76 91.1045C1257.14 89.6722 1257.83 87.8411 1257.83 85.6113C1257.83 83.4466 1257.1 81.6318 1255.63 80.167C1254.19 78.6859 1252.48 77.9453 1250.53 77.9453C1248.32 77.9453 1246.49 78.6696 1245.06 80.1182C1243.65 81.5505 1242.94 83.3815 1242.94 85.6113C1242.94 87.9551 1243.62 89.8187 1244.99 91.2021C1246.36 92.5693 1248.2 93.2529 1250.53 93.2529ZM1281.07 83.2432C1284.41 83.2432 1286.95 84.0895 1288.69 85.7822C1290.45 87.4749 1291.33 89.9001 1291.33 93.0576V109H1286.83V106.095C1285.83 107.185 1284.4 108.072 1282.56 108.756C1280.72 109.423 1278.98 109.757 1277.34 109.757C1275.08 109.757 1273.2 109.195 1271.7 108.072C1270.22 106.949 1269.48 105.305 1269.48 103.141C1269.48 102.001 1269.72 100.992 1270.21 100.113C1270.7 99.2344 1271.4 98.5101 1272.31 97.9404C1273.24 97.3545 1274.23 96.8825 1275.29 96.5244C1276.35 96.1501 1277.57 95.8245 1278.97 95.5479C1282.2 94.8805 1284.16 94.4167 1284.86 94.1562C1285.9 93.7819 1286.54 93.2367 1286.79 92.5205C1286.88 92.2113 1286.93 91.8206 1286.93 91.3486C1286.93 90.1442 1286.42 89.1758 1285.39 88.4434C1284.37 87.7109 1282.91 87.3447 1281.02 87.3447C1279.07 87.3447 1277.2 87.8818 1275.41 88.9561C1273.64 90.0303 1272.31 91.5114 1271.43 93.3994L1268.52 89.8594C1269.97 87.7923 1271.8 86.1729 1273.99 85.001C1276.19 83.8291 1278.55 83.2432 1281.07 83.2432ZM1277.92 105.753C1279.39 105.753 1280.81 105.468 1282.2 104.898C1283.6 104.329 1284.74 103.531 1285.64 102.506C1286.53 101.48 1286.98 100.382 1286.98 99.21V96.7441C1285.66 97.5417 1283.55 98.2578 1280.63 98.8926C1279.8 99.0716 1279.16 99.2181 1278.71 99.332C1278.25 99.4297 1277.72 99.568 1277.12 99.7471C1276.53 99.9098 1276.08 100.081 1275.78 100.26C1275.47 100.423 1275.15 100.634 1274.82 100.895C1274.51 101.139 1274.29 101.415 1274.16 101.725C1274.05 102.034 1273.99 102.392 1273.99 102.799C1273.99 103.775 1274.29 104.516 1274.9 105.021C1275.51 105.509 1276.52 105.753 1277.92 105.753Z" fill="#0D1846"/>
<path d="M1002.01 325.041L1007.01 322.209V358H1002.01V325.041ZM1028.59 336.76C1031.49 336.76 1033.92 337.679 1035.87 339.519C1037.82 341.341 1038.8 343.815 1038.8 346.94C1038.8 350.244 1037.51 353.044 1034.94 355.339C1032.39 357.618 1029.22 358.757 1025.44 358.757C1023.18 358.757 1021.05 358.366 1019.05 357.585C1017.04 356.804 1015.31 355.673 1013.85 354.191L1015.19 348.894C1018.18 352.295 1021.6 354.045 1025.44 354.143C1027.87 354.143 1029.85 353.492 1031.4 352.189C1032.96 350.871 1033.74 349.121 1033.74 346.94C1033.74 344.906 1033.11 343.319 1031.84 342.18C1030.57 341.024 1028.93 340.446 1026.91 340.446C1025.35 340.446 1023.74 340.894 1022.1 341.789L1019.71 338.542L1031.16 327.507H1015.46V322.99H1037.31V326.896L1027.15 336.857C1027.48 336.792 1027.96 336.76 1028.59 336.76ZM1065.53 356.462C1063.35 357.992 1060.85 358.757 1058.04 358.757C1055.22 358.757 1052.71 357.992 1050.52 356.462C1048.32 354.916 1046.61 352.759 1045.39 349.992C1044.19 347.225 1043.58 344.06 1043.58 340.495C1043.58 336.947 1044.19 333.789 1045.39 331.022C1046.61 328.239 1048.32 326.083 1050.52 324.553C1052.71 323.023 1055.22 322.258 1058.04 322.258C1060.85 322.258 1063.35 323.023 1065.53 324.553C1067.73 326.083 1069.43 328.231 1070.63 330.998C1071.84 333.765 1072.44 336.931 1072.44 340.495C1072.44 344.06 1071.84 347.225 1070.63 349.992C1069.43 352.759 1067.73 354.916 1065.53 356.462ZM1051.2 350.334C1052.96 352.808 1055.24 354.045 1058.04 354.045C1060.84 354.045 1063.1 352.816 1064.82 350.358C1066.56 347.884 1067.44 344.597 1067.44 340.495C1067.44 336.394 1066.56 333.114 1064.82 330.656C1063.1 328.182 1060.84 326.945 1058.04 326.945C1055.24 326.945 1052.96 328.182 1051.2 330.656C1049.46 333.13 1048.59 336.41 1048.59 340.495C1048.59 344.58 1049.46 347.86 1051.2 350.334ZM1097.34 340.202C1098.99 341.032 1100.27 342.163 1101.2 343.596C1102.13 345.012 1102.59 346.566 1102.59 348.259C1102.59 351.351 1101.44 353.874 1099.15 355.827C1096.85 357.78 1093.92 358.757 1090.34 358.757C1086.76 358.757 1083.82 357.78 1081.52 355.827C1079.23 353.874 1078.08 351.351 1078.08 348.259C1078.08 346.566 1078.54 345.012 1079.47 343.596C1080.4 342.163 1081.69 341.032 1083.33 340.202C1081.8 339.372 1080.61 338.282 1079.76 336.931C1078.92 335.58 1078.5 334.107 1078.5 332.512C1078.5 329.501 1079.6 327.043 1081.82 325.139C1084.03 323.218 1086.87 322.258 1090.34 322.258C1093.8 322.258 1096.64 323.218 1098.86 325.139C1101.07 327.043 1102.18 329.501 1102.18 332.512C1102.18 334.107 1101.75 335.58 1100.91 336.931C1100.06 338.282 1098.87 339.372 1097.34 340.202ZM1095.54 328.215C1094.23 327.141 1092.5 326.604 1090.34 326.604C1088.17 326.604 1086.44 327.141 1085.14 328.215C1083.83 329.289 1083.18 330.721 1083.18 332.512C1083.18 334.221 1083.87 335.604 1085.26 336.662C1086.64 337.72 1088.33 338.249 1090.34 338.249C1092.34 338.249 1094.03 337.72 1095.41 336.662C1096.8 335.604 1097.49 334.221 1097.49 332.512C1097.49 330.721 1096.84 329.289 1095.54 328.215ZM1084.84 352.751C1086.21 353.858 1088.04 354.411 1090.34 354.411C1092.63 354.411 1094.46 353.858 1095.83 352.751C1097.2 351.628 1097.88 350.131 1097.88 348.259C1097.88 346.452 1097.17 345.004 1095.76 343.913C1094.34 342.806 1092.53 342.253 1090.34 342.253C1088.14 342.253 1086.33 342.806 1084.92 343.913C1083.5 345.004 1082.79 346.452 1082.79 348.259C1082.79 350.131 1083.48 351.628 1084.84 352.751Z" fill="#0D1846"/>
<path d="M1309.01 325.041L1314.01 322.209V358H1309.01V325.041ZM1335.59 336.76C1338.49 336.76 1340.92 337.679 1342.87 339.519C1344.82 341.341 1345.8 343.815 1345.8 346.94C1345.8 350.244 1344.51 353.044 1341.94 355.339C1339.39 357.618 1336.22 358.757 1332.44 358.757C1330.18 358.757 1328.05 358.366 1326.05 357.585C1324.04 356.804 1322.31 355.673 1320.85 354.191L1322.19 348.894C1325.18 352.295 1328.6 354.045 1332.44 354.143C1334.87 354.143 1336.85 353.492 1338.4 352.189C1339.96 350.871 1340.74 349.121 1340.74 346.94C1340.74 344.906 1340.11 343.319 1338.84 342.18C1337.57 341.024 1335.93 340.446 1333.91 340.446C1332.35 340.446 1330.74 340.894 1329.1 341.789L1326.71 338.542L1338.16 327.507H1322.46V322.99H1344.31V326.896L1334.15 336.857C1334.48 336.792 1334.96 336.76 1335.59 336.76ZM1353.34 325.041L1358.35 322.209V358H1353.34V325.041ZM1389.28 356.462C1387.1 357.992 1384.6 358.757 1381.78 358.757C1378.97 358.757 1376.46 357.992 1374.26 356.462C1372.07 354.916 1370.36 352.759 1369.14 349.992C1367.93 347.225 1367.33 344.06 1367.33 340.495C1367.33 336.947 1367.93 333.789 1369.14 331.022C1370.36 328.239 1372.07 326.083 1374.26 324.553C1376.46 323.023 1378.97 322.258 1381.78 322.258C1384.6 322.258 1387.1 323.023 1389.28 324.553C1391.48 326.083 1393.18 328.231 1394.38 330.998C1395.59 333.765 1396.19 336.931 1396.19 340.495C1396.19 344.06 1395.59 347.225 1394.38 349.992C1393.18 352.759 1391.48 354.916 1389.28 356.462ZM1374.95 350.334C1376.71 352.808 1378.98 354.045 1381.78 354.045C1384.58 354.045 1386.85 352.816 1388.57 350.358C1390.31 347.884 1391.18 344.597 1391.18 340.495C1391.18 336.394 1390.31 333.114 1388.57 330.656C1386.85 328.182 1384.58 326.945 1381.78 326.945C1378.98 326.945 1376.71 328.182 1374.95 330.656C1373.21 333.13 1372.34 336.41 1372.34 340.495C1372.34 344.58 1373.21 347.86 1374.95 350.334Z" fill="#0D1846"/>
<path d="M1486.04 385.994L1483.21 380.989L1519 380.989L1519 385.994L1486.04 385.994ZM1497.76 359.407C1497.76 356.51 1498.68 354.085 1500.52 352.132C1502.34 350.179 1504.82 349.202 1507.94 349.202C1511.24 349.202 1514.04 350.488 1516.34 353.06C1518.62 355.615 1519.76 358.781 1519.76 362.557C1519.76 364.819 1519.37 366.951 1518.58 368.953C1517.8 370.955 1516.67 372.688 1515.19 374.153L1509.89 372.811C1513.3 369.816 1515.04 366.398 1515.14 362.557C1515.14 360.132 1514.49 358.146 1513.19 356.6C1511.87 355.037 1510.12 354.256 1507.94 354.256C1505.91 354.256 1504.32 354.891 1503.18 356.16C1502.02 357.43 1501.45 359.074 1501.45 361.092C1501.45 362.654 1501.89 364.257 1502.79 365.901L1499.54 368.294L1488.51 356.844L1488.51 372.542L1483.99 372.542L1483.99 350.691L1487.9 350.691L1497.86 360.848C1497.79 360.522 1497.76 360.042 1497.76 359.407ZM1486.04 341.658L1483.21 336.653L1519 336.653L1519 341.658L1486.04 341.658ZM1514.51 306.258L1519 306.258L1519 329.524L1515.46 329.524L1511.85 325.228C1510.53 323.649 1509.35 322.282 1508.31 321.126C1507.26 319.97 1506.07 318.733 1504.72 317.415C1503.37 316.097 1502.12 315.031 1500.98 314.217C1499.83 313.387 1498.61 312.703 1497.34 312.166C1496.08 311.629 1494.88 311.377 1493.76 311.409C1491.88 311.458 1490.4 312.093 1489.31 313.313C1488.21 314.518 1487.65 316.154 1487.65 318.221C1487.65 320.597 1488.36 322.387 1489.78 323.592C1491.18 324.78 1493.03 325.374 1495.34 325.374C1495.7 325.374 1496.25 325.341 1497 325.276L1494.9 329.817L1494.71 329.817C1491.26 329.817 1488.49 328.711 1486.41 326.497C1484.31 324.284 1483.26 321.37 1483.26 317.757C1483.26 315.674 1483.64 313.818 1484.41 312.19C1485.17 310.547 1486.35 309.228 1487.95 308.235C1489.54 307.226 1491.44 306.722 1493.66 306.722C1494.72 306.722 1495.79 306.876 1496.88 307.186C1497.96 307.495 1498.96 307.877 1499.88 308.333C1500.81 308.789 1501.82 309.44 1502.91 310.286C1504 311.132 1504.96 311.93 1505.79 312.679C1506.61 313.411 1507.58 314.396 1508.72 315.633C1509.86 316.854 1510.81 317.903 1511.58 318.782C1512.33 319.645 1513.3 320.792 1514.51 322.225L1514.51 306.258Z" fill="#0D1846"/>
<path d="M1560.04 385.994L1557.21 380.989L1593 380.989L1593 385.994L1560.04 385.994ZM1571.76 359.407C1571.76 356.51 1572.68 354.085 1574.52 352.132C1576.34 350.179 1578.82 349.202 1581.94 349.202C1585.24 349.202 1588.04 350.488 1590.34 353.06C1592.62 355.615 1593.76 358.781 1593.76 362.557C1593.76 364.819 1593.37 366.951 1592.58 368.953C1591.8 370.955 1590.67 372.688 1589.19 374.153L1583.89 372.811C1587.3 369.816 1589.04 366.398 1589.14 362.557C1589.14 360.132 1588.49 358.146 1587.19 356.6C1585.87 355.037 1584.12 354.256 1581.94 354.256C1579.91 354.256 1578.32 354.891 1577.18 356.16C1576.02 357.43 1575.45 359.074 1575.45 361.092C1575.45 362.654 1575.89 364.257 1576.79 365.901L1573.54 368.294L1562.51 356.844L1562.51 372.542L1557.99 372.542L1557.99 350.691L1561.9 350.691L1571.86 360.848C1571.79 360.522 1571.76 360.042 1571.76 359.407ZM1560.04 341.658L1557.21 336.653L1593 336.653L1593 341.658L1560.04 341.658ZM1584.09 301.668L1584.09 308.309L1593.76 308.309L1593.76 313.313L1584.09 313.313L1584.09 330.867L1579.89 330.867L1557.99 311.312L1557.99 308.309L1579.65 308.309L1579.65 301.668L1584.09 301.668ZM1579.65 313.313L1566.24 313.313L1579.65 325.154L1579.65 313.313Z" fill="#0D1846"/>
<path d="M1657.01 325.041L1662.01 322.209V358H1657.01V325.041ZM1683.59 336.76C1686.49 336.76 1688.92 337.679 1690.87 339.519C1692.82 341.341 1693.8 343.815 1693.8 346.94C1693.8 350.244 1692.51 353.044 1689.94 355.339C1687.39 357.618 1684.22 358.757 1680.44 358.757C1678.18 358.757 1676.05 358.366 1674.05 357.585C1672.04 356.804 1670.31 355.673 1668.85 354.191L1670.19 348.894C1673.18 352.295 1676.6 354.045 1680.44 354.143C1682.87 354.143 1684.85 353.492 1686.4 352.189C1687.96 350.871 1688.74 349.121 1688.74 346.94C1688.74 344.906 1688.11 343.319 1686.84 342.18C1685.57 341.024 1683.93 340.446 1681.91 340.446C1680.35 340.446 1678.74 340.894 1677.1 341.789L1674.71 338.542L1686.16 327.507H1670.46V322.99H1692.31V326.896L1682.15 336.857C1682.48 336.792 1682.96 336.76 1683.59 336.76ZM1701.34 325.041L1706.35 322.209V358H1701.34V325.041ZM1729.22 334.147C1731.34 334.147 1733.3 334.619 1735.11 335.563C1736.91 336.507 1738.38 337.875 1739.5 339.665C1740.62 341.439 1741.19 343.449 1741.19 345.695C1741.19 349.504 1740.02 352.637 1737.69 355.095C1735.37 357.536 1732.36 358.757 1728.69 358.757C1727.37 358.757 1726.08 358.562 1724.83 358.171C1723.59 357.797 1722.39 357.17 1721.21 356.291C1720.06 355.412 1719.05 354.33 1718.19 353.044C1717.32 351.742 1716.63 350.114 1716.11 348.161C1715.59 346.192 1715.33 344.003 1715.33 341.594C1715.33 338.615 1715.75 335.905 1716.58 333.464C1717.42 331.022 1718.59 328.988 1720.09 327.36C1721.61 325.733 1723.4 324.479 1725.49 323.601C1727.57 322.705 1729.85 322.258 1732.32 322.258C1734 322.258 1735.49 322.502 1736.79 322.99L1737.57 328.239C1735.67 327.442 1733.63 327.043 1731.44 327.043C1730.06 327.043 1728.73 327.287 1727.46 327.775C1726.2 328.247 1725.01 328.955 1723.9 329.899C1722.81 330.843 1721.91 332.129 1721.21 333.757C1720.53 335.368 1720.14 337.215 1720.04 339.299C1721.04 337.508 1722.33 336.206 1723.92 335.393C1725.54 334.562 1727.3 334.147 1729.22 334.147ZM1728.59 354.045C1730.8 354.045 1732.62 353.329 1734.03 351.896C1735.46 350.464 1736.18 348.633 1736.18 346.403C1736.18 344.06 1735.5 342.204 1734.13 340.837C1732.76 339.453 1730.92 338.762 1728.59 338.762C1726.47 338.762 1724.72 339.478 1723.34 340.91C1721.97 342.342 1721.29 344.174 1721.29 346.403C1721.29 348.568 1722.01 350.383 1723.46 351.848C1724.93 353.312 1726.63 354.045 1728.59 354.045Z" fill="#0D1846"/>
<path d="M869.006 76.041L874.011 73.209V109H869.006V76.041ZM895.593 87.7598C898.49 87.7598 900.915 88.6794 902.868 90.5186C904.821 92.3415 905.798 94.8154 905.798 97.9404C905.798 101.244 904.512 104.044 901.94 106.339C899.385 108.618 896.219 109.757 892.443 109.757C890.181 109.757 888.049 109.366 886.047 108.585C884.045 107.804 882.312 106.673 880.847 105.191L882.189 99.8936C885.184 103.295 888.602 105.045 892.443 105.143C894.868 105.143 896.854 104.492 898.4 103.189C899.963 101.871 900.744 100.121 900.744 97.9404C900.744 95.9059 900.109 94.319 898.84 93.1797C897.57 92.0241 895.926 91.4463 893.908 91.4463C892.346 91.4463 890.743 91.8939 889.099 92.7891L886.706 89.542L898.156 78.5068H882.458V73.9902H904.309V77.8965L894.152 87.8574C894.478 87.7923 894.958 87.7598 895.593 87.7598ZM932.531 107.462C930.35 108.992 927.852 109.757 925.036 109.757C922.22 109.757 919.714 108.992 917.517 107.462C915.319 105.916 913.61 103.759 912.39 100.992C911.185 98.2253 910.583 95.0596 910.583 91.4951C910.583 87.9469 911.185 84.7894 912.39 82.0225C913.61 79.2393 915.319 77.0827 917.517 75.5527C919.714 74.0228 922.22 73.2578 925.036 73.2578C927.852 73.2578 930.35 74.0228 932.531 75.5527C934.729 77.0827 936.429 79.2311 937.634 81.998C938.838 84.765 939.44 87.9307 939.44 91.4951C939.44 95.0596 938.838 98.2253 937.634 100.992C936.429 103.759 934.729 105.916 932.531 107.462ZM918.2 101.334C919.958 103.808 922.237 105.045 925.036 105.045C927.836 105.045 930.098 103.816 931.823 101.358C933.565 98.8844 934.436 95.5967 934.436 91.4951C934.436 87.3936 933.565 84.1139 931.823 81.6562C930.098 79.1823 927.836 77.9453 925.036 77.9453C922.237 77.9453 919.958 79.1823 918.2 81.6562C916.459 84.1302 915.588 87.4098 915.588 91.4951C915.588 95.5804 916.459 98.86 918.2 101.334ZM965.612 73.9902V78.1895L950.28 109L945.08 109L960.583 78.5068H942.077V73.9902H965.612Z" fill="#0D1846"/>
<path d="M1023.04 145.994L1020.21 140.989L1056 140.989L1056 145.994L1023.04 145.994ZM1034.76 119.407C1034.76 116.51 1035.68 114.085 1037.52 112.132C1039.34 110.179 1041.82 109.202 1044.94 109.202C1048.24 109.202 1051.04 110.488 1053.34 113.06C1055.62 115.615 1056.76 118.781 1056.76 122.557C1056.76 124.819 1056.37 126.951 1055.58 128.953C1054.8 130.955 1053.67 132.688 1052.19 134.153L1046.89 132.811C1050.3 129.816 1052.04 126.398 1052.14 122.557C1052.14 120.132 1051.49 118.146 1050.19 116.6C1048.87 115.037 1047.12 114.256 1044.94 114.256C1042.91 114.256 1041.32 114.891 1040.18 116.16C1039.02 117.43 1038.45 119.074 1038.45 121.092C1038.45 122.654 1038.89 124.257 1039.79 125.901L1036.54 128.294L1025.51 116.844L1025.51 132.542L1020.99 132.542L1020.99 110.691L1024.9 110.691L1034.86 120.848C1034.79 120.522 1034.76 120.042 1034.76 119.407ZM1054.46 82.4688C1055.99 84.6497 1056.76 87.1481 1056.76 89.9639C1056.76 92.7796 1055.99 95.2861 1054.46 97.4834C1052.92 99.6807 1050.76 101.39 1047.99 102.61C1045.23 103.815 1042.06 104.417 1038.5 104.417C1034.95 104.417 1031.79 103.815 1029.02 102.61C1026.24 101.39 1024.08 99.6807 1022.55 97.4834C1021.02 95.2861 1020.26 92.7796 1020.26 89.9639C1020.26 87.1481 1021.02 84.6497 1022.55 82.4688C1024.08 80.2715 1026.23 78.5706 1029 77.3662C1031.76 76.1618 1034.93 75.5596 1038.5 75.5596C1042.06 75.5596 1045.23 76.1618 1047.99 77.3662C1050.76 78.5706 1052.92 80.2715 1054.46 82.4688ZM1048.33 96.7998C1050.81 95.042 1052.04 92.7633 1052.04 89.9639C1052.04 87.1644 1050.82 84.902 1048.36 83.1768C1045.88 81.4352 1042.6 80.5645 1038.5 80.5645C1034.39 80.5645 1031.11 81.4352 1028.66 83.1768C1026.18 84.902 1024.95 87.1644 1024.95 89.9639C1024.95 92.7633 1026.18 95.042 1028.66 96.7998C1031.13 98.5413 1034.41 99.4121 1038.5 99.4121C1042.58 99.4121 1045.86 98.5413 1048.33 96.7998ZM1020.26 57.5664C1020.26 56.248 1020.45 54.9704 1020.84 53.7334C1021.22 52.4801 1021.84 51.2757 1022.72 50.1201C1023.6 48.9482 1024.68 47.931 1025.97 47.0684C1027.26 46.2057 1028.88 45.514 1030.85 44.9932C1032.81 44.4723 1034.99 44.2119 1037.4 44.2119C1040.39 44.2119 1043.11 44.6351 1045.55 45.4814C1047.98 46.3115 1050.01 47.4834 1051.65 48.9971C1053.28 50.4945 1054.54 52.2848 1055.44 54.3682C1056.32 56.4515 1056.76 58.7301 1056.76 61.2041C1056.76 61.79 1056.68 62.5306 1056.54 63.4258C1056.41 64.321 1056.23 65.0697 1056 65.6719L1050.75 66.4531C1051.55 64.5488 1051.95 62.498 1051.95 60.3008C1051.95 58.9173 1051.71 57.5908 1051.24 56.3213C1050.75 55.0518 1050.03 53.8717 1049.09 52.7813C1048.15 51.6908 1046.87 50.8037 1045.26 50.1201C1043.63 49.4202 1041.77 49.0215 1039.69 48.9238C1041.48 49.9167 1042.79 51.2188 1043.62 52.8301C1044.44 54.4251 1044.84 56.1829 1044.84 58.1035C1044.84 60.2194 1044.37 62.1807 1043.43 63.9873C1042.48 65.7939 1041.12 67.2588 1039.35 68.3818C1037.56 69.5049 1035.54 70.0664 1033.29 70.0664C1029.49 70.0664 1026.36 68.9027 1023.92 66.5752C1021.48 64.2477 1020.26 61.2448 1020.26 57.5664ZM1040.25 57.4688C1040.25 55.3529 1039.54 53.6113 1038.1 52.2441C1036.67 50.8607 1034.84 50.1689 1032.61 50.1689C1030.45 50.1689 1028.63 50.9014 1027.17 52.3662C1025.69 53.8148 1024.95 55.5156 1024.95 57.4688C1024.95 59.6823 1025.67 61.5052 1027.12 62.9375C1028.55 64.3535 1030.38 65.0615 1032.61 65.0615C1034.96 65.0615 1036.82 64.3779 1038.2 63.0107C1039.57 61.6436 1040.25 59.7962 1040.25 57.4688Z" fill="#0D1846"/>
<path d="M634.006 76.041L639.011 73.209V109H634.006V76.041ZM660.593 87.7598C663.49 87.7598 665.915 88.6794 667.868 90.5186C669.821 92.3415 670.798 94.8154 670.798 97.9404C670.798 101.244 669.512 104.044 666.94 106.339C664.385 108.618 661.219 109.757 657.443 109.757C655.181 109.757 653.049 109.366 651.047 108.585C649.045 107.804 647.312 106.673 645.847 105.191L647.189 99.8936C650.184 103.295 653.602 105.045 657.443 105.143C659.868 105.143 661.854 104.492 663.4 103.189C664.963 101.871 665.744 100.121 665.744 97.9404C665.744 95.9059 665.109 94.319 663.84 93.1797C662.57 92.0241 660.926 91.4463 658.908 91.4463C657.346 91.4463 655.743 91.8939 654.099 92.7891L651.706 89.542L663.156 78.5068H647.458V73.9902H669.309V77.8965L659.152 87.8574C659.478 87.7923 659.958 87.7598 660.593 87.7598ZM697.531 107.462C695.35 108.992 692.852 109.757 690.036 109.757C687.22 109.757 684.714 108.992 682.517 107.462C680.319 105.916 678.61 103.759 677.39 100.992C676.185 98.2253 675.583 95.0596 675.583 91.4951C675.583 87.9469 676.185 84.7894 677.39 82.0225C678.61 79.2393 680.319 77.0827 682.517 75.5527C684.714 74.0228 687.22 73.2578 690.036 73.2578C692.852 73.2578 695.35 74.0228 697.531 75.5527C699.729 77.0827 701.429 79.2311 702.634 81.998C703.838 84.765 704.44 87.9307 704.44 91.4951C704.44 95.0596 703.838 98.2253 702.634 100.992C701.429 103.759 699.729 105.916 697.531 107.462ZM683.2 101.334C684.958 103.808 687.237 105.045 690.036 105.045C692.836 105.045 695.098 103.816 696.823 101.358C698.565 98.8844 699.436 95.5967 699.436 91.4951C699.436 87.3936 698.565 84.1139 696.823 81.6562C695.098 79.1823 692.836 77.9453 690.036 77.9453C687.237 77.9453 684.958 79.1823 683.2 81.6562C681.459 84.1302 680.588 87.4098 680.588 91.4951C680.588 95.5804 681.459 98.86 683.2 101.334ZM721.53 85.3428C722.963 85.3428 724.33 85.5788 725.632 86.0508C726.934 86.5228 728.114 87.2145 729.172 88.126C730.23 89.0374 731.068 90.2419 731.687 91.7393C732.321 93.2367 732.639 94.9212 732.639 96.793C732.639 99.2181 732.077 101.424 730.954 103.409C729.831 105.379 728.26 106.933 726.242 108.072C724.224 109.195 721.953 109.757 719.431 109.757C714.938 109.757 711.228 108.186 708.298 105.045L709.738 99.8936C712.587 103.393 715.817 105.143 719.431 105.143C721.888 105.143 723.866 104.353 725.363 102.774C726.877 101.196 727.634 99.2018 727.634 96.793C727.634 94.6445 726.918 92.9437 725.485 91.6904C724.053 90.4372 722.385 89.8105 720.48 89.8105C719.227 89.8105 718.047 90.1035 716.94 90.6895C715.85 91.2591 714.979 92.0973 714.328 93.2041L710.544 91.5928L712.082 73.9902H731.149V78.5068H716.086L715.231 87.4912C717.119 86.0589 719.219 85.3428 721.53 85.3428Z" fill="#0D1846"/>
<path d="M281.006 76.041L286.011 73.209V109H281.006V76.041ZM307.593 87.7598C310.49 87.7598 312.915 88.6794 314.868 90.5186C316.821 92.3415 317.798 94.8154 317.798 97.9404C317.798 101.244 316.512 104.044 313.94 106.339C311.385 108.618 308.219 109.757 304.443 109.757C302.181 109.757 300.049 109.366 298.047 108.585C296.045 107.804 294.312 106.673 292.847 105.191L294.189 99.8936C297.184 103.295 300.602 105.045 304.443 105.143C306.868 105.143 308.854 104.492 310.4 103.189C311.963 101.871 312.744 100.121 312.744 97.9404C312.744 95.9059 312.109 94.319 310.84 93.1797C309.57 92.0241 307.926 91.4463 305.908 91.4463C304.346 91.4463 302.743 91.8939 301.099 92.7891L298.706 89.542L310.156 78.5068H294.458V73.9902H316.309V77.8965L306.152 87.8574C306.478 87.7923 306.958 87.7598 307.593 87.7598ZM344.531 107.462C342.35 108.992 339.852 109.757 337.036 109.757C334.22 109.757 331.714 108.992 329.517 107.462C327.319 105.916 325.61 103.759 324.39 100.992C323.185 98.2253 322.583 95.0596 322.583 91.4951C322.583 87.9469 323.185 84.7894 324.39 82.0225C325.61 79.2393 327.319 77.0827 329.517 75.5527C331.714 74.0228 334.22 73.2578 337.036 73.2578C339.852 73.2578 342.35 74.0228 344.531 75.5527C346.729 77.0827 348.429 79.2311 349.634 81.998C350.838 84.765 351.44 87.9307 351.44 91.4951C351.44 95.0596 350.838 98.2253 349.634 100.992C348.429 103.759 346.729 105.916 344.531 107.462ZM330.2 101.334C331.958 103.808 334.237 105.045 337.036 105.045C339.836 105.045 342.098 103.816 343.823 101.358C345.565 98.8844 346.436 95.5967 346.436 91.4951C346.436 87.3936 345.565 84.1139 343.823 81.6562C342.098 79.1823 339.836 77.9453 337.036 77.9453C334.237 77.9453 331.958 79.1823 330.2 81.6562C328.459 84.1302 327.588 87.4098 327.588 91.4951C327.588 95.5804 328.459 98.86 330.2 101.334ZM369.507 87.7598C372.404 87.7598 374.829 88.6794 376.782 90.5186C378.735 92.3415 379.712 94.8154 379.712 97.9404C379.712 101.244 378.426 104.044 375.854 106.339C373.299 108.618 370.133 109.757 366.357 109.757C364.095 109.757 361.963 109.366 359.961 108.585C357.959 107.804 356.226 106.673 354.761 105.191L356.104 99.8936C359.098 103.295 362.516 105.045 366.357 105.143C368.783 105.143 370.768 104.492 372.314 103.189C373.877 101.871 374.658 100.121 374.658 97.9404C374.658 95.9059 374.023 94.319 372.754 93.1797C371.484 92.0241 369.84 91.4463 367.822 91.4463C366.26 91.4463 364.657 91.8939 363.013 92.7891L360.62 89.542L372.07 78.5068H356.372V73.9902H378.223V77.8965L368.066 87.8574C368.392 87.7923 368.872 87.7598 369.507 87.7598Z" fill="#0D1846"/>
<path d="M497.006 324.041L502.011 321.209V357H497.006V324.041ZM523.593 335.76C526.49 335.76 528.915 336.679 530.868 338.519C532.821 340.341 533.798 342.815 533.798 345.94C533.798 349.244 532.512 352.044 529.94 354.339C527.385 356.618 524.219 357.757 520.443 357.757C518.181 357.757 516.049 357.366 514.047 356.585C512.045 355.804 510.312 354.673 508.847 353.191L510.189 347.894C513.184 351.295 516.602 353.045 520.443 353.143C522.868 353.143 524.854 352.492 526.4 351.189C527.963 349.871 528.744 348.121 528.744 345.94C528.744 343.906 528.109 342.319 526.84 341.18C525.57 340.024 523.926 339.446 521.908 339.446C520.346 339.446 518.743 339.894 517.099 340.789L514.706 337.542L526.156 326.507H510.458V321.99H532.309V325.896L522.152 335.857C522.478 335.792 522.958 335.76 523.593 335.76ZM560.531 355.462C558.35 356.992 555.852 357.757 553.036 357.757C550.22 357.757 547.714 356.992 545.517 355.462C543.319 353.916 541.61 351.759 540.39 348.992C539.185 346.225 538.583 343.06 538.583 339.495C538.583 335.947 539.185 332.789 540.39 330.022C541.61 327.239 543.319 325.083 545.517 323.553C547.714 322.023 550.22 321.258 553.036 321.258C555.852 321.258 558.35 322.023 560.531 323.553C562.729 325.083 564.429 327.231 565.634 329.998C566.838 332.765 567.44 335.931 567.44 339.495C567.44 343.06 566.838 346.225 565.634 348.992C564.429 351.759 562.729 353.916 560.531 355.462ZM546.2 349.334C547.958 351.808 550.237 353.045 553.036 353.045C555.836 353.045 558.098 351.816 559.823 349.358C561.565 346.884 562.436 343.597 562.436 339.495C562.436 335.394 561.565 332.114 559.823 329.656C558.098 327.182 555.836 325.945 553.036 325.945C550.237 325.945 547.958 327.182 546.2 329.656C544.459 332.13 543.588 335.41 543.588 339.495C543.588 343.58 544.459 346.86 546.2 349.334ZM587.826 333.147C589.942 333.147 591.903 333.619 593.71 334.563C595.517 335.507 596.981 336.875 598.104 338.665C599.228 340.439 599.789 342.449 599.789 344.695C599.789 348.504 598.625 351.637 596.298 354.095C593.97 356.536 590.967 357.757 587.289 357.757C585.971 357.757 584.685 357.562 583.432 357.171C582.195 356.797 580.99 356.17 579.818 355.291C578.663 354.412 577.654 353.33 576.791 352.044C575.928 350.742 575.237 349.114 574.716 347.161C574.195 345.192 573.935 343.003 573.935 340.594C573.935 337.615 574.35 334.905 575.18 332.464C576.026 330.022 577.198 327.988 578.695 326.36C580.209 324.733 582.007 323.479 584.091 322.601C586.174 321.705 588.453 321.258 590.927 321.258C592.603 321.258 594.092 321.502 595.395 321.99L596.176 327.239C594.271 326.442 592.229 326.043 590.048 326.043C588.664 326.043 587.338 326.287 586.068 326.775C584.799 327.247 583.611 327.955 582.504 328.899C581.413 329.843 580.518 331.129 579.818 332.757C579.135 334.368 578.744 336.215 578.646 338.299C579.639 336.508 580.933 335.206 582.528 334.393C584.14 333.562 585.906 333.147 587.826 333.147ZM587.191 353.045C589.405 353.045 591.22 352.329 592.636 350.896C594.068 349.464 594.784 347.633 594.784 345.403C594.784 343.06 594.101 341.204 592.733 339.837C591.366 338.453 589.519 337.762 587.191 337.762C585.076 337.762 583.326 338.478 581.942 339.91C580.575 341.342 579.892 343.174 579.892 345.403C579.892 347.568 580.616 349.383 582.064 350.848C583.529 352.312 585.238 353.045 587.191 353.045Z" fill="#0D1846"/>
<path d="M274.041 416.994L271.209 411.989L307 411.989L307 416.994L274.041 416.994ZM285.76 390.407C285.76 387.51 286.679 385.085 288.519 383.132C290.341 381.179 292.815 380.202 295.94 380.202C299.244 380.202 302.044 381.488 304.339 384.06C306.618 386.615 307.757 389.781 307.757 393.557C307.757 395.819 307.366 397.951 306.585 399.953C305.804 401.955 304.673 403.688 303.191 405.153L297.894 403.811C301.295 400.816 303.045 397.398 303.143 393.557C303.143 391.132 302.492 389.146 301.189 387.6C299.871 386.037 298.121 385.256 295.94 385.256C293.906 385.256 292.319 385.891 291.18 387.16C290.024 388.43 289.446 390.074 289.446 392.092C289.446 393.654 289.894 395.257 290.789 396.901L287.542 399.294L276.507 387.844L276.507 403.542L271.99 403.542L271.99 381.691L275.896 381.691L285.857 391.848C285.792 391.522 285.76 391.042 285.76 390.407ZM305.462 353.469C306.992 355.65 307.757 358.148 307.757 360.964C307.757 363.78 306.992 366.286 305.462 368.483C303.916 370.681 301.759 372.39 298.992 373.61C296.225 374.815 293.06 375.417 289.495 375.417C285.947 375.417 282.789 374.815 280.022 373.61C277.239 372.39 275.083 370.681 273.553 368.483C272.023 366.286 271.258 363.78 271.258 360.964C271.258 358.148 272.023 355.65 273.553 353.469C275.083 351.271 277.231 349.571 279.998 348.366C282.765 347.162 285.931 346.56 289.495 346.56C293.06 346.56 296.225 347.162 298.992 348.366C301.759 349.571 303.916 351.271 305.462 353.469ZM299.334 367.8C301.808 366.042 303.045 363.763 303.045 360.964C303.045 358.164 301.816 355.902 299.358 354.177C296.884 352.435 293.597 351.564 289.495 351.564C285.394 351.564 282.114 352.435 279.656 354.177C277.182 355.902 275.945 358.164 275.945 360.964C275.945 363.763 277.182 366.042 279.656 367.8C282.13 369.541 285.41 370.412 289.495 370.412C293.58 370.412 296.86 369.541 299.334 367.8ZM298.089 314.064L298.089 320.705L307.757 320.705L307.757 325.71L298.089 325.71L298.089 343.264L293.89 343.264L271.99 323.708L271.99 320.705L293.646 320.705L293.646 314.064L298.089 314.064ZM293.646 325.71L280.242 325.71L293.646 337.551L293.646 325.71Z" fill="#0D1846"/>
<path d="M112.006 324.041L117.011 321.209V357H112.006V324.041ZM138.593 335.76C141.49 335.76 143.915 336.679 145.868 338.519C147.821 340.341 148.798 342.815 148.798 345.94C148.798 349.244 147.512 352.044 144.94 354.339C142.385 356.618 139.219 357.757 135.443 357.757C133.181 357.757 131.049 357.366 129.047 356.585C127.045 355.804 125.312 354.673 123.847 353.191L125.189 347.894C128.184 351.295 131.602 353.045 135.443 353.143C137.868 353.143 139.854 352.492 141.4 351.189C142.963 349.871 143.744 348.121 143.744 345.94C143.744 343.906 143.109 342.319 141.84 341.18C140.57 340.024 138.926 339.446 136.908 339.446C135.346 339.446 133.743 339.894 132.099 340.789L129.706 337.542L141.156 326.507H125.458V321.99H147.309V325.896L137.152 335.857C137.478 335.792 137.958 335.76 138.593 335.76ZM175.531 355.462C173.35 356.992 170.852 357.757 168.036 357.757C165.22 357.757 162.714 356.992 160.517 355.462C158.319 353.916 156.61 351.759 155.39 348.992C154.185 346.225 153.583 343.06 153.583 339.495C153.583 335.947 154.185 332.789 155.39 330.022C156.61 327.239 158.319 325.083 160.517 323.553C162.714 322.023 165.22 321.258 168.036 321.258C170.852 321.258 173.35 322.023 175.531 323.553C177.729 325.083 179.429 327.231 180.634 329.998C181.838 332.765 182.44 335.931 182.44 339.495C182.44 343.06 181.838 346.225 180.634 348.992C179.429 351.759 177.729 353.916 175.531 355.462ZM161.2 349.334C162.958 351.808 165.237 353.045 168.036 353.045C170.836 353.045 173.098 351.816 174.823 349.358C176.565 346.884 177.436 343.597 177.436 339.495C177.436 335.394 176.565 332.114 174.823 329.656C173.098 327.182 170.836 325.945 168.036 325.945C165.237 325.945 162.958 327.182 161.2 329.656C159.459 332.13 158.588 335.41 158.588 339.495C158.588 343.58 159.459 346.86 161.2 349.334ZM210.346 352.508V357H187.079V353.46L191.376 349.847C192.955 348.528 194.322 347.348 195.478 346.307C196.633 345.265 197.87 344.069 199.188 342.718C200.507 341.367 201.573 340.122 202.387 338.982C203.217 337.827 203.9 336.614 204.438 335.345C204.975 334.075 205.227 332.879 205.194 331.756C205.146 329.884 204.511 328.403 203.29 327.312C202.086 326.206 200.45 325.652 198.383 325.652C196.007 325.652 194.216 326.36 193.012 327.776C191.824 329.176 191.229 331.032 191.229 333.343C191.229 333.701 191.262 334.254 191.327 335.003L186.786 332.903V332.708C186.786 329.257 187.893 326.491 190.106 324.407C192.32 322.308 195.233 321.258 198.847 321.258C200.93 321.258 202.785 321.64 204.413 322.405C206.057 323.17 207.375 324.35 208.368 325.945C209.377 327.54 209.882 329.445 209.882 331.658C209.882 332.716 209.727 333.79 209.418 334.881C209.109 335.955 208.726 336.956 208.271 337.884C207.815 338.812 207.164 339.821 206.317 340.911C205.471 342.002 204.674 342.962 203.925 343.792C203.192 344.606 202.208 345.582 200.971 346.722C199.75 347.861 198.7 348.813 197.821 349.578C196.959 350.327 195.811 351.303 194.379 352.508H210.346Z" fill="#0D1846"/>
<path d="M85.0059 76.041L90.0107 73.209V109H85.0059V76.041ZM111.593 87.7598C114.49 87.7598 116.915 88.6794 118.868 90.5186C120.821 92.3415 121.798 94.8154 121.798 97.9404C121.798 101.244 120.512 104.044 117.94 106.339C115.385 108.618 112.219 109.757 108.443 109.757C106.181 109.757 104.049 109.366 102.047 108.585C100.045 107.804 98.3115 106.673 96.8467 105.191L98.1895 99.8936C101.184 103.295 104.602 105.045 108.443 105.143C110.868 105.143 112.854 104.492 114.4 103.189C115.963 101.871 116.744 100.121 116.744 97.9404C116.744 95.9059 116.109 94.319 114.84 93.1797C113.57 92.0241 111.926 91.4463 109.908 91.4463C108.346 91.4463 106.743 91.8939 105.099 92.7891L102.706 89.542L114.156 78.5068H98.458V73.9902H120.309V77.8965L110.152 87.8574C110.478 87.7923 110.958 87.7598 111.593 87.7598ZM148.531 107.462C146.35 108.992 143.852 109.757 141.036 109.757C138.22 109.757 135.714 108.992 133.517 107.462C131.319 105.916 129.61 103.759 128.39 100.992C127.185 98.2253 126.583 95.0596 126.583 91.4951C126.583 87.9469 127.185 84.7894 128.39 82.0225C129.61 79.2393 131.319 77.0827 133.517 75.5527C135.714 74.0228 138.22 73.2578 141.036 73.2578C143.852 73.2578 146.35 74.0228 148.531 75.5527C150.729 77.0827 152.429 79.2311 153.634 81.998C154.838 84.765 155.44 87.9307 155.44 91.4951C155.44 95.0596 154.838 98.2253 153.634 100.992C152.429 103.759 150.729 105.916 148.531 107.462ZM134.2 101.334C135.958 103.808 138.237 105.045 141.036 105.045C143.836 105.045 146.098 103.816 147.823 101.358C149.565 98.8844 150.436 95.5967 150.436 91.4951C150.436 87.3936 149.565 84.1139 147.823 81.6562C146.098 79.1823 143.836 77.9453 141.036 77.9453C138.237 77.9453 135.958 79.1823 134.2 81.6562C132.459 84.1302 131.588 87.4098 131.588 91.4951C131.588 95.5804 132.459 98.86 134.2 101.334ZM164.693 76.041L169.698 73.209V109L164.693 109V76.041Z" fill="#0D1846"/>
<path d="M2376.01 325.041L2381.01 322.209V358H2376.01V325.041ZM2402.59 336.76C2405.49 336.76 2407.92 337.679 2409.87 339.519C2411.82 341.341 2412.8 343.815 2412.8 346.94C2412.8 350.244 2411.51 353.044 2408.94 355.339C2406.39 357.618 2403.22 358.757 2399.44 358.757C2397.18 358.757 2395.05 358.366 2393.05 357.585C2391.04 356.804 2389.31 355.673 2387.85 354.191L2389.19 348.894C2392.18 352.295 2395.6 354.045 2399.44 354.143C2401.87 354.143 2403.85 353.492 2405.4 352.189C2406.96 350.871 2407.74 349.121 2407.74 346.94C2407.74 344.906 2407.11 343.319 2405.84 342.18C2404.57 341.024 2402.93 340.446 2400.91 340.446C2399.35 340.446 2397.74 340.894 2396.1 341.789L2393.71 338.542L2405.16 327.507H2389.46V322.99H2411.31V326.896L2401.15 336.857C2401.48 336.792 2401.96 336.76 2402.59 336.76ZM2420.34 325.041L2425.35 322.209V358H2420.34V325.041ZM2452.74 340.202C2454.38 341.032 2455.67 342.163 2456.6 343.596C2457.52 345.012 2457.99 346.566 2457.99 348.259C2457.99 351.351 2456.84 353.874 2454.55 355.827C2452.25 357.78 2449.31 358.757 2445.73 358.757C2442.15 358.757 2439.21 357.78 2436.92 355.827C2434.62 353.874 2433.48 351.351 2433.48 348.259C2433.48 346.566 2433.94 345.012 2434.87 343.596C2435.8 342.163 2437.08 341.032 2438.73 340.202C2437.2 339.372 2436.01 338.282 2435.16 336.931C2434.31 335.58 2433.89 334.107 2433.89 332.512C2433.89 329.501 2435 327.043 2437.21 325.139C2439.43 323.218 2442.27 322.258 2445.73 322.258C2449.2 322.258 2452.04 323.218 2454.25 325.139C2456.47 327.043 2457.57 329.501 2457.57 332.512C2457.57 334.107 2457.15 335.58 2456.3 336.931C2455.46 338.282 2454.27 339.372 2452.74 340.202ZM2450.93 328.215C2449.63 327.141 2447.9 326.604 2445.73 326.604C2443.57 326.604 2441.83 327.141 2440.53 328.215C2439.23 329.289 2438.58 330.721 2438.58 332.512C2438.58 334.221 2439.27 335.604 2440.65 336.662C2442.04 337.72 2443.73 338.249 2445.73 338.249C2447.73 338.249 2449.43 337.72 2450.81 336.662C2452.19 335.604 2452.89 334.221 2452.89 332.512C2452.89 330.721 2452.23 329.289 2450.93 328.215ZM2440.24 352.751C2441.61 353.858 2443.44 354.411 2445.73 354.411C2448.03 354.411 2449.86 353.858 2451.23 352.751C2452.59 351.628 2453.28 350.131 2453.28 348.259C2453.28 346.452 2452.57 345.004 2451.15 343.913C2449.74 342.806 2447.93 342.253 2445.73 342.253C2443.54 342.253 2441.73 342.806 2440.31 343.913C2438.9 345.004 2438.19 346.452 2438.19 348.259C2438.19 350.131 2438.87 351.628 2440.24 352.751Z" fill="#0D1846"/>
<path d="M2174.04 399.994L2171.21 394.989L2207 394.989L2207 399.994L2174.04 399.994ZM2185.76 373.407C2185.76 370.51 2186.68 368.085 2188.52 366.132C2190.34 364.179 2192.82 363.202 2195.94 363.202C2199.24 363.202 2202.04 364.488 2204.34 367.06C2206.62 369.615 2207.76 372.781 2207.76 376.557C2207.76 378.819 2207.37 380.951 2206.58 382.953C2205.8 384.955 2204.67 386.688 2203.19 388.153L2197.89 386.811C2201.3 383.816 2203.04 380.398 2203.14 376.557C2203.14 374.132 2202.49 372.146 2201.19 370.6C2199.87 369.037 2198.12 368.256 2195.94 368.256C2193.91 368.256 2192.32 368.891 2191.18 370.16C2190.02 371.43 2189.45 373.074 2189.45 375.092C2189.45 376.654 2189.89 378.257 2190.79 379.901L2187.54 382.294L2176.51 370.844L2176.51 386.542L2171.99 386.542L2171.99 364.691L2175.9 364.691L2185.86 374.848C2185.79 374.522 2185.76 374.042 2185.76 373.407ZM2174.04 355.658L2171.21 350.653L2207 350.653L2207 355.658L2174.04 355.658ZM2189.2 323.261C2190.03 321.617 2191.16 320.331 2192.6 319.403C2194.01 318.476 2195.57 318.012 2197.26 318.012C2200.35 318.012 2202.87 319.159 2204.83 321.454C2206.78 323.749 2207.76 326.687 2207.76 330.268C2207.76 333.848 2206.78 336.786 2204.83 339.081C2202.87 341.376 2200.35 342.523 2197.26 342.523C2195.57 342.523 2194.01 342.06 2192.6 341.132C2191.16 340.204 2190.03 338.918 2189.2 337.274C2188.37 338.804 2187.28 339.993 2185.93 340.839C2184.58 341.685 2183.11 342.108 2181.51 342.108C2178.5 342.108 2176.04 341.002 2174.14 338.788C2172.22 336.575 2171.26 333.734 2171.26 330.268C2171.26 326.801 2172.22 323.961 2174.14 321.747C2176.04 319.534 2178.5 318.427 2181.51 318.427C2183.11 318.427 2184.58 318.85 2185.93 319.696C2187.28 320.543 2188.37 321.731 2189.2 323.261ZM2177.21 325.067C2176.14 326.369 2175.6 328.103 2175.6 330.268C2175.6 332.432 2176.14 334.166 2177.21 335.468C2178.29 336.77 2179.72 337.421 2181.51 337.421C2183.22 337.421 2184.6 336.729 2185.66 335.346C2186.72 333.962 2187.25 332.27 2187.25 330.268C2187.25 328.266 2186.72 326.573 2185.66 325.189C2184.6 323.806 2183.22 323.114 2181.51 323.114C2179.72 323.114 2178.29 323.765 2177.21 325.067ZM2201.75 335.761C2202.86 334.394 2203.41 332.563 2203.41 330.268C2203.41 327.973 2202.86 326.142 2201.75 324.774C2200.63 323.407 2199.13 322.724 2197.26 322.724C2195.45 322.724 2194 323.432 2192.91 324.848C2191.81 326.264 2191.25 328.07 2191.25 330.268C2191.25 332.465 2191.81 334.271 2192.91 335.688C2194 337.104 2195.45 337.812 2197.26 337.812C2199.13 337.812 2200.63 337.128 2201.75 335.761ZM2181.24 301.386C2181.24 298.049 2182.09 295.51 2183.78 293.769C2185.47 292.011 2187.9 291.132 2191.06 291.132L2207 291.132L2207 295.624L2204.09 295.624C2205.19 296.633 2206.07 298.057 2206.76 299.896C2207.42 301.736 2207.76 303.477 2207.76 305.121C2207.76 307.383 2207.2 309.263 2206.07 310.761C2204.95 312.242 2203.31 312.982 2201.14 312.982C2200 312.982 2198.99 312.738 2198.11 312.25C2197.23 311.762 2196.51 311.062 2195.94 310.15C2195.35 309.223 2194.88 308.23 2194.52 307.172C2194.15 306.114 2193.82 304.885 2193.55 303.485C2192.88 300.263 2192.42 298.301 2192.16 297.602C2191.78 296.56 2191.24 295.917 2190.52 295.673C2190.21 295.575 2189.82 295.526 2189.35 295.526C2188.14 295.526 2187.18 296.039 2186.44 297.064C2185.71 298.09 2185.34 299.547 2185.34 301.435C2185.34 303.388 2185.88 305.259 2186.96 307.05C2188.03 308.824 2189.51 310.15 2191.4 311.029L2187.86 313.935C2185.79 312.486 2184.17 310.663 2183 308.466C2181.83 306.269 2181.24 303.909 2181.24 301.386ZM2203.75 304.535C2203.75 303.07 2203.47 301.646 2202.9 300.263C2202.33 298.863 2201.53 297.715 2200.51 296.82C2199.48 295.925 2198.38 295.478 2197.21 295.478L2194.74 295.478C2195.54 296.796 2196.26 298.912 2196.89 301.825C2197.07 302.655 2197.22 303.298 2197.33 303.754C2197.43 304.21 2197.57 304.739 2197.75 305.341C2197.91 305.927 2198.08 306.374 2198.26 306.684C2198.42 306.993 2198.63 307.31 2198.89 307.636C2199.14 307.945 2199.42 308.165 2199.72 308.295C2200.03 308.409 2200.39 308.466 2200.8 308.466C2201.78 308.466 2202.52 308.165 2203.02 307.563C2203.51 306.944 2203.75 305.935 2203.75 304.535Z" fill="#0D1846"/>
<path d="M834 252L3.00003 252" stroke="#0D1846" stroke-width="5"/>
<path d="M834 278L761 278" stroke="#0D1846"/>
<path d="M2448 252C2447.2 250 2447.67 209.167 2448 189" stroke="#0D1846" stroke-width="2"/>
<path d="M403 308L351 308" stroke="#0D1846" stroke-width="2"/>
<path d="M328 299L251 299" stroke="#0D1846" stroke-width="2"/>
<path d="M352 308.5L352 249.5" stroke="#0D1846" stroke-width="2"/>
<path d="M708.99 359.704L744 370.69L744 375.598L715.411 385.461L744 395.056L744 399.938L708.99 411.242L708.99 405.798L736.456 397.399L708.99 387.902L708.99 382.897L737.14 373.254L708.99 364.855L708.99 359.704ZM744.757 339.978C744.757 342.631 744.293 345.121 743.365 347.448C742.421 349.776 741.144 351.761 739.532 353.405C737.905 355.049 735.96 356.351 733.697 357.312C731.435 358.256 729.018 358.728 726.446 358.728C723.061 358.728 719.977 357.938 717.193 356.359C714.41 354.764 712.229 352.575 710.65 349.792C709.055 346.993 708.258 343.876 708.258 340.441C708.258 337.398 708.787 334.688 709.845 332.312C710.886 329.919 712.27 327.974 713.995 326.477L719.049 329.284C717.161 330.456 715.688 331.978 714.63 333.85C713.572 335.721 713.043 337.821 713.043 340.148C713.043 342.704 713.629 344.999 714.801 347.033C715.956 349.051 717.56 350.622 719.61 351.745C721.645 352.868 723.924 353.43 726.446 353.43C730.336 353.43 733.559 352.168 736.114 349.646C738.67 347.106 739.947 343.884 739.947 339.978C739.947 336.722 738.979 334.012 737.042 331.848C735.089 329.667 732.525 328.332 729.352 327.844L731.207 322.839C735.325 323.669 738.613 325.655 741.07 328.796C743.528 331.921 744.757 335.648 744.757 339.978ZM708.99 278.698L744 278.698L744 283.703L728.546 283.703C729.783 286.747 730.401 289.912 730.401 293.2C730.401 297.253 729.295 300.419 727.081 302.697C724.868 304.96 721.677 306.091 717.511 306.091L708.99 306.091L708.99 301.086L717.511 301.086C722.963 301.086 725.689 298.457 725.689 293.2C725.689 289.88 725.047 286.714 723.761 283.703L708.99 283.703L708.99 278.698Z" fill="#0D1846"/>
<path d="M1381.01 71.041L1386.01 68.209V104H1381.01V71.041ZM1407.59 82.7598C1410.49 82.7598 1412.92 83.6794 1414.87 85.5186C1416.82 87.3415 1417.8 89.8154 1417.8 92.9404C1417.8 96.2445 1416.51 99.0439 1413.94 101.339C1411.39 103.618 1408.22 104.757 1404.44 104.757C1402.18 104.757 1400.05 104.366 1398.05 103.585C1396.04 102.804 1394.31 101.673 1392.85 100.191L1394.19 94.8936C1397.18 98.2952 1400.6 100.045 1404.44 100.143C1406.87 100.143 1408.85 99.4915 1410.4 98.1895C1411.96 96.8711 1412.74 95.1214 1412.74 92.9404C1412.74 90.9059 1412.11 89.319 1410.84 88.1797C1409.57 87.0241 1407.93 86.4463 1405.91 86.4463C1404.35 86.4463 1402.74 86.8939 1401.1 87.7891L1398.71 84.542L1410.16 73.5068H1394.46V68.9902H1416.31V72.8965L1406.15 82.8574C1406.48 82.7923 1406.96 82.7598 1407.59 82.7598ZM1425.34 71.041L1430.35 68.209V104H1425.34V71.041ZM1442.09 71.041L1447.09 68.209V104H1442.09V71.041Z" fill="#0D1846"/>
<path d="M2215.01 71.041L2220.01 68.209V104H2215.01V71.041ZM2241.59 82.7598C2244.49 82.7598 2246.92 83.6794 2248.87 85.5186C2250.82 87.3415 2251.8 89.8154 2251.8 92.9404C2251.8 96.2445 2250.51 99.0439 2247.94 101.339C2245.39 103.618 2242.22 104.757 2238.44 104.757C2236.18 104.757 2234.05 104.366 2232.05 103.585C2230.04 102.804 2228.31 101.673 2226.85 100.191L2228.19 94.8936C2231.18 98.2952 2234.6 100.045 2238.44 100.143C2240.87 100.143 2242.85 99.4915 2244.4 98.1895C2245.96 96.8711 2246.74 95.1214 2246.74 92.9404C2246.74 90.9059 2246.11 89.319 2244.84 88.1797C2243.57 87.0241 2241.93 86.4463 2239.91 86.4463C2238.35 86.4463 2236.74 86.8939 2235.1 87.7891L2232.71 84.542L2244.16 73.5068H2228.46V68.9902H2250.31V72.8965L2240.15 82.8574C2240.48 82.7923 2240.96 82.7598 2241.59 82.7598ZM2259.34 71.041L2264.35 68.209V104H2259.34V71.041ZM2284.83 68.2578C2286.15 68.2578 2287.43 68.4531 2288.66 68.8438C2289.92 69.2181 2291.12 69.8447 2292.28 70.7236C2293.45 71.6025 2294.47 72.6849 2295.33 73.9707C2296.19 75.2565 2296.88 76.8841 2297.4 78.8535C2297.92 80.8066 2298.18 82.9876 2298.18 85.3965C2298.18 88.3913 2297.76 91.1094 2296.92 93.5508C2296.08 95.9759 2294.91 98.0104 2293.4 99.6543C2291.9 101.282 2290.11 102.543 2288.03 103.438C2285.94 104.317 2283.67 104.757 2281.19 104.757C2280.61 104.757 2279.87 104.684 2278.97 104.537C2278.08 104.407 2277.33 104.228 2276.72 104L2275.94 98.751C2277.85 99.5485 2279.9 99.9473 2282.1 99.9473C2283.48 99.9473 2284.81 99.7113 2286.08 99.2393C2287.34 98.751 2288.52 98.0348 2289.62 97.0908C2290.71 96.1468 2291.59 94.8691 2292.28 93.2578C2292.98 91.6302 2293.38 89.7747 2293.47 87.6914C2292.48 89.4818 2291.18 90.792 2289.57 91.6221C2287.97 92.4359 2286.21 92.8428 2284.29 92.8428C2282.18 92.8428 2280.22 92.3708 2278.41 91.4268C2276.6 90.4827 2275.14 89.1237 2274.01 87.3496C2272.89 85.5592 2272.33 83.541 2272.33 81.2949C2272.33 77.4863 2273.49 74.3613 2275.82 71.9199C2278.15 69.4785 2281.15 68.2578 2284.83 68.2578ZM2284.93 88.2529C2287.04 88.2529 2288.79 87.5368 2290.15 86.1045C2291.54 84.6722 2292.23 82.8411 2292.23 80.6113C2292.23 78.4466 2291.5 76.6318 2290.03 75.167C2288.58 73.6859 2286.88 72.9453 2284.93 72.9453C2282.71 72.9453 2280.89 73.6696 2279.46 75.1182C2278.04 76.5505 2277.33 78.3815 2277.33 80.6113C2277.33 82.9551 2278.02 84.8187 2279.39 86.2021C2280.75 87.5693 2282.6 88.2529 2284.93 88.2529Z" fill="#0D1846"/>
</svg>
