<svg width="2615" height="440" viewBox="0 0 2615 440" fill="none" xmlns="http://www.w3.org/2000/svg">
<path d="M2612 189L2.99996 189" stroke="#0D1846" stroke-width="5"/>
<path d="M2.99989 436.999L2612 437" stroke="#0D1846" stroke-width="5"/>
<path d="M2229 256L2229 438" stroke="#0D1846" stroke-width="2"/>
<path d="M2229 3L2229 188" stroke="#0D1846" stroke-width="2"/>
<path d="M2149 254L2149 438" stroke="#0D1846" stroke-width="2"/>
<path d="M2148 191L2148 4.00037" stroke="#0D1846" stroke-width="2"/>
<path d="M1852 190L1852 4.00001" stroke="#0D1846" stroke-width="2"/>
<path d="M1699 190L1699 4.00001" stroke="#0D1846" stroke-width="2"/>
<path d="M1776 190L1776 3.00037" stroke="#0D1846" stroke-width="2"/>
<path d="M70 189L70 4" stroke="#0D1846" stroke-width="2"/>
<path d="M134 189L134 4" stroke="#0D1846" stroke-width="2"/>
<path d="M197 189L197 4" stroke="#0D1846" stroke-width="2"/>
<path d="M2072 256L2072 436" stroke="#0D1846" stroke-width="2"/>
<path d="M1607 253L1607 436" stroke="#0D1846" stroke-width="2"/>
<path d="M1379 253L1379 436" stroke="#0D1846" stroke-width="5"/>
<path d="M1163 253L1163 436" stroke="#0D1846" stroke-width="2"/>
<path d="M578 189L578 2" stroke="#0D1846" stroke-width="2"/>
<path d="M388 189L388 2" stroke="#0D1846" stroke-width="2"/>
<path d="M834 190L834 3" stroke="#0D1846" stroke-width="5"/>
<path d="M1163 190L1163 4" stroke="#0D1846" stroke-width="2"/>
<path d="M1353 188L1353 2" stroke="#0D1846" stroke-width="2"/>
<path d="M941 437L941 254" stroke="#0D1846" stroke-width="5"/>
<path d="M1776 436L1776 256" stroke="#0D1846" stroke-width="5"/>
<path d="M2067 256L2612 256" stroke="#0D1846" stroke-width="5"/>
<path d="M940 254L1988 254" stroke="#0D1846" stroke-width="5"/>
<path d="M834 253L834 437" stroke="#0D1846" stroke-width="5"/>
<path d="M747 254L747 438" stroke="#0D1846" stroke-width="2"/>
<path d="M663 254L663 438" stroke="#0D1846" stroke-width="2"/>
<path d="M578 254L578 438" stroke="#0D1846" stroke-width="2"/>
<path d="M70.0002 252.443L69.998 436" stroke="#0D1846" stroke-width="2"/>
<path d="M325 252.443L324.998 436" stroke="#0D1846" stroke-width="2"/>
<path d="M3.00011 2.99998L3 437" stroke="#0D1846" stroke-width="5"/>
<path d="M2.9999 2.99954L2612 3" stroke="#0D1846" stroke-width="5"/>
<path d="M2612 438L2612 3.00001" stroke="#0D1846" stroke-width="5"/>
<path d="M1875.03 256L1875.03 439" stroke="#0D1846"/>
<path d="M1867.47 256L1867.47 439" stroke="#0D1846"/>
<path d="M1859.91 256L1859.91 439" stroke="#0D1846"/>
<path d="M1852.35 256L1852.35 439" stroke="#0D1846"/>
<path d="M1882.59 256L1882.59 439" stroke="#0D1846"/>
<path d="M1890.15 256L1890.15 439" stroke="#0D1846"/>
<path d="M1897.72 256L1897.72 439" stroke="#0D1846"/>
<path d="M1903.12 256L1903.12 439" stroke="#0D1846"/>
<path d="M1910.68 439L1910.68 256" stroke="#0D1846"/>
<path d="M1918.24 439L1918.24 256" stroke="#0D1846"/>
<path d="M1925.8 257L1925.8 439" stroke="#0D1846"/>
<path d="M1940.92 256L1940.92 439" stroke="#0D1846"/>
<path d="M1933.36 256L1933.36 439" stroke="#0D1846"/>
<path d="M1942 347L1852.35 346.995" stroke="#0D1846"/>
<path d="M941 399L833.53 399" stroke="#0D1846"/>
<path d="M941 385L833.53 385" stroke="#0D1846"/>
<path d="M941 378L833.53 378" stroke="#0D1846"/>
<path d="M941 364L833.53 364" stroke="#0D1846"/>
<path d="M941 357L833.53 357" stroke="#0D1846"/>
<path d="M941 350L833.53 350" stroke="#0D1846"/>
<path d="M941 336L833.53 336" stroke="#0D1846"/>
<path d="M941 329L833.53 329" stroke="#0D1846"/>
<path d="M941 322L833.53 322" stroke="#0D1846"/>
<path d="M941 308L833.53 308" stroke="#0D1846"/>
<path d="M941 301L833.53 301" stroke="#0D1846"/>
<path d="M941 287L833.53 287" stroke="#0D1846"/>
<path d="M941 392L833.53 392" stroke="#0D1846"/>
<path d="M941 371L833.53 371" stroke="#0D1846"/>
<path d="M941 343L833.53 343" stroke="#0D1846"/>
<path d="M941 315L833.53 315" stroke="#0D1846"/>
<path d="M939.918 294L834.068 294" stroke="#0D1846"/>
<path d="M941 287L833.53 287" stroke="#0D1846"/>
<path d="M886.994 399L886.994 287" stroke="#0D1846"/>
<path d="M2375.01 78.041L2380.01 75.209V111H2375.01V78.041ZM2415 102.089H2408.36V111.757H2403.35V102.089H2385.8V97.8896L2405.35 75.9902H2408.36V97.6455H2415V102.089ZM2403.35 97.6455V84.2422L2391.51 97.6455H2403.35ZM2440 106.508V111H2416.73V107.46L2421.03 103.847C2422.61 102.528 2423.97 101.348 2425.13 100.307C2426.28 99.265 2427.52 98.0687 2428.84 96.7178C2430.16 95.3669 2431.22 94.1217 2432.04 92.9824C2432.87 91.8268 2433.55 90.6143 2434.09 89.3447C2434.62 88.0752 2434.88 86.8789 2434.84 85.7559C2434.8 83.8841 2434.16 82.403 2432.94 81.3125C2431.74 80.2057 2430.1 79.6523 2428.03 79.6523C2425.66 79.6523 2423.87 80.3604 2422.66 81.7764C2421.47 83.1761 2420.88 85.0316 2420.88 87.3428C2420.88 87.7008 2420.91 88.2542 2420.98 89.0029L2416.44 86.9033V86.708C2416.44 83.2575 2417.54 80.4906 2419.76 78.4072C2421.97 76.3076 2424.88 75.2578 2428.5 75.2578C2430.58 75.2578 2432.44 75.6403 2434.06 76.4053C2435.71 77.1702 2437.03 78.3503 2438.02 79.9453C2439.03 81.5404 2439.53 83.4447 2439.53 85.6582C2439.53 86.7161 2439.38 87.7904 2439.07 88.8809C2438.76 89.9551 2438.38 90.9561 2437.92 91.8838C2437.47 92.8115 2436.81 93.8206 2435.97 94.9111C2435.12 96.0016 2434.32 96.9619 2433.58 97.792C2432.84 98.6058 2431.86 99.5824 2430.62 100.722C2429.4 101.861 2428.35 102.813 2427.47 103.578C2426.61 104.327 2425.46 105.303 2424.03 106.508H2440ZM2448.93 78.041L2453.94 75.209V111H2448.93V78.041Z" fill="#0D1846"/>
<path d="M2404.01 205.041L2409.01 202.209V238H2404.01V205.041ZM2444 229.089H2437.36V238.757H2432.35V229.089H2414.8V224.89L2434.35 202.99H2437.36V224.646H2444V229.089ZM2432.35 224.646V211.242L2420.51 224.646H2432.35ZM2469 233.508V238H2445.73V234.46L2450.03 230.847C2451.61 229.528 2452.97 228.348 2454.13 227.307C2455.28 226.265 2456.52 225.069 2457.84 223.718C2459.16 222.367 2460.22 221.122 2461.04 219.982C2461.87 218.827 2462.55 217.614 2463.09 216.345C2463.62 215.075 2463.88 213.879 2463.84 212.756C2463.8 210.884 2463.16 209.403 2461.94 208.312C2460.74 207.206 2459.1 206.652 2457.03 206.652C2454.66 206.652 2452.87 207.36 2451.66 208.776C2450.47 210.176 2449.88 212.032 2449.88 214.343C2449.88 214.701 2449.91 215.254 2449.98 216.003L2445.44 213.903V213.708C2445.44 210.257 2446.54 207.491 2448.76 205.407C2450.97 203.308 2453.88 202.258 2457.5 202.258C2459.58 202.258 2461.44 202.64 2463.06 203.405C2464.71 204.17 2466.03 205.35 2467.02 206.945C2468.03 208.54 2468.53 210.445 2468.53 212.658C2468.53 213.716 2468.38 214.79 2468.07 215.881C2467.76 216.955 2467.38 217.956 2466.92 218.884C2466.47 219.812 2465.81 220.821 2464.97 221.911C2464.12 223.002 2463.32 223.962 2462.58 224.792C2461.84 225.606 2460.86 226.582 2459.62 227.722C2458.4 228.861 2457.35 229.813 2456.47 230.578C2455.61 231.327 2454.46 232.303 2453.03 233.508H2469ZM2496.58 233.508V238H2473.32V234.46L2477.61 230.847C2479.19 229.528 2480.56 228.348 2481.72 227.307C2482.87 226.265 2484.11 225.069 2485.43 223.718C2486.75 222.367 2487.81 221.122 2488.62 219.982C2489.46 218.827 2490.14 217.614 2490.68 216.345C2491.21 215.075 2491.47 213.879 2491.43 212.756C2491.38 210.884 2490.75 209.403 2489.53 208.312C2488.32 207.206 2486.69 206.652 2484.62 206.652C2482.24 206.652 2480.45 207.36 2479.25 208.776C2478.06 210.176 2477.47 212.032 2477.47 214.343C2477.47 214.701 2477.5 215.254 2477.57 216.003L2473.02 213.903V213.708C2473.02 210.257 2474.13 207.491 2476.34 205.407C2478.56 203.308 2481.47 202.258 2485.08 202.258C2487.17 202.258 2489.02 202.64 2490.65 203.405C2492.3 204.17 2493.61 205.35 2494.61 206.945C2495.62 208.54 2496.12 210.445 2496.12 212.658C2496.12 213.716 2495.97 214.79 2495.66 215.881C2495.35 216.955 2494.96 217.956 2494.51 218.884C2494.05 219.812 2493.4 220.821 2492.56 221.911C2491.71 223.002 2490.91 223.962 2490.16 224.792C2489.43 225.606 2488.45 226.582 2487.21 227.722C2485.99 228.861 2484.94 229.813 2484.06 230.578C2483.2 231.327 2482.05 232.303 2480.62 233.508H2496.58Z" fill="#0D1846"/>
<path d="M2172.04 136.994L2169.21 131.989L2205 131.989L2205 136.994L2172.04 136.994ZM2196.09 97.0039L2196.09 103.645L2205.76 103.645L2205.76 108.649L2196.09 108.649L2196.09 126.203L2191.89 126.203L2169.99 106.647L2169.99 103.645L2191.65 103.645L2191.65 97.0039L2196.09 97.0039ZM2191.65 108.649L2178.24 108.649L2191.65 120.49L2191.65 108.649ZM2172.04 90.6563L2169.21 85.6514L2205 85.6514L2205 90.6563L2172.04 90.6563ZM2169.26 65.168C2169.26 63.8496 2169.45 62.5719 2169.84 61.335C2170.22 60.0817 2170.84 58.8773 2171.72 57.7217C2172.6 56.5498 2173.68 55.5326 2174.97 54.6699C2176.26 53.8073 2177.88 53.1156 2179.85 52.5947C2181.81 52.0739 2183.99 51.8135 2186.4 51.8135C2189.39 51.8135 2192.11 52.2367 2194.55 53.083C2196.98 53.9131 2199.01 55.085 2200.65 56.5986C2202.28 58.096 2203.54 59.8864 2204.44 61.9697C2205.32 64.0531 2205.76 66.3317 2205.76 68.8057C2205.76 69.3916 2205.68 70.1322 2205.54 71.0273C2205.41 71.9225 2205.23 72.6712 2205 73.2734L2199.75 74.0547C2200.55 72.1504 2200.95 70.0996 2200.95 67.9023C2200.95 66.5189 2200.71 65.1924 2200.24 63.9229C2199.75 62.6533 2199.03 61.4733 2198.09 60.3828C2197.15 59.2923 2195.87 58.4053 2194.26 57.7217C2192.63 57.0218 2190.77 56.623 2188.69 56.5254C2190.48 57.5182 2191.79 58.8203 2192.62 60.4316C2193.44 62.0267 2193.84 63.7845 2193.84 65.7051C2193.84 67.821 2193.37 69.7822 2192.43 71.5889C2191.48 73.3955 2190.12 74.8604 2188.35 75.9834C2186.56 77.1064 2184.54 77.668 2182.29 77.668C2178.49 77.668 2175.36 76.5042 2172.92 74.1768C2170.48 71.8493 2169.26 68.8464 2169.26 65.168ZM2189.25 65.0703C2189.25 62.9544 2188.54 61.2129 2187.1 59.8457C2185.67 58.4622 2183.84 57.7705 2181.61 57.7705C2179.45 57.7705 2177.63 58.5029 2176.17 59.9678C2174.69 61.4163 2173.95 63.1172 2173.95 65.0703C2173.95 67.2839 2174.67 69.1068 2176.12 70.5391C2177.55 71.9551 2179.38 72.6631 2181.61 72.6631C2183.96 72.6631 2185.82 71.9795 2187.2 70.6123C2188.57 69.2451 2189.25 67.3978 2189.25 65.0703Z" fill="#0D1846"/>
<path d="M1954.01 76.041L1959.01 73.209V109H1954.01V76.041ZM1994 100.089H1987.36V109.757H1982.35V100.089H1964.8V95.8896L1984.35 73.9902H1987.36V95.6455H1994V100.089ZM1982.35 95.6455V82.2422L1970.51 95.6455H1982.35ZM2000.34 76.041L2005.35 73.209V109H2000.34V76.041ZM2025.83 73.2578C2027.15 73.2578 2028.43 73.4531 2029.67 73.8437C2030.92 74.2181 2032.12 74.8447 2033.28 75.7236C2034.45 76.6025 2035.47 77.6849 2036.33 78.9707C2037.19 80.2565 2037.88 81.8841 2038.41 83.8535C2038.93 85.8066 2039.19 87.9876 2039.19 90.3965C2039.19 93.3913 2038.76 96.1094 2037.92 98.5508C2037.09 100.976 2035.92 103.01 2034.4 104.654C2032.9 106.282 2031.11 107.543 2029.03 108.438C2026.95 109.317 2024.67 109.757 2022.19 109.757C2021.61 109.757 2020.87 109.684 2019.97 109.537C2019.08 109.407 2018.33 109.228 2017.73 109L2016.95 103.751C2018.85 104.549 2020.9 104.947 2023.1 104.947C2024.48 104.947 2025.81 104.711 2027.08 104.239C2028.35 103.751 2029.53 103.035 2030.62 102.091C2031.71 101.147 2032.59 99.8691 2033.28 98.2578C2033.98 96.6302 2034.38 94.7747 2034.47 92.6914C2033.48 94.4818 2032.18 95.792 2030.57 96.6221C2028.97 97.4359 2027.22 97.8428 2025.29 97.8428C2023.18 97.8428 2021.22 97.3708 2019.41 96.4268C2017.6 95.4827 2016.14 94.1237 2015.02 92.3496C2013.89 90.5592 2013.33 88.541 2013.33 86.2949C2013.33 82.4863 2014.5 79.3613 2016.82 76.9199C2019.15 74.4785 2022.15 73.2578 2025.83 73.2578ZM2025.93 93.2529C2028.05 93.2529 2029.79 92.5368 2031.15 91.1045C2032.54 89.6722 2033.23 87.8411 2033.23 85.6113C2033.23 83.4466 2032.5 81.6318 2031.03 80.167C2029.58 78.6859 2027.88 77.9453 2025.93 77.9453C2023.72 77.9453 2021.89 78.6696 2020.46 80.1182C2019.04 81.5505 2018.34 83.3815 2018.34 85.6113C2018.34 87.9551 2019.02 89.8187 2020.39 91.2021C2021.75 92.5693 2023.6 93.2529 2025.93 93.2529Z" fill="#0D1846"/>
<path d="M1798.04 138.994L1795.21 133.989L1831 133.989L1831 138.994L1798.04 138.994ZM1822.09 99.0039L1822.09 105.645L1831.76 105.645L1831.76 110.649L1822.09 110.649L1822.09 128.203L1817.89 128.203L1795.99 108.647L1795.99 105.645L1817.65 105.645L1817.65 99.0039L1822.09 99.0039ZM1817.65 110.649L1804.24 110.649L1817.65 122.49L1817.65 110.649ZM1798.04 92.6563L1795.21 87.6514L1831 87.6514L1831 92.6563L1798.04 92.6563ZM1807.34 68.0713C1807.34 66.639 1807.58 65.2718 1808.05 63.9697C1808.52 62.6676 1809.21 61.4876 1810.13 60.4297C1811.04 59.3717 1812.24 58.5335 1813.74 57.915C1815.24 57.2803 1816.92 56.9629 1818.79 56.9629C1821.22 56.9629 1823.42 57.5244 1825.41 58.6475C1827.38 59.7705 1828.93 61.3411 1830.07 63.3594C1831.2 65.3776 1831.76 67.6481 1831.76 70.1709C1831.76 74.6631 1830.19 78.374 1827.04 81.3037L1821.89 79.8633C1825.39 77.015 1827.14 73.7842 1827.14 70.1709C1827.14 67.7132 1826.35 65.7357 1824.77 64.2383C1823.2 62.7246 1821.2 61.9678 1818.79 61.9678C1816.64 61.9678 1814.94 62.6839 1813.69 64.1162C1812.44 65.5485 1811.81 67.2168 1811.81 69.1211C1811.81 70.3743 1812.1 71.5544 1812.69 72.6611C1813.26 73.7516 1814.1 74.6224 1815.2 75.2734L1813.59 79.0576L1795.99 77.5195L1795.99 58.4521L1800.51 58.4521L1800.51 73.5156L1809.49 74.3701C1808.06 72.4821 1807.34 70.3825 1807.34 68.0713Z" fill="#0D1846"/>
<path d="M1722.04 139.994L1719.21 134.989L1755 134.989L1755 139.994L1722.04 139.994ZM1746.09 100.004L1746.09 106.645L1755.76 106.645L1755.76 111.649L1746.09 111.649L1746.09 129.203L1741.89 129.203L1719.99 109.647L1719.99 106.645L1741.65 106.645L1741.65 100.004L1746.09 100.004ZM1741.65 111.649L1728.24 111.649L1741.65 123.49L1741.65 111.649ZM1722.04 93.6563L1719.21 88.6514L1755 88.6514L1755 93.6563L1722.04 93.6563ZM1733.76 67.0693C1733.76 64.1722 1734.68 61.7471 1736.52 59.7939C1738.34 57.8408 1740.82 56.8643 1743.94 56.8643C1747.24 56.8643 1750.04 58.1501 1752.34 60.7217C1754.62 63.277 1755.76 66.4427 1755.76 70.2188C1755.76 72.4811 1755.37 74.6133 1754.58 76.6152C1753.8 78.6172 1752.67 80.3506 1751.19 81.8154L1745.89 80.4727C1749.3 77.4779 1751.04 74.0599 1751.14 70.2188C1751.14 67.7936 1750.49 65.8079 1749.19 64.2617C1747.87 62.6992 1746.12 61.918 1743.94 61.918C1741.91 61.918 1740.32 62.5527 1739.18 63.8223C1738.02 65.0918 1737.45 66.7357 1737.45 68.7539C1737.45 70.3164 1737.89 71.9196 1738.79 73.5635L1735.54 75.9561L1724.51 64.5059L1724.51 80.2041L1719.99 80.2041L1719.99 58.3535L1723.9 58.3535L1733.86 68.5098C1733.79 68.1842 1733.76 67.7041 1733.76 67.0693Z" fill="#0D1846"/>
<path d="M1207.01 76.041L1212.01 73.209V109H1207.01V76.041ZM1247 100.089H1240.36V109.757H1235.35V100.089H1217.8V95.8896L1237.35 73.9902H1240.36V95.6455H1247V100.089ZM1235.35 95.6455V82.2422L1223.51 95.6455H1235.35ZM1272.53 107.462C1270.35 108.992 1267.85 109.757 1265.04 109.757C1262.22 109.757 1259.72 108.992 1257.52 107.462C1255.32 105.916 1253.61 103.759 1252.39 100.992C1251.19 98.2253 1250.58 95.0596 1250.58 91.4951C1250.58 87.9469 1251.19 84.7894 1252.39 82.0225C1253.61 79.2393 1255.32 77.0827 1257.52 75.5527C1259.72 74.0228 1262.22 73.2578 1265.04 73.2578C1267.85 73.2578 1270.35 74.0228 1272.53 75.5527C1274.73 77.0827 1276.43 79.2311 1277.64 81.998C1278.84 84.765 1279.44 87.9307 1279.44 91.4951C1279.44 95.0596 1278.84 98.2253 1277.64 100.992C1276.43 103.759 1274.73 105.916 1272.53 107.462ZM1258.2 101.334C1259.96 103.808 1262.24 105.045 1265.04 105.045C1267.84 105.045 1270.1 103.816 1271.83 101.358C1273.57 98.8844 1274.44 95.5967 1274.44 91.4951C1274.44 87.3936 1273.57 84.1139 1271.83 81.6562C1270.1 79.1823 1267.84 77.9453 1265.04 77.9453C1262.24 77.9453 1259.96 79.1823 1258.2 81.6562C1256.46 84.1302 1255.59 87.4098 1255.59 91.4951C1255.59 95.5804 1256.46 98.86 1258.2 101.334ZM1297.44 73.2578C1298.75 73.2578 1300.03 73.4531 1301.27 73.8437C1302.52 74.2181 1303.73 74.8447 1304.88 75.7236C1306.05 76.6025 1307.07 77.6849 1307.93 78.9707C1308.8 80.2565 1309.49 81.8841 1310.01 83.8535C1310.53 85.8066 1310.79 87.9876 1310.79 90.3965C1310.79 93.3913 1310.37 96.1094 1309.52 98.5508C1308.69 100.976 1307.52 103.01 1306 104.654C1304.51 106.282 1302.72 107.543 1300.63 108.438C1298.55 109.317 1296.27 109.757 1293.8 109.757C1293.21 109.757 1292.47 109.684 1291.58 109.537C1290.68 109.407 1289.93 109.228 1289.33 109L1288.55 103.751C1290.45 104.549 1292.5 104.947 1294.7 104.947C1296.08 104.947 1297.41 104.711 1298.68 104.239C1299.95 103.751 1301.13 103.035 1302.22 102.091C1303.31 101.147 1304.2 99.8691 1304.88 98.2578C1305.58 96.6302 1305.98 94.7747 1306.08 92.6914C1305.09 94.4818 1303.78 95.792 1302.17 96.6221C1300.58 97.4359 1298.82 97.8428 1296.9 97.8428C1294.78 97.8428 1292.82 97.3708 1291.01 96.4268C1289.21 95.4827 1287.74 94.1237 1286.62 92.3496C1285.5 90.5592 1284.94 88.541 1284.94 86.2949C1284.94 82.4863 1286.1 79.3613 1288.43 76.9199C1290.75 74.4785 1293.76 73.2578 1297.44 73.2578ZM1297.53 93.2529C1299.65 93.2529 1301.39 92.5368 1302.76 91.1045C1304.14 89.6722 1304.83 87.8411 1304.83 85.6113C1304.83 83.4466 1304.1 81.6318 1302.64 80.167C1301.19 78.6859 1299.49 77.9453 1297.53 77.9453C1295.32 77.9453 1293.5 78.6696 1292.06 80.1182C1290.65 81.5505 1289.94 83.3815 1289.94 85.6113C1289.94 87.9551 1290.62 89.8187 1291.99 91.2021C1293.36 92.5693 1295.21 93.2529 1297.53 93.2529Z" fill="#0D1846"/>
<path d="M933.006 76.041L938.011 73.209V109H933.006V76.041ZM972.996 100.089H966.355V109.757H961.351V100.089H943.797V95.8896L963.353 73.9902H966.355V95.6455H972.996V100.089ZM961.351 95.6455V82.2422L949.51 95.6455H961.351ZM998.533 107.462C996.352 108.992 993.854 109.757 991.038 109.757C988.222 109.757 985.716 108.992 983.519 107.462C981.321 105.916 979.612 103.759 978.392 100.992C977.187 98.2253 976.585 95.0596 976.585 91.4951C976.585 87.9469 977.187 84.7894 978.392 82.0225C979.612 79.2393 981.321 77.0827 983.519 75.5527C985.716 74.0228 988.222 73.2578 991.038 73.2578C993.854 73.2578 996.352 74.0228 998.533 75.5527C1000.73 77.0827 1002.43 79.2311 1003.64 81.998C1004.84 84.765 1005.44 87.9307 1005.44 91.4951C1005.44 95.0596 1004.84 98.2253 1003.64 100.992C1002.43 103.759 1000.73 105.916 998.533 107.462ZM984.202 101.334C985.96 103.808 988.239 105.045 991.038 105.045C993.838 105.045 996.1 103.816 997.825 101.358C999.567 98.8844 1000.44 95.5967 1000.44 91.4951C1000.44 87.3936 999.567 84.1139 997.825 81.6562C996.1 79.1823 993.838 77.9453 991.038 77.9453C988.239 77.9453 985.96 79.1823 984.202 81.6562C982.461 84.1302 981.59 87.4098 981.59 91.4951C981.59 95.5804 982.461 98.86 984.202 101.334ZM1023.44 73.2578C1024.75 73.2578 1026.03 73.4531 1027.27 73.8437C1028.52 74.2181 1029.73 74.8447 1030.88 75.7236C1032.05 76.6025 1033.07 77.6849 1033.93 78.9707C1034.8 80.2565 1035.49 81.8841 1036.01 83.8535C1036.53 85.8066 1036.79 87.9876 1036.79 90.3965C1036.79 93.3913 1036.37 96.1094 1035.52 98.5508C1034.69 100.976 1033.52 103.01 1032 104.654C1030.51 106.282 1028.72 107.543 1026.63 108.438C1024.55 109.317 1022.27 109.757 1019.8 109.757C1019.21 109.757 1018.47 109.684 1017.58 109.537C1016.68 109.407 1015.93 109.228 1015.33 109L1014.55 103.751C1016.45 104.549 1018.5 104.947 1020.7 104.947C1022.08 104.947 1023.41 104.711 1024.68 104.239C1025.95 103.751 1027.13 103.035 1028.22 102.091C1029.31 101.147 1030.2 99.8691 1030.88 98.2578C1031.58 96.6302 1031.98 94.7747 1032.08 92.6914C1031.09 94.4818 1029.78 95.792 1028.17 96.6221C1026.58 97.4359 1024.82 97.8428 1022.9 97.8428C1020.78 97.8428 1018.82 97.3708 1017.01 96.4268C1015.21 95.4827 1013.74 94.1237 1012.62 92.3496C1011.5 90.5592 1010.94 88.541 1010.94 86.2949C1010.94 82.4863 1012.1 79.3613 1014.43 76.9199C1016.75 74.4785 1019.76 73.2578 1023.44 73.2578ZM1023.53 93.2529C1025.65 93.2529 1027.39 92.5368 1028.76 91.1045C1030.14 89.6722 1030.83 87.8411 1030.83 85.6113C1030.83 83.4466 1030.1 81.6318 1028.64 80.167C1027.19 78.6859 1025.49 77.9453 1023.53 77.9453C1021.32 77.9453 1019.5 78.6696 1018.06 80.1182C1016.65 81.5505 1015.94 83.3815 1015.94 85.6113C1015.94 87.9551 1016.62 89.8187 1017.99 91.2021C1019.36 92.5693 1021.21 93.2529 1023.53 93.2529ZM1054.08 83.2432C1057.41 83.2432 1059.95 84.0895 1061.69 85.7822C1063.45 87.4749 1064.33 89.9001 1064.33 93.0576V109H1059.84V106.095C1058.83 107.185 1057.4 108.072 1055.56 108.756C1053.73 109.423 1051.98 109.757 1050.34 109.757C1048.08 109.757 1046.2 109.195 1044.7 108.072C1043.22 106.949 1042.48 105.305 1042.48 103.141C1042.48 102.001 1042.72 100.992 1043.21 100.113C1043.7 99.2344 1044.4 98.5101 1045.31 97.9404C1046.24 97.3545 1047.23 96.8825 1048.29 96.5244C1049.35 96.1501 1050.58 95.8245 1051.98 95.5479C1055.2 94.8805 1057.16 94.4167 1057.86 94.1562C1058.9 93.7819 1059.54 93.2367 1059.79 92.5205C1059.89 92.2113 1059.93 91.8206 1059.93 91.3486C1059.93 90.1442 1059.42 89.1758 1058.4 88.4434C1057.37 87.7109 1055.91 87.3447 1054.03 87.3447C1052.07 87.3447 1050.2 87.8818 1048.41 88.9561C1046.64 90.0303 1045.31 91.5114 1044.43 93.3994L1041.53 89.8594C1042.97 87.7923 1044.8 86.1729 1047 85.001C1049.19 83.8291 1051.55 83.2432 1054.08 83.2432ZM1050.93 105.753C1052.39 105.753 1053.81 105.468 1055.2 104.898C1056.6 104.329 1057.75 103.531 1058.64 102.506C1059.54 101.48 1059.98 100.382 1059.98 99.21V96.7441C1058.67 97.5417 1056.55 98.2578 1053.64 98.8926C1052.81 99.0716 1052.16 99.2181 1051.71 99.332C1051.25 99.4297 1050.72 99.568 1050.12 99.7471C1049.53 99.9098 1049.09 100.081 1048.78 100.26C1048.47 100.423 1048.15 100.634 1047.83 100.895C1047.52 101.139 1047.3 101.415 1047.17 101.725C1047.05 102.034 1047 102.392 1047 102.799C1047 103.775 1047.3 104.516 1047.9 105.021C1048.52 105.509 1049.53 105.753 1050.93 105.753Z" fill="#0D1846"/>
<path d="M1498.01 76.041L1503.01 73.209V109H1498.01V76.041ZM1538 100.089H1531.36V109.757H1526.35V100.089H1508.8V95.8896L1528.35 73.9902H1531.36V95.6455H1538V100.089ZM1526.35 95.6455V82.2422L1514.51 95.6455H1526.35ZM1544.34 76.041L1549.35 73.209V109H1544.34V76.041ZM1561.09 76.041L1566.1 73.209V109H1561.09V76.041Z" fill="#0D1846"/>
<path d="M1651.01 325.041L1656.01 322.209V358H1651.01V325.041ZM1691 349.089H1684.36V358.757H1679.35V349.089H1661.8V344.89L1681.35 322.99H1684.36V344.646H1691V349.089ZM1679.35 344.646V331.242L1667.51 344.646H1679.35ZM1697.34 325.041L1702.35 322.209V358H1697.34V325.041ZM1737.33 349.089H1730.69V358.757H1725.69V349.089H1708.13V344.89L1727.69 322.99H1730.69V344.646H1737.33V349.089ZM1725.69 344.646V331.242L1713.85 344.646H1725.69Z" fill="#0D1846"/>
<path d="M1454.01 325.041L1459.01 322.209V358H1454.01V325.041ZM1494 349.089H1487.36V358.757H1482.35V349.089H1464.8V344.89L1484.35 322.99H1487.36V344.646H1494V349.089ZM1482.35 344.646V331.242L1470.51 344.646H1482.35ZM1500.34 325.041L1505.35 322.209V358H1500.34V325.041ZM1535.74 353.508V358H1512.48V354.46L1516.77 350.847C1518.35 349.528 1519.72 348.348 1520.88 347.307C1522.03 346.265 1523.27 345.069 1524.59 343.718C1525.91 342.367 1526.97 341.122 1527.79 339.982C1528.62 338.827 1529.3 337.614 1529.84 336.345C1530.37 335.075 1530.63 333.879 1530.59 332.756C1530.54 330.884 1529.91 329.403 1528.69 328.312C1527.48 327.206 1525.85 326.652 1523.78 326.652C1521.4 326.652 1519.61 327.36 1518.41 328.776C1517.22 330.176 1516.63 332.032 1516.63 334.343C1516.63 334.701 1516.66 335.254 1516.73 336.003L1512.18 333.903V333.708C1512.18 330.257 1513.29 327.491 1515.5 325.407C1517.72 323.308 1520.63 322.258 1524.25 322.258C1526.33 322.258 1528.18 322.64 1529.81 323.405C1531.46 324.17 1532.77 325.35 1533.77 326.945C1534.78 328.54 1535.28 330.445 1535.28 332.658C1535.28 333.716 1535.13 334.79 1534.82 335.881C1534.51 336.955 1534.12 337.956 1533.67 338.884C1533.21 339.812 1532.56 340.821 1531.72 341.911C1530.87 343.002 1530.07 343.962 1529.32 344.792C1528.59 345.606 1527.61 346.582 1526.37 347.722C1525.15 348.861 1524.1 349.813 1523.22 350.578C1522.36 351.327 1521.21 352.303 1519.78 353.508H1535.74Z" fill="#0D1846"/>
<path d="M1228.01 325.041L1233.01 322.209V358H1228.01V325.041ZM1268 349.089H1261.36V358.757H1256.35V349.089H1238.8V344.89L1258.35 322.99H1261.36V344.646H1268V349.089ZM1256.35 344.646V331.242L1244.51 344.646H1256.35ZM1274.34 325.041L1279.35 322.209V358H1274.34V325.041ZM1310.28 356.462C1308.1 357.992 1305.6 358.757 1302.79 358.757C1299.97 358.757 1297.46 357.992 1295.27 356.462C1293.07 354.916 1291.36 352.759 1290.14 349.992C1288.94 347.225 1288.33 344.06 1288.33 340.495C1288.33 336.947 1288.94 333.789 1290.14 331.022C1291.36 328.239 1293.07 326.083 1295.27 324.553C1297.46 323.023 1299.97 322.258 1302.79 322.258C1305.6 322.258 1308.1 323.023 1310.28 324.553C1312.48 326.083 1314.18 328.231 1315.38 330.998C1316.59 333.765 1317.19 336.931 1317.19 340.495C1317.19 344.06 1316.59 347.225 1315.38 349.992C1314.18 352.759 1312.48 354.916 1310.28 356.462ZM1295.95 350.334C1297.71 352.808 1299.99 354.045 1302.79 354.045C1305.59 354.045 1307.85 352.816 1309.57 350.358C1311.31 347.884 1312.19 344.597 1312.19 340.495C1312.19 336.394 1311.31 333.114 1309.57 330.656C1307.85 328.182 1305.59 326.945 1302.79 326.945C1299.99 326.945 1297.71 328.182 1295.95 330.656C1294.21 333.13 1293.34 336.41 1293.34 340.495C1293.34 344.58 1294.21 347.86 1295.95 350.334Z" fill="#0D1846"/>
<path d="M1002.01 325.041L1007.01 322.209V358H1002.01V325.041ZM1042 349.089H1035.36V358.757H1030.35V349.089H1012.8V344.89L1032.35 322.99H1035.36V344.646H1042V349.089ZM1030.35 344.646V331.242L1018.51 344.646H1030.35ZM1067.53 356.462C1065.35 357.992 1062.85 358.757 1060.04 358.757C1057.22 358.757 1054.72 357.992 1052.52 356.462C1050.32 354.916 1048.61 352.759 1047.39 349.992C1046.19 347.225 1045.58 344.06 1045.58 340.495C1045.58 336.947 1046.19 333.789 1047.39 331.022C1048.61 328.239 1050.32 326.083 1052.52 324.553C1054.72 323.023 1057.22 322.258 1060.04 322.258C1062.85 322.258 1065.35 323.023 1067.53 324.553C1069.73 326.083 1071.43 328.231 1072.64 330.998C1073.84 333.765 1074.44 336.931 1074.44 340.495C1074.44 344.06 1073.84 347.225 1072.64 349.992C1071.43 352.759 1069.73 354.916 1067.53 356.462ZM1053.2 350.334C1054.96 352.808 1057.24 354.045 1060.04 354.045C1062.84 354.045 1065.1 352.816 1066.83 350.358C1068.57 347.884 1069.44 344.597 1069.44 340.495C1069.44 336.394 1068.57 333.114 1066.83 330.656C1065.1 328.182 1062.84 326.945 1060.04 326.945C1057.24 326.945 1054.96 328.182 1053.2 330.656C1051.46 333.13 1050.59 336.41 1050.59 340.495C1050.59 344.58 1051.46 347.86 1053.2 350.334ZM1099.34 340.202C1100.99 341.032 1102.27 342.163 1103.2 343.596C1104.13 345.012 1104.59 346.566 1104.59 348.259C1104.59 351.351 1103.45 353.874 1101.15 355.827C1098.86 357.78 1095.92 358.757 1092.34 358.757C1088.76 358.757 1085.82 357.78 1083.52 355.827C1081.23 353.874 1080.08 351.351 1080.08 348.259C1080.08 346.566 1080.55 345.012 1081.47 343.596C1082.4 342.163 1083.69 341.032 1085.33 340.202C1083.8 339.372 1082.61 338.282 1081.77 336.931C1080.92 335.58 1080.5 334.107 1080.5 332.512C1080.5 329.501 1081.6 327.043 1083.82 325.139C1086.03 323.218 1088.87 322.258 1092.34 322.258C1095.8 322.258 1098.64 323.218 1100.86 325.139C1103.07 327.043 1104.18 329.501 1104.18 332.512C1104.18 334.107 1103.76 335.58 1102.91 336.931C1102.06 338.282 1100.87 339.372 1099.34 340.202ZM1097.54 328.215C1096.24 327.141 1094.5 326.604 1092.34 326.604C1090.17 326.604 1088.44 327.141 1087.14 328.215C1085.84 329.289 1085.18 330.721 1085.18 332.512C1085.18 334.221 1085.88 335.604 1087.26 336.662C1088.64 337.72 1090.34 338.249 1092.34 338.249C1094.34 338.249 1096.03 337.72 1097.42 336.662C1098.8 335.604 1099.49 334.221 1099.49 332.512C1099.49 330.721 1098.84 329.289 1097.54 328.215ZM1086.84 352.751C1088.21 353.858 1090.04 354.411 1092.34 354.411C1094.63 354.411 1096.46 353.858 1097.83 352.751C1099.2 351.628 1099.88 350.131 1099.88 348.259C1099.88 346.452 1099.17 345.004 1097.76 343.913C1096.34 342.806 1094.54 342.253 1092.34 342.253C1090.14 342.253 1088.33 342.806 1086.92 343.913C1085.5 345.004 1084.79 346.452 1084.79 348.259C1084.79 350.131 1085.48 351.628 1086.84 352.751Z" fill="#0D1846"/>
<path d="M664.006 76.041L669.011 73.209V109H664.006V76.041ZM703.996 100.089H697.355V109.757H692.351V100.089H674.797V95.8896L694.353 73.9902H697.355V95.6455H703.996V100.089ZM692.351 95.6455V82.2422L680.51 95.6455H692.351ZM710.344 76.041L715.349 73.209V109H710.344V76.041ZM745.524 73.9902V78.1895L730.192 109H724.992L740.495 78.5068H721.989V73.9902H745.524Z" fill="#0D1846"/>
<path d="M433.006 76.041L438.011 73.209V109H433.006V76.041ZM472.996 100.089H466.355V109.757H461.351V100.089H443.797V95.8896L463.353 73.9902H466.355V95.6455H472.996V100.089ZM461.351 95.6455V82.2422L449.51 95.6455H461.351ZM498.533 107.462C496.352 108.992 493.854 109.757 491.038 109.757C488.222 109.757 485.716 108.992 483.519 107.462C481.321 105.916 479.612 103.759 478.392 100.992C477.187 98.2253 476.585 95.0596 476.585 91.4951C476.585 87.9469 477.187 84.7894 478.392 82.0225C479.612 79.2393 481.321 77.0827 483.519 75.5527C485.716 74.0228 488.222 73.2578 491.038 73.2578C493.854 73.2578 496.352 74.0228 498.533 75.5527C500.73 77.0827 502.431 79.2311 503.636 81.998C504.84 84.765 505.442 87.9307 505.442 91.4951C505.442 95.0596 504.84 98.2253 503.636 100.992C502.431 103.759 500.73 105.916 498.533 107.462ZM484.202 101.334C485.96 103.808 488.239 105.045 491.038 105.045C493.838 105.045 496.1 103.816 497.825 101.358C499.567 98.8844 500.438 95.5967 500.438 91.4951C500.438 87.3936 499.567 84.1139 497.825 81.6562C496.1 79.1823 493.838 77.9453 491.038 77.9453C488.239 77.9453 485.96 79.1823 484.202 81.6562C482.461 84.1302 481.59 87.4098 481.59 91.4951C481.59 95.5804 482.461 98.86 484.202 101.334ZM522.532 85.3428C523.965 85.3428 525.332 85.5788 526.634 86.0508C527.936 86.5228 529.116 87.2145 530.174 88.126C531.232 89.0374 532.07 90.2419 532.688 91.7393C533.323 93.2367 533.641 94.9212 533.641 96.793C533.641 99.2181 533.079 101.424 531.956 103.409C530.833 105.379 529.262 106.933 527.244 108.072C525.226 109.195 522.955 109.757 520.433 109.757C515.94 109.757 512.229 108.186 509.3 105.045L510.74 99.8936C513.589 103.393 516.819 105.143 520.433 105.143C522.89 105.143 524.868 104.353 526.365 102.774C527.879 101.196 528.636 99.2018 528.636 96.793C528.636 94.6445 527.92 92.9437 526.487 91.6904C525.055 90.4372 523.387 89.8105 521.482 89.8105C520.229 89.8105 519.049 90.1035 517.942 90.6895C516.852 91.2591 515.981 92.0973 515.33 93.2041L511.546 91.5928L513.084 73.9902H532.151V78.5068H517.088L516.233 87.4912C518.121 86.0589 520.221 85.3428 522.532 85.3428Z" fill="#0D1846"/>
<path d="M242.006 76.041L247.011 73.209V109H242.006V76.041ZM281.996 100.089H275.355V109.757H270.351V100.089H252.797V95.8896L272.353 73.9902H275.355V95.6455H281.996V100.089ZM270.351 95.6455V82.2422L258.51 95.6455H270.351ZM307.533 107.462C305.352 108.992 302.854 109.757 300.038 109.757C297.222 109.757 294.716 108.992 292.519 107.462C290.321 105.916 288.612 103.759 287.392 100.992C286.187 98.2253 285.585 95.0596 285.585 91.4951C285.585 87.9469 286.187 84.7894 287.392 82.0225C288.612 79.2393 290.321 77.0827 292.519 75.5527C294.716 74.0228 297.222 73.2578 300.038 73.2578C302.854 73.2578 305.352 74.0228 307.533 75.5527C309.73 77.0827 311.431 79.2311 312.636 81.998C313.84 84.765 314.442 87.9307 314.442 91.4951C314.442 95.0596 313.84 98.2253 312.636 100.992C311.431 103.759 309.73 105.916 307.533 107.462ZM293.202 101.334C294.96 103.808 297.239 105.045 300.038 105.045C302.838 105.045 305.1 103.816 306.825 101.358C308.567 98.8844 309.438 95.5967 309.438 91.4951C309.438 87.3936 308.567 84.1139 306.825 81.6562C305.1 79.1823 302.838 77.9453 300.038 77.9453C297.239 77.9453 294.96 79.1823 293.202 81.6562C291.461 84.1302 290.59 87.4098 290.59 91.4951C290.59 95.5804 291.461 98.86 293.202 101.334ZM332.509 87.7598C335.406 87.7598 337.831 88.6794 339.784 90.5186C341.737 92.3415 342.714 94.8154 342.714 97.9404C342.714 101.244 341.428 104.044 338.856 106.339C336.301 108.618 333.135 109.757 329.359 109.757C327.097 109.757 324.965 109.366 322.963 108.585C320.961 107.804 319.228 106.673 317.763 105.191L319.105 99.8936C322.1 103.295 325.518 105.045 329.359 105.143C331.785 105.143 333.77 104.492 335.316 103.189C336.879 101.871 337.66 100.121 337.66 97.9404C337.66 95.9059 337.025 94.319 335.756 93.1797C334.486 92.0241 332.842 91.4463 330.824 91.4463C329.262 91.4463 327.659 91.8939 326.015 92.7891L323.622 89.542L335.072 78.5068H319.374V73.9902H341.225V77.8965L331.068 87.8574C331.394 87.7923 331.874 87.7598 332.509 87.7598Z" fill="#0D1846"/>
<path d="M606.041 397.994L603.209 392.989L639 392.989L639 397.994L606.041 397.994ZM630.089 358.004L630.089 364.645L639.757 364.645L639.757 369.649L630.089 369.649L630.089 387.203L625.89 387.203L603.99 367.647L603.99 364.645L625.646 364.645L625.646 358.004L630.089 358.004ZM625.646 369.649L612.242 369.649L625.646 381.49L625.646 369.649ZM637.462 332.467C638.992 334.648 639.757 337.146 639.757 339.962C639.757 342.778 638.992 345.284 637.462 347.481C635.916 349.679 633.759 351.388 630.992 352.608C628.225 353.813 625.06 354.415 621.495 354.415C617.947 354.415 614.789 353.813 612.022 352.608C609.239 351.388 607.083 349.679 605.553 347.481C604.023 345.284 603.258 342.778 603.258 339.962C603.258 337.146 604.023 334.648 605.553 332.467C607.083 330.27 609.231 328.569 611.998 327.364C614.765 326.16 617.931 325.558 621.495 325.558C625.06 325.558 628.225 326.16 630.992 327.364C633.759 328.569 635.916 330.27 637.462 332.467ZM631.334 346.798C633.808 345.04 635.045 342.761 635.045 339.962C635.045 337.162 633.816 334.9 631.358 333.175C628.884 331.433 625.597 330.563 621.495 330.563C617.394 330.563 614.114 331.433 611.656 333.175C609.182 334.9 607.945 337.162 607.945 339.962C607.945 342.761 609.182 345.04 611.656 346.798C614.13 348.539 617.41 349.41 621.495 349.41C625.58 349.41 628.86 348.539 631.334 346.798ZM630.089 293.063L630.089 299.703L639.757 299.703L639.757 304.708L630.089 304.708L630.089 322.262L625.89 322.262L603.99 302.706L603.99 299.703L625.646 299.703L625.646 293.063L630.089 293.063ZM625.646 304.708L612.242 304.708L625.646 316.549L625.646 304.708Z" fill="#0D1846"/>
<path d="M689.041 410.994L686.209 405.989L722 405.989L722 410.994L689.041 410.994ZM713.089 371.004L713.089 377.645L722.757 377.645L722.757 382.649L713.089 382.649L713.089 400.203L708.89 400.203L686.99 380.647L686.99 377.645L708.646 377.645L708.646 371.004L713.089 371.004ZM708.646 382.649L695.242 382.649L708.646 394.49L708.646 382.649ZM720.462 345.467C721.992 347.648 722.757 350.146 722.757 352.962C722.757 355.778 721.992 358.284 720.462 360.481C718.916 362.679 716.759 364.388 713.992 365.608C711.225 366.813 708.06 367.415 704.495 367.415C700.947 367.415 697.789 366.813 695.022 365.608C692.239 364.388 690.083 362.679 688.553 360.481C687.023 358.284 686.258 355.778 686.258 352.962C686.258 350.146 687.023 347.648 688.553 345.467C690.083 343.27 692.231 341.569 694.998 340.364C697.765 339.16 700.931 338.558 704.495 338.558C708.06 338.558 711.225 339.16 713.992 340.364C716.759 341.569 718.916 343.27 720.462 345.467ZM714.334 359.798C716.808 358.04 718.045 355.761 718.045 352.962C718.045 350.162 716.816 347.9 714.358 346.175C711.884 344.433 708.597 343.563 704.495 343.563C700.394 343.563 697.114 344.433 694.656 346.175C692.182 347.9 690.945 350.162 690.945 352.962C690.945 355.761 692.182 358.04 694.656 359.798C697.13 361.539 700.41 362.41 704.495 362.41C708.58 362.41 711.86 361.539 714.334 359.798ZM713.089 306.063L713.089 312.703L722.757 312.703L722.757 317.708L713.089 317.708L713.089 335.262L708.89 335.262L686.99 315.706L686.99 312.703L708.646 312.703L708.646 306.063L713.089 306.063ZM708.646 317.708L695.242 317.708L708.646 329.549L708.646 317.708ZM696.243 291.683C696.243 288.346 697.09 285.807 698.782 284.065C700.475 282.308 702.9 281.429 706.058 281.429L722 281.429L722 285.921L719.095 285.921C720.185 286.93 721.072 288.354 721.756 290.193C722.423 292.033 722.757 293.774 722.757 295.418C722.757 297.68 722.195 299.56 721.072 301.058C719.949 302.539 718.305 303.279 716.141 303.279C715.001 303.279 713.992 303.035 713.113 302.547C712.234 302.059 711.51 301.359 710.94 300.447C710.354 299.52 709.882 298.527 709.524 297.469C709.15 296.411 708.825 295.182 708.548 293.782C707.881 290.56 707.417 288.598 707.156 287.898C706.782 286.857 706.237 286.214 705.521 285.97C705.211 285.872 704.821 285.823 704.349 285.823C703.144 285.823 702.176 286.336 701.443 287.361C700.711 288.387 700.345 289.843 700.345 291.731C700.345 293.685 700.882 295.556 701.956 297.347C703.03 299.121 704.511 300.447 706.399 301.326L702.859 304.231C700.792 302.783 699.173 300.96 698.001 298.763C696.829 296.565 696.243 294.205 696.243 291.683ZM718.753 294.832C718.753 293.367 718.468 291.943 717.898 290.56C717.329 289.16 716.531 288.012 715.506 287.117C714.48 286.222 713.382 285.774 712.21 285.774L709.744 285.774C710.542 287.093 711.258 289.209 711.893 292.122C712.072 292.952 712.218 293.595 712.332 294.051C712.43 294.507 712.568 295.035 712.747 295.638C712.91 296.224 713.081 296.671 713.26 296.98C713.423 297.29 713.634 297.607 713.895 297.933C714.139 298.242 714.415 298.462 714.725 298.592C715.034 298.706 715.392 298.763 715.799 298.763C716.775 298.763 717.516 298.462 718.021 297.859C718.509 297.241 718.753 296.232 718.753 294.832Z" fill="#0D1846"/>
<path d="M133.006 325.041L138.011 322.209V358H133.006V325.041ZM172.996 349.089H166.355V358.757H161.351V349.089H143.797V344.89L163.353 322.99H166.355V344.646H172.996V349.089ZM161.351 344.646V331.242L149.51 344.646H161.351ZM198.533 356.462C196.352 357.992 193.854 358.757 191.038 358.757C188.222 358.757 185.716 357.992 183.519 356.462C181.321 354.916 179.612 352.759 178.392 349.992C177.187 347.225 176.585 344.06 176.585 340.495C176.585 336.947 177.187 333.789 178.392 331.022C179.612 328.239 181.321 326.083 183.519 324.553C185.716 323.023 188.222 322.258 191.038 322.258C193.854 322.258 196.352 323.023 198.533 324.553C200.73 326.083 202.431 328.231 203.636 330.998C204.84 333.765 205.442 336.931 205.442 340.495C205.442 344.06 204.84 347.225 203.636 349.992C202.431 352.759 200.73 354.916 198.533 356.462ZM184.202 350.334C185.96 352.808 188.239 354.045 191.038 354.045C193.838 354.045 196.1 352.816 197.825 350.358C199.567 347.884 200.438 344.597 200.438 340.495C200.438 336.394 199.567 333.114 197.825 330.656C196.1 328.182 193.838 326.945 191.038 326.945C188.239 326.945 185.96 328.182 184.202 330.656C182.461 333.13 181.59 336.41 181.59 340.495C181.59 344.58 182.461 347.86 184.202 350.334ZM233.348 353.508V358H210.081V354.46L214.378 350.847C215.957 349.528 217.324 348.348 218.479 347.307C219.635 346.265 220.872 345.069 222.19 343.718C223.509 342.367 224.575 341.122 225.389 339.982C226.219 338.827 226.902 337.614 227.439 336.345C227.977 335.075 228.229 333.879 228.196 332.756C228.147 330.884 227.513 329.403 226.292 328.312C225.088 327.206 223.452 326.652 221.385 326.652C219.008 326.652 217.218 327.36 216.014 328.776C214.826 330.176 214.231 332.032 214.231 334.343C214.231 334.701 214.264 335.254 214.329 336.003L209.788 333.903V333.708C209.788 330.257 210.895 327.491 213.108 325.407C215.322 323.308 218.235 322.258 221.849 322.258C223.932 322.258 225.787 322.64 227.415 323.405C229.059 324.17 230.377 325.35 231.37 326.945C232.379 328.54 232.884 330.445 232.884 332.658C232.884 333.716 232.729 334.79 232.42 335.881C232.111 336.955 231.728 337.956 231.272 338.884C230.817 339.812 230.166 340.821 229.319 341.911C228.473 343.002 227.675 343.962 226.927 344.792C226.194 345.606 225.21 346.582 223.973 347.722C222.752 348.861 221.702 349.813 220.823 350.578C219.961 351.327 218.813 352.303 217.381 353.508H233.348ZM250.315 332.243C253.652 332.243 256.191 333.09 257.933 334.782C259.69 336.475 260.569 338.9 260.569 342.058V358H256.077V355.095C255.068 356.185 253.644 357.072 251.805 357.756C249.965 358.423 248.224 358.757 246.58 358.757C244.318 358.757 242.438 358.195 240.94 357.072C239.459 355.949 238.719 354.305 238.719 352.141C238.719 351.001 238.963 349.992 239.451 349.113C239.939 348.234 240.639 347.51 241.551 346.94C242.479 346.354 243.471 345.882 244.529 345.524C245.587 345.15 246.816 344.825 248.216 344.548C251.438 343.881 253.4 343.417 254.1 343.156C255.141 342.782 255.784 342.237 256.028 341.521C256.126 341.211 256.175 340.821 256.175 340.349C256.175 339.144 255.662 338.176 254.637 337.443C253.611 336.711 252.155 336.345 250.267 336.345C248.313 336.345 246.442 336.882 244.651 337.956C242.877 339.03 241.551 340.511 240.672 342.399L237.767 338.859C239.215 336.792 241.038 335.173 243.235 334.001C245.433 332.829 247.793 332.243 250.315 332.243ZM247.166 354.753C248.631 354.753 250.055 354.468 251.438 353.898C252.838 353.329 253.986 352.531 254.881 351.506C255.776 350.48 256.224 349.382 256.224 348.21V345.744C254.905 346.542 252.789 347.258 249.876 347.893C249.046 348.072 248.403 348.218 247.947 348.332C247.492 348.43 246.963 348.568 246.36 348.747C245.774 348.91 245.327 349.081 245.018 349.26C244.708 349.423 244.391 349.634 244.065 349.895C243.756 350.139 243.536 350.415 243.406 350.725C243.292 351.034 243.235 351.392 243.235 351.799C243.235 352.775 243.536 353.516 244.139 354.021C244.757 354.509 245.766 354.753 247.166 354.753Z" fill="#0D1846"/>
<path d="M402.006 325.041L407.011 322.209V358H402.006V325.041ZM441.996 349.089H435.355V358.757H430.351V349.089H412.797V344.89L432.353 322.99H435.355V344.646H441.996V349.089ZM430.351 344.646V331.242L418.51 344.646H430.351ZM467.533 356.462C465.352 357.992 462.854 358.757 460.038 358.757C457.222 358.757 454.716 357.992 452.519 356.462C450.321 354.916 448.612 352.759 447.392 349.992C446.187 347.225 445.585 344.06 445.585 340.495C445.585 336.947 446.187 333.789 447.392 331.022C448.612 328.239 450.321 326.083 452.519 324.553C454.716 323.023 457.222 322.258 460.038 322.258C462.854 322.258 465.352 323.023 467.533 324.553C469.73 326.083 471.431 328.231 472.636 330.998C473.84 333.765 474.442 336.931 474.442 340.495C474.442 344.06 473.84 347.225 472.636 349.992C471.431 352.759 469.73 354.916 467.533 356.462ZM453.202 350.334C454.96 352.808 457.239 354.045 460.038 354.045C462.838 354.045 465.1 352.816 466.825 350.358C468.567 347.884 469.438 344.597 469.438 340.495C469.438 336.394 468.567 333.114 466.825 330.656C465.1 328.182 462.838 326.945 460.038 326.945C457.239 326.945 454.96 328.182 453.202 330.656C451.461 333.13 450.59 336.41 450.59 340.495C450.59 344.58 451.461 347.86 453.202 350.334ZM502.348 353.508V358H479.081V354.46L483.378 350.847C484.957 349.528 486.324 348.348 487.479 347.307C488.635 346.265 489.872 345.069 491.19 343.718C492.509 342.367 493.575 341.122 494.389 339.982C495.219 338.827 495.902 337.614 496.439 336.345C496.977 335.075 497.229 333.879 497.196 332.756C497.147 330.884 496.513 329.403 495.292 328.312C494.088 327.206 492.452 326.652 490.385 326.652C488.008 326.652 486.218 327.36 485.014 328.776C483.826 330.176 483.231 332.032 483.231 334.343C483.231 334.701 483.264 335.254 483.329 336.003L478.788 333.903V333.708C478.788 330.257 479.895 327.491 482.108 325.407C484.322 323.308 487.235 322.258 490.849 322.258C492.932 322.258 494.787 322.64 496.415 323.405C498.059 324.17 499.377 325.35 500.37 326.945C501.379 328.54 501.884 330.445 501.884 332.658C501.884 333.716 501.729 334.79 501.42 335.881C501.111 336.955 500.728 337.956 500.272 338.884C499.817 339.812 499.166 340.821 498.319 341.911C497.473 343.002 496.675 343.962 495.927 344.792C495.194 345.606 494.21 346.582 492.973 347.722C491.752 348.861 490.702 349.813 489.823 350.578C488.961 351.327 487.813 352.303 486.381 353.508H502.348Z" fill="#0D1846"/>
<path d="M87.041 138.994L84.209 133.989L120 133.989L120 138.994L87.041 138.994ZM111.089 99.0039L111.089 105.645L120.757 105.645L120.757 110.649L111.089 110.649L111.089 128.203L106.89 128.203L84.9902 108.647L84.9902 105.645L106.646 105.645L106.646 99.0039L111.089 99.0039ZM106.646 110.649L93.2422 110.649L106.646 122.49L106.646 110.649ZM118.462 73.4668C119.992 75.6478 120.757 78.1462 120.757 80.9619C120.757 83.7777 119.992 86.2842 118.462 88.4814C116.916 90.6787 114.759 92.3877 111.992 93.6084C109.225 94.8128 106.06 95.415 102.495 95.415C98.9469 95.415 95.7894 94.8128 93.0225 93.6084C90.2393 92.3877 88.0827 90.6787 86.5527 88.4814C85.0228 86.2842 84.2578 83.7777 84.2578 80.9619C84.2578 78.1462 85.0228 75.6478 86.5527 73.4668C88.0827 71.2695 90.2311 69.5687 92.998 68.3643C95.765 67.1598 98.9307 66.5576 102.495 66.5576C106.06 66.5576 109.225 67.1598 111.992 68.3643C114.759 69.5687 116.916 71.2695 118.462 73.4668ZM112.334 87.7979C114.808 86.04 116.045 83.7614 116.045 80.9619C116.045 78.1624 114.816 75.9001 112.358 74.1748C109.884 72.4333 106.597 71.5625 102.495 71.5625C98.3936 71.5625 95.1139 72.4333 92.6563 74.1748C90.1823 75.9001 88.9453 78.1624 88.9453 80.9619C88.9453 83.7614 90.1823 86.04 92.6563 87.7979C95.1302 89.5394 98.4098 90.4102 102.495 90.4102C106.58 90.4102 109.86 89.5394 112.334 87.7979ZM87.041 57.3047L84.209 52.2998L120 52.2998L120 57.3047L87.041 57.3047Z" fill="#0D1846"/>
<path d="M2379.01 326.041L2384.01 323.209V359H2379.01V326.041ZM2419 350.089H2412.36V359.757H2407.35V350.089H2389.8V345.89L2409.35 323.99H2412.36V345.646H2419V350.089ZM2407.35 345.646V332.242L2395.51 345.646H2407.35ZM2425.34 326.041L2430.35 323.209V359H2425.34V326.041ZM2453.22 335.147C2455.34 335.147 2457.3 335.619 2459.11 336.563C2460.92 337.507 2462.38 338.875 2463.5 340.665C2464.63 342.439 2465.19 344.449 2465.19 346.695C2465.19 350.504 2464.02 353.637 2461.7 356.095C2459.37 358.536 2456.37 359.757 2452.69 359.757C2451.37 359.757 2450.08 359.562 2448.83 359.171C2447.59 358.797 2446.39 358.17 2445.22 357.291C2444.06 356.412 2443.05 355.33 2442.19 354.044C2441.33 352.742 2440.64 351.114 2440.11 349.161C2439.59 347.192 2439.33 345.003 2439.33 342.594C2439.33 339.615 2439.75 336.905 2440.58 334.464C2441.42 332.022 2442.6 329.988 2444.09 328.36C2445.61 326.733 2447.41 325.479 2449.49 324.601C2451.57 323.705 2453.85 323.258 2456.33 323.258C2458 323.258 2459.49 323.502 2460.79 323.99L2461.57 329.239C2459.67 328.442 2457.63 328.043 2455.45 328.043C2454.06 328.043 2452.74 328.287 2451.47 328.775C2450.2 329.247 2449.01 329.955 2447.9 330.899C2446.81 331.843 2445.92 333.129 2445.22 334.757C2444.53 336.368 2444.14 338.215 2444.04 340.299C2445.04 338.508 2446.33 337.206 2447.93 336.393C2449.54 335.562 2451.3 335.147 2453.22 335.147ZM2452.59 355.045C2454.8 355.045 2456.62 354.329 2458.03 352.896C2459.47 351.464 2460.18 349.633 2460.18 347.403C2460.18 345.06 2459.5 343.204 2458.13 341.837C2456.76 340.453 2454.92 339.762 2452.59 339.762C2450.47 339.762 2448.72 340.478 2447.34 341.91C2445.97 343.342 2445.29 345.174 2445.29 347.403C2445.29 349.568 2446.01 351.383 2447.46 352.848C2448.93 354.312 2450.64 355.045 2452.59 355.045Z" fill="#0D1846"/>
<path d="M2174.04 422.994L2171.21 417.989L2207 417.989L2207 422.994L2174.04 422.994ZM2198.09 383.004L2198.09 389.645L2207.76 389.645L2207.76 394.649L2198.09 394.649L2198.09 412.203L2193.89 412.203L2171.99 392.647L2171.99 389.645L2193.65 389.645L2193.65 383.004L2198.09 383.004ZM2193.65 394.649L2180.24 394.649L2193.65 406.49L2193.65 394.649ZM2174.04 376.656L2171.21 371.651L2207 371.651L2207 376.656L2174.04 376.656ZM2189.2 344.259C2190.03 342.615 2191.16 341.329 2192.6 340.401C2194.01 339.474 2195.57 339.01 2197.26 339.01C2200.35 339.01 2202.87 340.157 2204.83 342.452C2206.78 344.747 2207.76 347.685 2207.76 351.266C2207.76 354.846 2206.78 357.784 2204.83 360.079C2202.87 362.374 2200.35 363.521 2197.26 363.521C2195.57 363.521 2194.01 363.058 2192.6 362.13C2191.16 361.202 2190.03 359.916 2189.2 358.272C2188.37 359.802 2187.28 360.991 2185.93 361.837C2184.58 362.683 2183.11 363.106 2181.51 363.106C2178.5 363.106 2176.04 362 2174.14 359.786C2172.22 357.573 2171.26 354.732 2171.26 351.266C2171.26 347.799 2172.22 344.959 2174.14 342.745C2176.04 340.532 2178.5 339.425 2181.51 339.425C2183.11 339.425 2184.58 339.848 2185.93 340.694C2187.28 341.541 2188.37 342.729 2189.2 344.259ZM2177.21 346.065C2176.14 347.368 2175.6 349.101 2175.6 351.266C2175.6 353.43 2176.14 355.164 2177.21 356.466C2178.29 357.768 2179.72 358.419 2181.51 358.419C2183.22 358.419 2184.6 357.727 2185.66 356.344C2186.72 354.96 2187.25 353.268 2187.25 351.266C2187.25 349.264 2186.72 347.571 2185.66 346.188C2184.6 344.804 2183.22 344.112 2181.51 344.112C2179.72 344.112 2178.29 344.763 2177.21 346.065ZM2201.75 356.759C2202.86 355.392 2203.41 353.561 2203.41 351.266C2203.41 348.971 2202.86 347.14 2201.75 345.772C2200.63 344.405 2199.13 343.722 2197.26 343.722C2195.45 343.722 2194 344.43 2192.91 345.846C2191.81 347.262 2191.25 349.068 2191.25 351.266C2191.25 353.463 2191.81 355.27 2192.91 356.686C2194 358.102 2195.45 358.81 2197.26 358.81C2199.13 358.81 2200.63 358.126 2201.75 356.759Z" fill="#0D1846"/>
<path d="M834 253L3.00003 253" stroke="#0D1846" stroke-width="5"/>
<path d="M2229 328.5L2148 328.5" stroke="#0D1846" stroke-width="2"/>
<path d="M2287 256C2287 253.873 2287 210.447 2287 189" stroke="#0D1846" stroke-width="2"/>
<path d="M2036 256L2017 256" stroke="#0D1846" stroke-width="5"/>
<path d="M770.99 370.704L806 381.69L806 386.598L777.411 396.461L806 406.056L806 410.938L770.99 422.242L770.99 416.798L798.456 408.399L770.99 398.902L770.99 393.897L799.14 384.254L770.99 375.855L770.99 370.704ZM806.757 350.978C806.757 353.631 806.293 356.121 805.365 358.448C804.421 360.776 803.144 362.761 801.532 364.405C799.905 366.049 797.96 367.351 795.697 368.312C793.435 369.256 791.018 369.728 788.446 369.728C785.061 369.728 781.977 368.938 779.193 367.359C776.41 365.764 774.229 363.575 772.65 360.792C771.055 357.993 770.258 354.876 770.258 351.441C770.258 348.398 770.787 345.688 771.845 343.312C772.886 340.919 774.27 338.974 775.995 337.477L781.049 340.284C779.161 341.456 777.688 342.978 776.63 344.85C775.572 346.721 775.043 348.821 775.043 351.148C775.043 353.704 775.629 355.999 776.801 358.033C777.956 360.051 779.56 361.622 781.61 362.745C783.645 363.868 785.924 364.43 788.446 364.43C792.336 364.43 795.559 363.168 798.114 360.646C800.67 358.106 801.947 354.884 801.947 350.978C801.947 347.722 800.979 345.012 799.042 342.848C797.089 340.667 794.525 339.332 791.352 338.844L793.207 333.839C797.325 334.669 800.613 336.655 803.07 339.796C805.528 342.921 806.757 346.648 806.757 350.978ZM805.951 274.586L790.497 290.943L806 290.943L806 295.948L790.497 295.948L805.951 312.306L806 319.605L788.349 300.294L770.99 318.604L770.99 312.184L786.444 295.948L770.99 295.948L770.99 290.943L786.444 290.943L770.99 274.537L770.99 268.287L788.153 286.598L806 267.14L805.951 274.586Z" fill="#0D1846"/>
</svg>
