<svg width="2615" height="446" viewBox="0 0 2615 446" fill="none" xmlns="http://www.w3.org/2000/svg">
<path d="M1145.82 147.377L1077.82 147.535" stroke="#0D1846"/>
<path d="M2611.92 188.963L2.93079 195.038" stroke="#0D1846" stroke-width="5"/>
<path d="M3.50689 443.036L2612.5 436.961" stroke="#0D1846" stroke-width="5"/>
<path d="M3.50689 443.036L2612.5 436.961" stroke="#0D1846" stroke-width="5"/>
<path d="M2325.07 253.631L2325.5 438.631" stroke="#0D1846" stroke-width="5"/>
<path d="M2149.08 255.04L2149.5 439.039" stroke="#0D1846" stroke-width="5"/>
<path d="M2148.93 192.041L2148.49 5.0419" stroke="#0D1846" stroke-width="2"/>
<path d="M1973.93 191.447L1973.49 4.44815" stroke="#0D1846" stroke-width="2"/>
<path d="M1775.93 192.908L1775.49 7.03484" stroke="#0D1846" stroke-width="2"/>
<path d="M152.93 194.689L152.499 9.68995" stroke="#0D1846" stroke-width="2"/>
<path d="M314.93 194.311L314.499 9.31104" stroke="#0D1846" stroke-width="2"/>
<path d="M2072.07 254.219L2072.5 437.219" stroke="#0D1846" stroke-width="2"/>
<path d="M1145.93 193.377L1145.49 6.37746" stroke="#0D1846" stroke-width="2"/>
<path d="M1076.93 193.537L1076.49 6.53761" stroke="#0D1846" stroke-width="2"/>
<path d="M2533.07 253.147L2533.5 437.146" stroke="#0D1846" stroke-width="2"/>
<path d="M2382.93 190.496L2382.49 3.49659" stroke="#0D1846" stroke-width="2"/>
<path d="M1706.93 192.07L1706.5 7.07081" stroke="#0D1846" stroke-width="2"/>
<path d="M1502.93 192.545L1502.49 5.54542" stroke="#0D1846" stroke-width="2"/>
<path d="M1571.93 191.385L1571.49 4.38527" stroke="#0D1846" stroke-width="2"/>
<path d="M1640.93 191.223L1640.49 4.22316" stroke="#0D1846" stroke-width="2"/>
<path d="M1322.93 192.965L1322.49 5.96535" stroke="#0D1846" stroke-width="2"/>
<path d="M464.932 194.963L464.501 9.96339" stroke="#0D1846" stroke-width="5"/>
<path d="M538.932 194.789L538.496 7.78957" stroke="#0D1846" stroke-width="2"/>
<path d="M760.93 194.273L760.494 7.27394" stroke="#0D1846" stroke-width="2"/>
<path d="M833.93 194.104L833.497 8.10401" stroke="#0D1846" stroke-width="2"/>
<path d="M1077.5 440.537L1077.08 257.538" stroke="#0D1846" stroke-width="5"/>
<path d="M941.506 440.854L941.08 257.854" stroke="#0D1846" stroke-width="5"/>
<path d="M1009.51 441.695L1009.08 258.696" stroke="#0D1846" stroke-width="2"/>
<path d="M1146.5 440.375L1146.08 257.375" stroke="#0D1846" stroke-width="5"/>
<path d="M1503.5 439.545L1503.08 256.545" stroke="#0D1846" stroke-width="2"/>
<path d="M1323.5 439.963L1323.08 256.963" stroke="#0D1846" stroke-width="5"/>
<path d="M1776.5 437.908L1776.08 255.909" stroke="#0D1846" stroke-width="5"/>
<path d="M2072.07 254.22L2612.07 252.963" stroke="#0D1846" stroke-width="5"/>
<path d="M940.075 255.856L1988.07 253.416" stroke="#0D1846" stroke-width="5"/>
<path d="M834.077 257.102L834.506 441.102" stroke="#0D1846" stroke-width="5"/>
<path d="M761.079 258.272L761.508 442.271" stroke="#0D1846" stroke-width="2"/>
<path d="M692.077 257.434L692.506 441.434" stroke="#0D1846" stroke-width="5"/>
<path d="M426.075 257.053L426.506 442.053" stroke="#0D1846" stroke-width="5"/>
<path d="M221.079 258.53L221.508 442.529" stroke="#0D1846" stroke-width="5"/>
<path d="M153.079 258.41L153.504 441.967" stroke="#0D1846" stroke-width="5"/>
<path d="M2.49722 9.03825L3.50781 443.037" stroke="#0D1846" stroke-width="5"/>
<path d="M2.49713 9.03831L2611.49 2.96289" stroke="#0D1846" stroke-width="5"/>
<path d="M2612.5 437.961L2611.49 2.96212" stroke="#0D1846" stroke-width="5"/>
<path d="M1875.11 257.678L1875.54 440.678" stroke="#0D1846"/>
<path d="M1867.55 257.696L1867.98 440.695" stroke="#0D1846"/>
<path d="M1859.99 257.713L1860.42 440.713" stroke="#0D1846"/>
<path d="M1852.43 257.731L1852.86 440.73" stroke="#0D1846"/>
<path d="M1882.68 257.661L1883.1 440.66" stroke="#0D1846"/>
<path d="M1890.24 257.643L1890.66 440.643" stroke="#0D1846"/>
<path d="M1897.8 257.625L1898.22 440.625" stroke="#0D1846"/>
<path d="M1903.2 257.614L1903.62 440.613" stroke="#0D1846"/>
<path d="M1911.18 440.596L1910.76 257.596" stroke="#0D1846"/>
<path d="M1918.74 440.578L1918.32 257.579" stroke="#0D1846"/>
<path d="M1925.88 258.559L1926.3 440.559" stroke="#0D1846"/>
<path d="M1941 257.524L1941.43 440.523" stroke="#0D1846"/>
<path d="M1933.44 257.542L1933.87 440.541" stroke="#0D1846"/>
<path d="M1942.29 348.521L1852.64 348.725" stroke="#0D1846"/>
<path d="M941.416 402.854L833.946 403.104" stroke="#0D1846"/>
<path d="M941.385 388.854L833.915 389.104" stroke="#0D1846"/>
<path d="M941.367 381.854L833.898 382.104" stroke="#0D1846"/>
<path d="M941.336 367.854L833.866 368.104" stroke="#0D1846"/>
<path d="M941.318 360.854L833.849 361.104" stroke="#0D1846"/>
<path d="M941.303 353.854L833.833 354.104" stroke="#0D1846"/>
<path d="M941.27 339.854L833.8 340.104" stroke="#0D1846"/>
<path d="M941.254 332.854L833.784 333.104" stroke="#0D1846"/>
<path d="M941.236 325.854L833.767 326.104" stroke="#0D1846"/>
<path d="M941.205 311.854L833.735 312.104" stroke="#0D1846"/>
<path d="M941.188 304.854L833.718 305.104" stroke="#0D1846"/>
<path d="M941.156 290.854L833.687 291.104" stroke="#0D1846"/>
<path d="M941.4 395.854L833.931 396.104" stroke="#0D1846"/>
<path d="M941.352 374.854L833.882 375.104" stroke="#0D1846"/>
<path d="M941.287 346.854L833.817 347.104" stroke="#0D1846"/>
<path d="M941.221 318.854L833.751 319.104" stroke="#0D1846"/>
<path d="M940.09 297.855L834.24 298.102" stroke="#0D1846"/>
<path d="M941.156 290.854L833.687 291.104" stroke="#0D1846"/>
<path d="M887.41 402.979L887.149 290.979" stroke="#0D1846"/>
<path d="M2552.04 390.994L2549.21 385.989L2585 385.989L2585 390.994L2552.04 390.994ZM2580.51 355.594L2585 355.594L2585 378.86L2581.46 378.86L2577.85 374.563C2576.53 372.985 2575.35 371.618 2574.31 370.462C2573.26 369.306 2572.07 368.069 2570.72 366.751C2569.37 365.433 2568.12 364.367 2566.98 363.553C2565.83 362.723 2564.61 362.039 2563.34 361.502C2562.08 360.965 2560.88 360.713 2559.76 360.745C2557.88 360.794 2556.4 361.429 2555.31 362.649C2554.21 363.854 2553.65 365.49 2553.65 367.557C2553.65 369.933 2554.36 371.723 2555.78 372.928C2557.18 374.116 2559.03 374.71 2561.34 374.71C2561.7 374.71 2562.25 374.677 2563 374.612L2560.9 379.153L2560.71 379.153C2557.26 379.153 2554.49 378.047 2552.41 375.833C2550.31 373.619 2549.26 370.706 2549.26 367.093C2549.26 365.009 2549.64 363.154 2550.41 361.526C2551.17 359.882 2552.35 358.564 2553.95 357.571C2555.54 356.562 2557.44 356.058 2559.66 356.058C2560.72 356.058 2561.79 356.212 2562.88 356.521C2563.96 356.831 2564.96 357.213 2565.88 357.669C2566.81 358.125 2567.82 358.776 2568.91 359.622C2570 360.468 2570.96 361.266 2571.79 362.015C2572.61 362.747 2573.58 363.732 2574.72 364.969C2575.86 366.189 2576.81 367.239 2577.58 368.118C2578.33 368.981 2579.3 370.128 2580.51 371.561L2580.51 355.594ZM2580.51 328.006L2585 328.006L2585 351.272L2581.46 351.272L2577.85 346.976C2576.53 345.397 2575.35 344.03 2574.31 342.874C2573.26 341.718 2572.07 340.481 2570.72 339.163C2569.37 337.845 2568.12 336.779 2566.98 335.965C2565.83 335.135 2564.61 334.451 2563.34 333.914C2562.08 333.377 2560.88 333.125 2559.76 333.157C2557.88 333.206 2556.4 333.841 2555.31 335.062C2554.21 336.266 2553.65 337.902 2553.65 339.969C2553.65 342.345 2554.36 344.135 2555.78 345.34C2557.18 346.528 2559.03 347.122 2561.34 347.122C2561.7 347.122 2562.25 347.09 2563 347.024L2560.9 351.565L2560.71 351.565C2557.26 351.565 2554.49 350.459 2552.41 348.245C2550.31 346.032 2549.26 343.118 2549.26 339.505C2549.26 337.422 2549.64 335.566 2550.41 333.938C2551.17 332.295 2552.35 330.976 2553.95 329.983C2555.54 328.974 2557.44 328.47 2559.66 328.47C2560.72 328.47 2561.79 328.624 2562.88 328.934C2563.96 329.243 2564.96 329.625 2565.88 330.081C2566.81 330.537 2567.82 331.188 2568.91 332.034C2570 332.881 2570.96 333.678 2571.79 334.427C2572.61 335.159 2573.58 336.144 2574.72 337.381C2575.86 338.602 2576.81 339.651 2577.58 340.53C2578.33 341.393 2579.3 342.54 2580.51 343.973L2580.51 328.006ZM2561.15 309.451C2561.15 307.335 2561.62 305.374 2562.56 303.567C2563.51 301.761 2564.87 300.296 2566.67 299.173C2568.44 298.05 2570.45 297.488 2572.7 297.488C2576.5 297.488 2579.64 298.652 2582.09 300.979C2584.54 303.307 2585.76 306.31 2585.76 309.988C2585.76 311.307 2585.56 312.592 2585.17 313.846C2584.8 315.083 2584.17 316.287 2583.29 317.459C2582.41 318.615 2581.33 319.624 2580.04 320.486C2578.74 321.349 2577.11 322.041 2575.16 322.562C2573.19 323.082 2571 323.343 2568.59 323.343C2565.62 323.343 2562.91 322.928 2560.46 322.098C2558.02 321.251 2555.99 320.079 2554.36 318.582C2552.73 317.068 2551.48 315.27 2550.6 313.187C2549.71 311.103 2549.26 308.825 2549.26 306.351C2549.26 304.674 2549.5 303.185 2549.99 301.883L2555.24 301.102C2554.44 303.006 2554.04 305.049 2554.04 307.229C2554.04 308.613 2554.29 309.939 2554.78 311.209C2555.25 312.479 2555.96 313.667 2556.9 314.773C2557.84 315.864 2559.13 316.759 2560.76 317.459C2562.37 318.143 2564.22 318.533 2566.3 318.631C2564.51 317.638 2563.21 316.344 2562.39 314.749C2561.56 313.138 2561.15 311.372 2561.15 309.451ZM2581.04 310.086C2581.04 307.872 2580.33 306.058 2578.9 304.642C2577.46 303.209 2575.63 302.493 2573.4 302.493C2571.06 302.493 2569.2 303.177 2567.84 304.544C2566.45 305.911 2565.76 307.758 2565.76 310.086C2565.76 312.202 2566.48 313.951 2567.91 315.335C2569.34 316.702 2571.17 317.386 2573.4 317.386C2575.57 317.386 2577.38 316.661 2578.85 315.213C2580.31 313.748 2581.04 312.039 2581.04 310.086Z" fill="#0D1846"/>
<path d="M2017.01 79.041L2022.01 76.209L2022.01 112L2017.01 112L2017.01 79.041ZM2052.41 107.508L2052.41 112L2029.14 112L2029.14 108.46L2033.44 104.847C2035.02 103.528 2036.38 102.348 2037.54 101.307C2038.69 100.265 2039.93 99.0687 2041.25 97.7178C2042.57 96.3669 2043.63 95.1218 2044.45 93.9824C2045.28 92.8268 2045.96 91.6143 2046.5 90.3447C2047.04 89.0752 2047.29 87.8789 2047.25 86.7559C2047.21 84.8841 2046.57 83.403 2045.35 82.3125C2044.15 81.2057 2042.51 80.6523 2040.44 80.6523C2038.07 80.6523 2036.28 81.3604 2035.07 82.7764C2033.88 84.1761 2033.29 86.0316 2033.29 88.3428C2033.29 88.7009 2033.32 89.2542 2033.39 90.0029L2028.85 87.9033L2028.85 87.708C2028.85 84.2575 2029.95 81.4906 2032.17 79.4072C2034.38 77.3076 2037.29 76.2578 2040.91 76.2578C2042.99 76.2578 2044.85 76.6403 2046.47 77.4053C2048.12 78.1703 2049.44 79.3503 2050.43 80.9453C2051.44 82.5404 2051.94 84.4447 2051.94 86.6582C2051.94 87.7162 2051.79 88.7904 2051.48 89.8809C2051.17 90.9551 2050.79 91.9561 2050.33 92.8838C2049.88 93.8115 2049.22 94.8206 2048.38 95.9111C2047.53 97.0016 2046.73 97.9619 2045.99 98.792C2045.25 99.6058 2044.27 100.582 2043.03 101.722C2041.81 102.861 2040.76 103.813 2039.88 104.578C2039.02 105.327 2037.87 106.303 2036.44 107.508L2052.41 107.508ZM2079.99 107.508L2079.99 112L2056.73 112L2056.73 108.46L2061.02 104.847C2062.6 103.528 2063.97 102.348 2065.13 101.307C2066.28 100.265 2067.52 99.0687 2068.84 97.7178C2070.16 96.3669 2071.22 95.1218 2072.04 93.9824C2072.87 92.8268 2073.55 91.6143 2074.09 90.3447C2074.62 89.0752 2074.88 87.8789 2074.84 86.7559C2074.79 84.8841 2074.16 83.403 2072.94 82.3125C2071.73 81.2057 2070.1 80.6524 2068.03 80.6524C2065.65 80.6524 2063.86 81.3604 2062.66 82.7764C2061.47 84.1761 2060.88 86.0316 2060.88 88.3428C2060.88 88.7009 2060.91 89.2542 2060.98 90.0029L2056.43 87.9033L2056.43 87.708C2056.43 84.2575 2057.54 81.4906 2059.75 79.4072C2061.97 77.3076 2064.88 76.2578 2068.5 76.2578C2070.58 76.2578 2072.43 76.6403 2074.06 77.4053C2075.71 78.1703 2077.02 79.3503 2078.02 80.9453C2079.03 82.5404 2079.53 84.4447 2079.53 86.6582C2079.53 87.7162 2079.38 88.7904 2079.07 89.8809C2078.76 90.9551 2078.37 91.9561 2077.92 92.8838C2077.46 93.8115 2076.81 94.8206 2075.97 95.9111C2075.12 97.0016 2074.32 97.9619 2073.57 98.792C2072.84 99.6058 2071.86 100.582 2070.62 101.722C2069.4 102.861 2068.35 103.813 2067.47 104.578C2066.61 105.327 2065.46 106.303 2064.03 107.508L2079.99 107.508ZM2098.77 90.7598C2101.67 90.7598 2104.09 91.6794 2106.04 93.5186C2108 95.3415 2108.97 97.8154 2108.97 100.94C2108.97 104.244 2107.69 107.044 2105.12 109.339C2102.56 111.618 2099.4 112.757 2095.62 112.757C2093.36 112.757 2091.22 112.366 2089.22 111.585C2087.22 110.804 2085.49 109.673 2084.02 108.191L2085.37 102.894C2088.36 106.295 2091.78 108.045 2095.62 108.143C2098.04 108.143 2100.03 107.492 2101.58 106.189C2103.14 104.871 2103.92 103.121 2103.92 100.94C2103.92 98.9059 2103.29 97.319 2102.02 96.1797C2100.75 95.0241 2099.1 94.4463 2097.08 94.4463C2095.52 94.4463 2093.92 94.8939 2092.27 95.7891L2089.88 92.542L2101.33 81.5069L2085.63 81.5068L2085.63 76.9902L2107.48 76.9903L2107.48 80.8965L2097.33 90.8574C2097.65 90.7923 2098.13 90.7598 2098.77 90.7598Z" fill="#0D1846"/>
<path d="M2453.01 80.041L2458.01 77.209L2458.01 113L2453.01 113L2453.01 80.041ZM2488.41 108.508L2488.41 113L2465.14 113L2465.14 109.46L2469.44 105.847C2471.02 104.528 2472.38 103.348 2473.54 102.307C2474.69 101.265 2475.93 100.069 2477.25 98.7178C2478.57 97.3669 2479.63 96.1218 2480.45 94.9824C2481.28 93.8268 2481.96 92.6143 2482.5 91.3447C2483.04 90.0752 2483.29 88.8789 2483.25 87.7559C2483.21 85.8841 2482.57 84.403 2481.35 83.3125C2480.15 82.2057 2478.51 81.6523 2476.44 81.6523C2474.07 81.6523 2472.28 82.3604 2471.07 83.7764C2469.88 85.1761 2469.29 87.0316 2469.29 89.3428C2469.29 89.7009 2469.32 90.2542 2469.39 91.0029L2464.85 88.9033L2464.85 88.708C2464.85 85.2575 2465.95 82.4906 2468.17 80.4072C2470.38 78.3076 2473.29 77.2578 2476.91 77.2578C2478.99 77.2578 2480.85 77.6403 2482.47 78.4053C2484.12 79.1703 2485.44 80.3503 2486.43 81.9453C2487.44 83.5404 2487.94 85.4447 2487.94 87.6582C2487.94 88.7162 2487.79 89.7904 2487.48 90.8809C2487.17 91.9551 2486.79 92.9561 2486.33 93.8838C2485.88 94.8115 2485.22 95.8206 2484.38 96.9111C2483.53 98.0016 2482.73 98.9619 2481.99 99.792C2481.25 100.606 2480.27 101.582 2479.03 102.722C2477.81 103.861 2476.76 104.813 2475.88 105.578C2475.02 106.327 2473.87 107.303 2472.44 108.508L2488.41 108.508ZM2515.99 108.508L2515.99 113L2492.73 113L2492.73 109.46L2497.02 105.847C2498.6 104.528 2499.97 103.348 2501.13 102.307C2502.28 101.265 2503.52 100.069 2504.84 98.7178C2506.16 97.3669 2507.22 96.1218 2508.04 94.9824C2508.87 93.8268 2509.55 92.6143 2510.09 91.3447C2510.62 90.0752 2510.88 88.8789 2510.84 87.7559C2510.79 85.8841 2510.16 84.403 2508.94 83.3125C2507.73 82.2057 2506.1 81.6524 2504.03 81.6524C2501.65 81.6524 2499.86 82.3604 2498.66 83.7764C2497.47 85.1761 2496.88 87.0316 2496.88 89.3428C2496.88 89.7009 2496.91 90.2542 2496.98 91.0029L2492.43 88.9033L2492.43 88.708C2492.43 85.2575 2493.54 82.4906 2495.75 80.4072C2497.97 78.3076 2500.88 77.2578 2504.5 77.2578C2506.58 77.2578 2508.43 77.6403 2510.06 78.4053C2511.71 79.1703 2513.02 80.3503 2514.02 81.9453C2515.03 83.5404 2515.53 85.4447 2515.53 87.6582C2515.53 88.7162 2515.38 89.7904 2515.07 90.8809C2514.76 91.9551 2514.37 92.9561 2513.92 93.8838C2513.46 94.8115 2512.81 95.8206 2511.97 96.9111C2511.12 98.0016 2510.32 98.9619 2509.57 99.792C2508.84 100.606 2507.86 101.582 2506.62 102.722C2505.4 103.861 2504.35 104.813 2503.47 105.578C2502.61 106.327 2501.46 107.303 2500.03 108.508L2515.99 108.508ZM2543.36 77.9903L2543.36 82.1895L2528.03 113L2522.83 113L2538.33 82.5069L2519.83 82.5068L2519.83 77.9902L2543.36 77.9903Z" fill="#0D1846"/>
<path d="M2222.01 80.041L2227.01 77.209L2227.01 113L2222.01 113L2222.01 80.041ZM2257.41 108.508L2257.41 113L2234.14 113L2234.14 109.46L2238.44 105.847C2240.02 104.528 2241.38 103.348 2242.54 102.307C2243.69 101.265 2244.93 100.069 2246.25 98.7178C2247.57 97.3669 2248.63 96.1218 2249.45 94.9824C2250.28 93.8268 2250.96 92.6143 2251.5 91.3447C2252.04 90.0752 2252.29 88.8789 2252.25 87.7559C2252.21 85.8841 2251.57 84.403 2250.35 83.3125C2249.15 82.2057 2247.51 81.6523 2245.44 81.6523C2243.07 81.6523 2241.28 82.3604 2240.07 83.7764C2238.88 85.1761 2238.29 87.0316 2238.29 89.3428C2238.29 89.7009 2238.32 90.2542 2238.39 91.0029L2233.85 88.9033L2233.85 88.708C2233.85 85.2575 2234.95 82.4906 2237.17 80.4072C2239.38 78.3076 2242.29 77.2578 2245.91 77.2578C2247.99 77.2578 2249.85 77.6403 2251.47 78.4053C2253.12 79.1703 2254.44 80.3503 2255.43 81.9453C2256.44 83.5404 2256.94 85.4447 2256.94 87.6582C2256.94 88.7162 2256.79 89.7904 2256.48 90.8809C2256.17 91.9551 2255.79 92.9561 2255.33 93.8838C2254.88 94.8115 2254.22 95.8206 2253.38 96.9111C2252.53 98.0016 2251.73 98.9619 2250.99 99.792C2250.25 100.606 2249.27 101.582 2248.03 102.722C2246.81 103.861 2245.76 104.813 2244.88 105.578C2244.02 106.327 2242.87 107.303 2241.44 108.508L2257.41 108.508ZM2284.99 108.508L2284.99 113L2261.73 113L2261.73 109.46L2266.02 105.847C2267.6 104.528 2268.97 103.348 2270.13 102.307C2271.28 101.265 2272.52 100.069 2273.84 98.7178C2275.16 97.3669 2276.22 96.1218 2277.04 94.9824C2277.87 93.8268 2278.55 92.6143 2279.09 91.3447C2279.62 90.0752 2279.88 88.8789 2279.84 87.7559C2279.79 85.8841 2279.16 84.403 2277.94 83.3125C2276.73 82.2057 2275.1 81.6524 2273.03 81.6524C2270.65 81.6524 2268.86 82.3604 2267.66 83.7764C2266.47 85.1761 2265.88 87.0316 2265.88 89.3428C2265.88 89.7009 2265.91 90.2542 2265.98 91.0029L2261.43 88.9033L2261.43 88.708C2261.43 85.2575 2262.54 82.4906 2264.75 80.4072C2266.97 78.3076 2269.88 77.2578 2273.5 77.2578C2275.58 77.2578 2277.43 77.6403 2279.06 78.4053C2280.71 79.1703 2282.02 80.3503 2283.02 81.9453C2284.03 83.5404 2284.53 85.4447 2284.53 87.6582C2284.53 88.7162 2284.38 89.7904 2284.07 90.8809C2283.76 91.9551 2283.37 92.9561 2282.92 93.8838C2282.46 94.8115 2281.81 95.8206 2280.97 96.9111C2280.12 98.0016 2279.32 98.9619 2278.57 99.792C2277.84 100.606 2276.86 101.582 2275.62 102.722C2274.4 103.861 2273.35 104.813 2272.47 105.578C2271.61 106.327 2270.46 107.303 2269.03 108.508L2284.99 108.508ZM2301.77 89.3428C2303.2 89.3428 2304.57 89.5788 2305.87 90.0508C2307.17 90.5228 2308.35 91.2145 2309.41 92.126C2310.47 93.0375 2311.3 94.2419 2311.92 95.7393C2312.56 97.2367 2312.87 98.9212 2312.87 100.793C2312.87 103.218 2312.31 105.424 2311.19 107.409C2310.07 109.379 2308.5 110.933 2306.48 112.072C2304.46 113.195 2302.19 113.757 2299.67 113.757C2295.17 113.757 2291.46 112.186 2288.53 109.045L2289.97 103.894C2292.82 107.393 2296.05 109.143 2299.67 109.143C2302.12 109.143 2304.1 108.353 2305.6 106.774C2307.11 105.196 2307.87 103.202 2307.87 100.793C2307.87 98.6445 2307.15 96.9437 2305.72 95.6904C2304.29 94.4372 2302.62 93.8106 2300.72 93.8106C2299.46 93.8106 2298.28 94.1035 2297.18 94.6895C2296.09 95.2591 2295.22 96.0973 2294.56 97.2041L2290.78 95.5928L2292.32 77.9902L2311.39 77.9903L2311.39 82.5069L2296.32 82.5068L2295.47 91.4912C2297.36 90.0589 2299.46 89.3428 2301.77 89.3428Z" fill="#0D1846"/>
<path d="M1836.01 79.041L1841.01 76.209L1841.01 112L1836.01 112L1836.01 79.041ZM1871.41 107.508L1871.41 112L1848.14 112L1848.14 108.46L1852.44 104.847C1854.02 103.528 1855.38 102.348 1856.54 101.307C1857.69 100.265 1858.93 99.0687 1860.25 97.7178C1861.57 96.3669 1862.63 95.1218 1863.45 93.9824C1864.28 92.8268 1864.96 91.6143 1865.5 90.3447C1866.04 89.0752 1866.29 87.8789 1866.25 86.7559C1866.21 84.8841 1865.57 83.403 1864.35 82.3125C1863.15 81.2057 1861.51 80.6523 1859.44 80.6523C1857.07 80.6523 1855.28 81.3604 1854.07 82.7764C1852.88 84.1761 1852.29 86.0316 1852.29 88.3428C1852.29 88.7009 1852.32 89.2542 1852.39 90.0029L1847.85 87.9033L1847.85 87.708C1847.85 84.2575 1848.95 81.4906 1851.17 79.4072C1853.38 77.3076 1856.29 76.2578 1859.91 76.2578C1861.99 76.2578 1863.85 76.6403 1865.47 77.4053C1867.12 78.1703 1868.44 79.3503 1869.43 80.9453C1870.44 82.5404 1870.94 84.4447 1870.94 86.6582C1870.94 87.7162 1870.79 88.7904 1870.48 89.8809C1870.17 90.9551 1869.79 91.9561 1869.33 92.8838C1868.88 93.8115 1868.22 94.8206 1867.38 95.9111C1866.53 97.0016 1865.73 97.9619 1864.99 98.792C1864.25 99.6058 1863.27 100.582 1862.03 101.722C1860.81 102.861 1859.76 103.813 1858.88 104.578C1858.02 105.327 1856.87 106.303 1855.44 107.508L1871.41 107.508ZM1898.99 107.508L1898.99 112L1875.73 112L1875.73 108.46L1880.02 104.847C1881.6 103.528 1882.97 102.348 1884.13 101.307C1885.28 100.265 1886.52 99.0687 1887.84 97.7178C1889.16 96.3669 1890.22 95.1218 1891.04 93.9824C1891.87 92.8268 1892.55 91.6143 1893.09 90.3447C1893.62 89.0752 1893.88 87.8789 1893.84 86.7559C1893.79 84.8841 1893.16 83.403 1891.94 82.3125C1890.73 81.2057 1889.1 80.6524 1887.03 80.6524C1884.65 80.6524 1882.86 81.3604 1881.66 82.7764C1880.47 84.1761 1879.88 86.0316 1879.88 88.3428C1879.88 88.7009 1879.91 89.2542 1879.98 90.0029L1875.43 87.9033L1875.43 87.708C1875.43 84.2575 1876.54 81.4906 1878.75 79.4072C1880.97 77.3076 1883.88 76.2578 1887.5 76.2578C1889.58 76.2578 1891.43 76.6403 1893.06 77.4053C1894.71 78.1703 1896.02 79.3503 1897.02 80.9453C1898.03 82.5404 1898.53 84.4447 1898.53 86.6582C1898.53 87.7162 1898.38 88.7904 1898.07 89.8809C1897.76 90.9551 1897.37 91.9561 1896.92 92.8838C1896.46 93.8115 1895.81 94.8206 1894.97 95.9111C1894.12 97.0016 1893.32 97.9619 1892.57 98.792C1891.84 99.6058 1890.86 100.582 1889.62 101.722C1888.4 102.861 1887.35 103.813 1886.47 104.578C1885.61 105.327 1884.46 106.303 1883.03 107.508L1898.99 107.508ZM1907.93 79.041L1912.93 76.209L1912.93 112L1907.93 112L1907.93 79.041Z" fill="#0D1846"/>
<path d="M1727.04 136.994L1724.21 131.989L1760 131.989L1760 136.994L1727.04 136.994ZM1755.51 101.594L1760 101.594L1760 124.86L1756.46 124.86L1752.85 120.563C1751.53 118.985 1750.35 117.618 1749.31 116.462C1748.26 115.306 1747.07 114.069 1745.72 112.751C1744.37 111.433 1743.12 110.367 1741.98 109.553C1740.83 108.723 1739.61 108.039 1738.34 107.502C1737.08 106.965 1735.88 106.713 1734.76 106.745C1732.88 106.794 1731.4 107.429 1730.31 108.649C1729.21 109.854 1728.65 111.49 1728.65 113.557C1728.65 115.933 1729.36 117.723 1730.78 118.928C1732.18 120.116 1734.03 120.71 1736.34 120.71C1736.7 120.71 1737.25 120.677 1738 120.612L1735.9 125.153L1735.71 125.153C1732.26 125.153 1729.49 124.047 1727.41 121.833C1725.31 119.619 1724.26 116.706 1724.26 113.093C1724.26 111.009 1724.64 109.154 1725.41 107.526C1726.17 105.882 1727.35 104.564 1728.95 103.571C1730.54 102.562 1732.44 102.058 1734.66 102.058C1735.72 102.058 1736.79 102.212 1737.88 102.521C1738.96 102.831 1739.96 103.213 1740.88 103.669C1741.81 104.125 1742.82 104.776 1743.91 105.622C1745 106.468 1745.96 107.266 1746.79 108.015C1747.61 108.747 1748.58 109.732 1749.72 110.969C1750.86 112.189 1751.81 113.239 1752.58 114.118C1753.33 114.981 1754.3 116.128 1755.51 117.561L1755.51 101.594ZM1727.04 92.6582L1724.21 87.6533L1760 87.6533L1760 92.6582L1727.04 92.6582ZM1724.26 67.1699C1724.26 65.8516 1724.45 64.5739 1724.84 63.3369C1725.22 62.0837 1725.84 60.8792 1726.72 59.7236C1727.6 58.5518 1728.68 57.5345 1729.97 56.6719C1731.26 55.8092 1732.88 55.1175 1734.85 54.5967C1736.81 54.0758 1738.99 53.8154 1741.4 53.8154C1744.39 53.8154 1747.11 54.2386 1749.55 55.085C1751.98 55.915 1754.01 57.0869 1755.65 58.6006C1757.28 60.098 1758.54 61.8883 1759.44 63.9717C1760.32 66.055 1760.76 68.3337 1760.76 70.8076C1760.76 71.3936 1760.68 72.1341 1760.54 73.0293C1760.41 73.9245 1760.23 74.6732 1760 75.2754L1754.75 76.0566C1755.55 74.1523 1755.95 72.1016 1755.95 69.9043C1755.95 68.5208 1755.71 67.1943 1755.24 65.9248C1754.75 64.6553 1754.03 63.4753 1753.09 62.3848C1752.15 61.2943 1750.87 60.4072 1749.26 59.7236C1747.63 59.0238 1745.77 58.625 1743.69 58.5273C1745.48 59.5202 1746.79 60.8223 1747.62 62.4336C1748.44 64.0286 1748.84 65.7865 1748.84 67.707C1748.84 69.8229 1748.37 71.7842 1747.43 73.5908C1746.48 75.3975 1745.12 76.8623 1743.35 77.9854C1741.56 79.1084 1739.54 79.6699 1737.29 79.6699C1733.49 79.6699 1730.36 78.5062 1727.92 76.1787C1725.48 73.8512 1724.26 70.8483 1724.26 67.1699ZM1744.25 67.0723C1744.25 64.9564 1743.54 63.2148 1742.1 61.8477C1740.67 60.4642 1738.84 59.7725 1736.61 59.7725C1734.45 59.7725 1732.63 60.5049 1731.17 61.9697C1729.69 63.4183 1728.95 65.1191 1728.95 67.0723C1728.95 69.2858 1729.67 71.1087 1731.12 72.541C1732.55 73.957 1734.38 74.665 1736.61 74.665C1738.96 74.665 1740.82 73.9814 1742.2 72.6143C1743.57 71.2471 1744.25 69.3997 1744.25 67.0723Z" fill="#0D1846"/>
<path d="M1592.04 134.994L1589.21 129.989L1625 129.989L1625 134.994L1592.04 134.994ZM1620.51 99.5938L1625 99.5938L1625 122.86L1621.46 122.86L1617.85 118.563C1616.53 116.985 1615.35 115.618 1614.31 114.462C1613.26 113.306 1612.07 112.069 1610.72 110.751C1609.37 109.433 1608.12 108.367 1606.98 107.553C1605.83 106.723 1604.61 106.039 1603.34 105.502C1602.08 104.965 1600.88 104.713 1599.76 104.745C1597.88 104.794 1596.4 105.429 1595.31 106.649C1594.21 107.854 1593.65 109.49 1593.65 111.557C1593.65 113.933 1594.36 115.723 1595.78 116.928C1597.18 118.116 1599.03 118.71 1601.34 118.71C1601.7 118.71 1602.25 118.677 1603 118.612L1600.9 123.153L1600.71 123.153C1597.26 123.153 1594.49 122.047 1592.41 119.833C1590.31 117.619 1589.26 114.706 1589.26 111.093C1589.26 109.009 1589.64 107.154 1590.41 105.526C1591.17 103.882 1592.35 102.564 1593.95 101.571C1595.54 100.562 1597.44 100.058 1599.66 100.058C1600.72 100.058 1601.79 100.212 1602.88 100.521C1603.96 100.831 1604.96 101.213 1605.88 101.669C1606.81 102.125 1607.82 102.776 1608.91 103.622C1610 104.468 1610.96 105.266 1611.79 106.015C1612.61 106.747 1613.58 107.732 1614.72 108.969C1615.86 110.189 1616.81 111.239 1617.58 112.118C1618.33 112.981 1619.3 114.128 1620.51 115.561L1620.51 99.5938ZM1592.04 90.6582L1589.21 85.6533L1625 85.6533L1625 90.6582L1592.04 90.6582ZM1589.99 55.4775L1594.19 55.4775L1625 70.8096L1625 76.0098L1594.51 60.5068L1594.51 79.0127L1589.99 79.0127L1589.99 55.4775Z" fill="#0D1846"/>
<path d="M1184.01 79.041L1189.01 76.209L1189.01 112L1184.01 112L1184.01 79.041ZM1219.41 107.508L1219.41 112L1196.14 112L1196.14 108.46L1200.44 104.847C1202.02 103.528 1203.38 102.348 1204.54 101.307C1205.69 100.265 1206.93 99.0687 1208.25 97.7178C1209.57 96.3669 1210.63 95.1218 1211.45 93.9824C1212.28 92.8268 1212.96 91.6143 1213.5 90.3447C1214.04 89.0752 1214.29 87.8789 1214.25 86.7559C1214.21 84.8841 1213.57 83.403 1212.35 82.3125C1211.15 81.2057 1209.51 80.6523 1207.44 80.6523C1205.07 80.6523 1203.28 81.3604 1202.07 82.7764C1200.88 84.1761 1200.29 86.0316 1200.29 88.3428C1200.29 88.7009 1200.32 89.2542 1200.39 90.0029L1195.85 87.9033L1195.85 87.708C1195.85 84.2575 1196.95 81.4906 1199.17 79.4072C1201.38 77.3076 1204.29 76.2578 1207.91 76.2578C1209.99 76.2578 1211.85 76.6403 1213.47 77.4053C1215.12 78.1703 1216.44 79.3503 1217.43 80.9453C1218.44 82.5404 1218.94 84.4447 1218.94 86.6582C1218.94 87.7162 1218.79 88.7904 1218.48 89.8809C1218.17 90.9551 1217.79 91.9561 1217.33 92.8838C1216.88 93.8115 1216.22 94.8206 1215.38 95.9111C1214.53 97.0016 1213.73 97.9619 1212.99 98.792C1212.25 99.6058 1211.27 100.582 1210.03 101.722C1208.81 102.861 1207.76 103.813 1206.88 104.578C1206.02 105.327 1204.87 106.303 1203.44 107.508L1219.41 107.508ZM1247.53 110.462C1245.35 111.992 1242.85 112.757 1240.04 112.757C1237.22 112.757 1234.71 111.992 1232.52 110.462C1230.32 108.916 1228.61 106.759 1227.39 103.992C1226.19 101.225 1225.58 98.0596 1225.58 94.4951C1225.58 90.9469 1226.19 87.7894 1227.39 85.0225C1228.61 82.2393 1230.32 80.0827 1232.52 78.5527C1234.71 77.0228 1237.22 76.2578 1240.04 76.2578C1242.85 76.2578 1245.35 77.0228 1247.53 78.5527C1249.73 80.0827 1251.43 82.2311 1252.63 84.9981C1253.84 87.765 1254.44 90.9307 1254.44 94.4951C1254.44 98.0596 1253.84 101.225 1252.63 103.992C1251.43 106.759 1249.73 108.916 1247.53 110.462ZM1233.2 104.334C1234.96 106.808 1237.24 108.045 1240.04 108.045C1242.84 108.045 1245.1 106.816 1246.82 104.358C1248.56 101.884 1249.44 98.5967 1249.44 94.4951C1249.44 90.3936 1248.56 87.1139 1246.82 84.6563C1245.1 82.1823 1242.84 80.9453 1240.04 80.9453C1237.24 80.9453 1234.96 82.1823 1233.2 84.6563C1231.46 87.1302 1230.59 90.4098 1230.59 94.4951C1230.59 98.5804 1231.46 101.86 1233.2 104.334ZM1272.43 76.2578C1273.75 76.2578 1275.03 76.4531 1276.27 76.8438C1277.52 77.2181 1278.72 77.8447 1279.88 78.7237C1281.05 79.6026 1282.07 80.6849 1282.93 81.9707C1283.79 83.2565 1284.49 84.8841 1285.01 86.8535C1285.53 88.8067 1285.79 90.9876 1285.79 93.3965C1285.79 96.3913 1285.36 99.1094 1284.52 101.551C1283.69 103.976 1282.52 106.01 1281 107.654C1279.51 109.282 1277.72 110.543 1275.63 111.438C1273.55 112.317 1271.27 112.757 1268.8 112.757C1268.21 112.757 1267.47 112.684 1266.57 112.537C1265.68 112.407 1264.93 112.228 1264.33 112L1263.55 106.751C1265.45 107.549 1267.5 107.947 1269.7 107.947C1271.08 107.947 1272.41 107.711 1273.68 107.239C1274.95 106.751 1276.13 106.035 1277.22 105.091C1278.31 104.147 1279.2 102.869 1279.88 101.258C1280.58 99.6302 1280.98 97.7748 1281.08 95.6914C1280.08 97.4818 1278.78 98.792 1277.17 99.6221C1275.57 100.436 1273.82 100.843 1271.9 100.843C1269.78 100.843 1267.82 100.371 1266.01 99.4268C1264.21 98.4828 1262.74 97.1237 1261.62 95.3496C1260.5 93.5593 1259.93 91.541 1259.93 89.2949C1259.93 85.4863 1261.1 82.3613 1263.42 79.9199C1265.75 77.4785 1268.76 76.2578 1272.43 76.2578ZM1272.53 96.2529C1274.65 96.2529 1276.39 95.5368 1277.76 94.1045C1279.14 92.6722 1279.83 90.8412 1279.83 88.6113C1279.83 86.4466 1279.1 84.6319 1277.63 83.167C1276.19 81.6859 1274.48 80.9453 1272.53 80.9453C1270.32 80.9453 1268.49 81.6696 1267.06 83.1182C1265.65 84.5505 1264.94 86.3815 1264.94 88.6113C1264.94 90.9551 1265.62 92.8187 1266.99 94.2022C1268.36 95.5694 1270.2 96.2529 1272.53 96.2529Z" fill="#0D1846"/>
<path d="M1364.01 79.041L1369.01 76.209L1369.01 112L1364.01 112L1364.01 79.041ZM1399.41 107.508L1399.41 112L1376.14 112L1376.14 108.46L1380.44 104.847C1382.02 103.528 1383.38 102.348 1384.54 101.307C1385.69 100.265 1386.93 99.0687 1388.25 97.7178C1389.57 96.3669 1390.63 95.1218 1391.45 93.9824C1392.28 92.8268 1392.96 91.6143 1393.5 90.3447C1394.04 89.0752 1394.29 87.8789 1394.25 86.7559C1394.21 84.8841 1393.57 83.403 1392.35 82.3125C1391.15 81.2057 1389.51 80.6523 1387.44 80.6523C1385.07 80.6523 1383.28 81.3604 1382.07 82.7764C1380.88 84.1761 1380.29 86.0316 1380.29 88.3428C1380.29 88.7009 1380.32 89.2542 1380.39 90.0029L1375.85 87.9033L1375.85 87.708C1375.85 84.2575 1376.95 81.4906 1379.17 79.4072C1381.38 77.3076 1384.29 76.2578 1387.91 76.2578C1389.99 76.2578 1391.85 76.6403 1393.47 77.4053C1395.12 78.1703 1396.44 79.3503 1397.43 80.9453C1398.44 82.5404 1398.94 84.4447 1398.94 86.6582C1398.94 87.7162 1398.79 88.7904 1398.48 89.8809C1398.17 90.9551 1397.79 91.9561 1397.33 92.8838C1396.88 93.8115 1396.22 94.8206 1395.38 95.9111C1394.53 97.0016 1393.73 97.9619 1392.99 98.792C1392.25 99.6058 1391.27 100.582 1390.03 101.722C1388.81 102.861 1387.76 103.813 1386.88 104.578C1386.02 105.327 1384.87 106.303 1383.44 107.508L1399.41 107.508ZM1427.53 110.462C1425.35 111.992 1422.85 112.757 1420.04 112.757C1417.22 112.757 1414.71 111.992 1412.52 110.462C1410.32 108.916 1408.61 106.759 1407.39 103.992C1406.19 101.225 1405.58 98.0596 1405.58 94.4951C1405.58 90.9469 1406.19 87.7894 1407.39 85.0225C1408.61 82.2393 1410.32 80.0827 1412.52 78.5527C1414.71 77.0228 1417.22 76.2578 1420.04 76.2578C1422.85 76.2578 1425.35 77.0228 1427.53 78.5527C1429.73 80.0827 1431.43 82.2311 1432.63 84.9981C1433.84 87.765 1434.44 90.9307 1434.44 94.4951C1434.44 98.0596 1433.84 101.225 1432.63 103.992C1431.43 106.759 1429.73 108.916 1427.53 110.462ZM1413.2 104.334C1414.96 106.808 1417.24 108.045 1420.04 108.045C1422.84 108.045 1425.1 106.816 1426.82 104.358C1428.56 101.884 1429.44 98.5967 1429.44 94.4951C1429.44 90.3936 1428.56 87.1139 1426.82 84.6563C1425.1 82.1823 1422.84 80.9453 1420.04 80.9453C1417.24 80.9453 1414.96 82.1823 1413.2 84.6563C1411.46 87.1302 1410.59 90.4098 1410.59 94.4951C1410.59 98.5804 1411.46 101.86 1413.2 104.334ZM1452.43 76.2578C1453.75 76.2578 1455.03 76.4531 1456.27 76.8438C1457.52 77.2181 1458.72 77.8447 1459.88 78.7237C1461.05 79.6026 1462.07 80.6849 1462.93 81.9707C1463.79 83.2565 1464.49 84.8841 1465.01 86.8535C1465.53 88.8067 1465.79 90.9876 1465.79 93.3965C1465.79 96.3913 1465.36 99.1094 1464.52 101.551C1463.69 103.976 1462.52 106.01 1461 107.654C1459.51 109.282 1457.72 110.543 1455.63 111.438C1453.55 112.317 1451.27 112.757 1448.8 112.757C1448.21 112.757 1447.47 112.684 1446.57 112.537C1445.68 112.407 1444.93 112.228 1444.33 112L1443.55 106.751C1445.45 107.549 1447.5 107.947 1449.7 107.947C1451.08 107.947 1452.41 107.711 1453.68 107.239C1454.95 106.751 1456.13 106.035 1457.22 105.091C1458.31 104.147 1459.2 102.869 1459.88 101.258C1460.58 99.6302 1460.98 97.7748 1461.08 95.6914C1460.08 97.4818 1458.78 98.792 1457.17 99.6221C1455.57 100.436 1453.82 100.843 1451.9 100.843C1449.78 100.843 1447.82 100.371 1446.01 99.4268C1444.21 98.4828 1442.74 97.1237 1441.62 95.3496C1440.5 93.5593 1439.93 91.541 1439.93 89.2949C1439.93 85.4863 1441.1 82.3613 1443.42 79.9199C1445.75 77.4785 1448.76 76.2578 1452.43 76.2578ZM1452.53 96.2529C1454.65 96.2529 1456.39 95.5368 1457.76 94.1045C1459.14 92.6722 1459.83 90.8412 1459.83 88.6113C1459.83 86.4466 1459.1 84.6319 1457.63 83.167C1456.19 81.6859 1454.48 80.9453 1452.53 80.9453C1450.32 80.9453 1448.49 81.6696 1447.06 83.1182C1445.65 84.5505 1444.94 86.3815 1444.94 88.6113C1444.94 90.9551 1445.62 92.8187 1446.99 94.2022C1448.36 95.5694 1450.2 96.2529 1452.53 96.2529Z" fill="#0D1846"/>
<path d="M903.006 79.041L908.011 76.209V112H903.006V79.041ZM938.406 107.508V112H915.14V108.46L919.437 104.847C921.015 103.528 922.382 102.348 923.538 101.307C924.694 100.265 925.931 99.0687 927.249 97.7178C928.567 96.3669 929.633 95.1217 930.447 93.9824C931.277 92.8268 931.961 91.6143 932.498 90.3447C933.035 89.0752 933.287 87.8789 933.255 86.7559C933.206 84.8841 932.571 83.403 931.351 82.3125C930.146 81.2057 928.51 80.6523 926.443 80.6523C924.067 80.6523 922.277 81.3604 921.072 82.7764C919.884 84.1761 919.29 86.0316 919.29 88.3428C919.29 88.7008 919.323 89.2542 919.388 90.0029L914.847 87.9033V87.708C914.847 84.2575 915.953 81.4906 918.167 79.4072C920.381 77.3076 923.294 76.2578 926.907 76.2578C928.991 76.2578 930.846 76.6403 932.474 77.4053C934.118 78.1702 935.436 79.3503 936.429 80.9453C937.438 82.5404 937.942 84.4447 937.942 86.6582C937.942 87.7161 937.788 88.7904 937.479 89.8809C937.169 90.9551 936.787 91.9561 936.331 92.8838C935.875 93.8115 935.224 94.8206 934.378 95.9111C933.532 97.0016 932.734 97.9619 931.985 98.792C931.253 99.6058 930.268 100.582 929.031 101.722C927.811 102.861 926.761 103.813 925.882 104.578C925.019 105.327 923.872 106.303 922.439 107.508H938.406ZM966.531 110.462C964.35 111.992 961.852 112.757 959.036 112.757C956.22 112.757 953.714 111.992 951.517 110.462C949.319 108.916 947.61 106.759 946.39 103.992C945.185 101.225 944.583 98.0596 944.583 94.4951C944.583 90.9469 945.185 87.7894 946.39 85.0225C947.61 82.2393 949.319 80.0827 951.517 78.5527C953.714 77.0228 956.22 76.2578 959.036 76.2578C961.852 76.2578 964.35 77.0228 966.531 78.5527C968.729 80.0827 970.429 82.2311 971.634 84.998C972.838 87.765 973.44 90.9307 973.44 94.4951C973.44 98.0596 972.838 101.225 971.634 103.992C970.429 106.759 968.729 108.916 966.531 110.462ZM952.2 104.334C953.958 106.808 956.237 108.045 959.036 108.045C961.836 108.045 964.098 106.816 965.823 104.358C967.565 101.884 968.436 98.5967 968.436 94.4951C968.436 90.3936 967.565 87.1139 965.823 84.6562C964.098 82.1823 961.836 80.9453 959.036 80.9453C956.237 80.9453 953.958 82.1823 952.2 84.6562C950.459 87.1302 949.588 90.4098 949.588 94.4951C949.588 98.5804 950.459 101.86 952.2 104.334ZM991.434 76.2578C992.752 76.2578 994.03 76.4531 995.267 76.8438C996.52 77.2181 997.724 77.8447 998.88 78.7236C1000.05 79.6025 1001.07 80.6849 1001.93 81.9707C1002.79 83.2565 1003.49 84.8841 1004.01 86.8535C1004.53 88.8066 1004.79 90.9876 1004.79 93.3965C1004.79 96.3913 1004.36 99.1094 1003.52 101.551C1002.69 103.976 1001.52 106.01 1000 107.654C998.506 109.282 996.715 110.543 994.632 111.438C992.549 112.317 990.27 112.757 987.796 112.757C987.21 112.757 986.469 112.684 985.574 112.537C984.679 112.407 983.93 112.228 983.328 112L982.547 106.751C984.451 107.549 986.502 107.947 988.699 107.947C990.083 107.947 991.409 107.711 992.679 107.239C993.948 106.751 995.128 106.035 996.219 105.091C997.309 104.147 998.196 102.869 998.88 101.258C999.58 99.6302 999.979 97.7747 1000.08 95.6914C999.083 97.4818 997.781 98.792 996.17 99.6221C994.575 100.436 992.817 100.843 990.896 100.843C988.781 100.843 986.819 100.371 985.013 99.4268C983.206 98.4827 981.741 97.1237 980.618 95.3496C979.495 93.5592 978.934 91.541 978.934 89.2949C978.934 85.4863 980.097 82.3613 982.425 79.9199C984.752 77.4785 987.755 76.2578 991.434 76.2578ZM991.531 96.2529C993.647 96.2529 995.389 95.5368 996.756 94.1045C998.139 92.6722 998.831 90.8411 998.831 88.6113C998.831 86.4466 998.099 84.6318 996.634 83.167C995.185 81.6859 993.484 80.9453 991.531 80.9453C989.318 80.9453 987.495 81.6696 986.062 83.1182C984.646 84.5505 983.938 86.3815 983.938 88.6113C983.938 90.9551 984.622 92.8187 985.989 94.2021C987.356 95.5693 989.204 96.2529 991.531 96.2529Z" fill="#0D1846"/>
<path d="M602.006 79.041L607.011 76.209L607.011 112L602.006 112L602.006 79.041ZM637.406 107.508L637.406 112L614.14 112L614.14 108.46L618.437 104.847C620.015 103.528 621.382 102.348 622.538 101.307C623.694 100.265 624.931 99.0687 626.249 97.7178C627.567 96.3669 628.633 95.1218 629.447 93.9824C630.277 92.8268 630.961 91.6143 631.498 90.3447C632.035 89.0752 632.287 87.8789 632.255 86.7559C632.206 84.8841 631.571 83.403 630.351 82.3125C629.146 81.2057 627.51 80.6523 625.443 80.6523C623.067 80.6523 621.277 81.3604 620.072 82.7764C618.884 84.1761 618.29 86.0316 618.29 88.3428C618.29 88.7009 618.323 89.2542 618.388 90.0029L613.847 87.9033L613.847 87.708C613.847 84.2575 614.953 81.4906 617.167 79.4072C619.381 77.3076 622.294 76.2578 625.907 76.2578C627.991 76.2578 629.846 76.6403 631.474 77.4053C633.118 78.1703 634.436 79.3503 635.429 80.9453C636.438 82.5404 636.942 84.4447 636.942 86.6582C636.942 87.7162 636.788 88.7904 636.479 89.8809C636.169 90.9551 635.787 91.9561 635.331 92.8838C634.875 93.8115 634.224 94.8206 633.378 95.9111C632.532 97.0016 631.734 97.9619 630.985 98.792C630.253 99.6058 629.268 100.582 628.031 101.722C626.811 102.861 625.761 103.813 624.882 104.578C624.019 105.327 622.872 106.303 621.439 107.508L637.406 107.508ZM665.531 110.462C663.35 111.992 660.852 112.757 658.036 112.757C655.22 112.757 652.714 111.992 650.517 110.462C648.319 108.916 646.61 106.759 645.39 103.992C644.185 101.225 643.583 98.0596 643.583 94.4951C643.583 90.9469 644.185 87.7894 645.39 85.0225C646.61 82.2393 648.319 80.0827 650.517 78.5527C652.714 77.0228 655.22 76.2578 658.036 76.2578C660.852 76.2578 663.35 77.0228 665.531 78.5527C667.729 80.0827 669.429 82.2311 670.634 84.9981C671.838 87.765 672.44 90.9307 672.44 94.4951C672.44 98.0596 671.838 101.225 670.634 103.992C669.429 106.759 667.729 108.916 665.531 110.462ZM651.2 104.334C652.958 106.808 655.237 108.045 658.036 108.045C660.836 108.045 663.098 106.816 664.823 104.358C666.565 101.884 667.436 98.5967 667.436 94.4951C667.436 90.3936 666.565 87.1139 664.823 84.6563C663.098 82.1823 660.836 80.9453 658.036 80.9453C655.237 80.9453 652.958 82.1823 651.2 84.6563C649.459 87.1302 648.588 90.4098 648.588 94.4951C648.588 98.5804 649.459 101.86 651.2 104.334ZM689.53 88.3428C690.963 88.3428 692.33 88.5788 693.632 89.0508C694.934 89.5228 696.114 90.2145 697.172 91.126C698.23 92.0375 699.068 93.2419 699.687 94.7393C700.321 96.2367 700.639 97.9212 700.639 99.793C700.639 102.218 700.077 104.424 698.954 106.409C697.831 108.379 696.26 109.933 694.242 111.072C692.224 112.195 689.953 112.757 687.431 112.757C682.938 112.757 679.228 111.186 676.298 108.045L677.738 102.894C680.587 106.393 683.817 108.143 687.431 108.143C689.888 108.143 691.866 107.353 693.363 105.774C694.877 104.196 695.634 102.202 695.634 99.793C695.634 97.6445 694.918 95.9437 693.485 94.6904C692.053 93.4372 690.385 92.8106 688.48 92.8106C687.227 92.8106 686.047 93.1035 684.94 93.6895C683.85 94.2591 682.979 95.0973 682.328 96.2041L678.544 94.5928L680.082 76.9902L699.149 76.9903L699.149 81.5069L684.086 81.5069L683.231 90.4912C685.119 89.0589 687.219 88.3428 689.53 88.3428Z" fill="#0D1846"/>
<path d="M342.006 79.041L347.011 76.209L347.011 112L342.006 112L342.006 79.041ZM377.406 107.508L377.406 112L354.14 112L354.14 108.46L358.437 104.847C360.015 103.528 361.382 102.348 362.538 101.307C363.694 100.265 364.931 99.0687 366.249 97.7178C367.567 96.3669 368.633 95.1218 369.447 93.9824C370.277 92.8268 370.961 91.6143 371.498 90.3447C372.035 89.0752 372.287 87.8789 372.255 86.7559C372.206 84.8841 371.571 83.403 370.351 82.3125C369.146 81.2057 367.51 80.6523 365.443 80.6523C363.067 80.6523 361.277 81.3604 360.072 82.7764C358.884 84.1761 358.29 86.0316 358.29 88.3428C358.29 88.7009 358.323 89.2542 358.388 90.0029L353.847 87.9033L353.847 87.708C353.847 84.2575 354.953 81.4906 357.167 79.4072C359.381 77.3076 362.294 76.2578 365.907 76.2578C367.991 76.2578 369.846 76.6403 371.474 77.4053C373.118 78.1703 374.436 79.3503 375.429 80.9453C376.438 82.5404 376.942 84.4447 376.942 86.6582C376.942 87.7162 376.788 88.7904 376.479 89.8809C376.169 90.9551 375.787 91.9561 375.331 92.8838C374.875 93.8115 374.224 94.8206 373.378 95.9111C372.532 97.0016 371.734 97.9619 370.985 98.792C370.253 99.6058 369.268 100.582 368.031 101.722C366.811 102.861 365.761 103.813 364.882 104.578C364.019 105.327 362.872 106.303 361.439 107.508L377.406 107.508ZM405.531 110.462C403.35 111.992 400.852 112.757 398.036 112.757C395.22 112.757 392.714 111.992 390.517 110.462C388.319 108.916 386.61 106.759 385.39 103.992C384.185 101.225 383.583 98.0596 383.583 94.4951C383.583 90.9469 384.185 87.7894 385.39 85.0225C386.61 82.2393 388.319 80.0827 390.517 78.5527C392.714 77.0228 395.22 76.2578 398.036 76.2578C400.852 76.2578 403.35 77.0228 405.531 78.5527C407.729 80.0827 409.429 82.2311 410.634 84.9981C411.838 87.765 412.44 90.9307 412.44 94.4951C412.44 98.0596 411.838 101.225 410.634 103.992C409.429 106.759 407.729 108.916 405.531 110.462ZM391.2 104.334C392.958 106.808 395.237 108.045 398.036 108.045C400.836 108.045 403.098 106.816 404.823 104.358C406.565 101.884 407.436 98.5967 407.436 94.4951C407.436 90.3936 406.565 87.1139 404.823 84.6563C403.098 82.1823 400.836 80.9453 398.036 80.9453C395.237 80.9453 392.958 82.1823 391.2 84.6563C389.459 87.1302 388.588 90.4098 388.588 94.4951C388.588 98.5804 389.459 101.86 391.2 104.334ZM430.507 90.7598C433.404 90.7598 435.829 91.6794 437.782 93.5186C439.735 95.3415 440.712 97.8154 440.712 100.94C440.712 104.244 439.426 107.044 436.854 109.339C434.299 111.618 431.133 112.757 427.357 112.757C425.095 112.757 422.963 112.366 420.961 111.585C418.959 110.804 417.226 109.673 415.761 108.191L417.104 102.894C420.098 106.295 423.516 108.045 427.357 108.143C429.783 108.143 431.768 107.492 433.314 106.189C434.877 104.871 435.658 103.121 435.658 100.94C435.658 98.9059 435.023 97.319 433.754 96.1797C432.484 95.0241 430.84 94.4463 428.822 94.4463C427.26 94.4463 425.657 94.8939 424.013 95.7891L421.62 92.542L433.07 81.5069L417.372 81.5069L417.372 76.9902L439.223 76.9903L439.223 80.8965L429.066 90.8574C429.392 90.7923 429.872 90.7598 430.507 90.7598Z" fill="#0D1846"/>
<path d="M186.006 79.041L191.011 76.209L191.011 112L186.006 112L186.006 79.041ZM221.406 107.508L221.406 112L198.14 112L198.14 108.46L202.437 104.847C204.015 103.528 205.382 102.348 206.538 101.307C207.694 100.265 208.931 99.0687 210.249 97.7178C211.567 96.3669 212.633 95.1218 213.447 93.9824C214.277 92.8268 214.961 91.6143 215.498 90.3447C216.035 89.0752 216.287 87.8789 216.255 86.7559C216.206 84.8841 215.571 83.403 214.351 82.3125C213.146 81.2057 211.51 80.6523 209.443 80.6523C207.067 80.6523 205.277 81.3604 204.072 82.7764C202.884 84.1761 202.29 86.0316 202.29 88.3428C202.29 88.7009 202.323 89.2542 202.388 90.0029L197.847 87.9033L197.847 87.708C197.847 84.2575 198.953 81.4906 201.167 79.4072C203.381 77.3076 206.294 76.2578 209.907 76.2578C211.991 76.2578 213.846 76.6403 215.474 77.4053C217.118 78.1703 218.436 79.3503 219.429 80.9453C220.438 82.5404 220.942 84.4447 220.942 86.6582C220.942 87.7162 220.788 88.7904 220.479 89.8809C220.169 90.9551 219.787 91.9561 219.331 92.8838C218.875 93.8115 218.224 94.8206 217.378 95.9111C216.532 97.0016 215.734 97.9619 214.985 98.792C214.253 99.6058 213.268 100.582 212.031 101.722C210.811 102.861 209.761 103.813 208.882 104.578C208.019 105.327 206.872 106.303 205.439 107.508L221.406 107.508ZM249.531 110.462C247.35 111.992 244.852 112.757 242.036 112.757C239.22 112.757 236.714 111.992 234.517 110.462C232.319 108.916 230.61 106.759 229.39 103.992C228.185 101.225 227.583 98.0596 227.583 94.4951C227.583 90.9469 228.185 87.7894 229.39 85.0225C230.61 82.2393 232.319 80.0827 234.517 78.5527C236.714 77.0228 239.22 76.2578 242.036 76.2578C244.852 76.2578 247.35 77.0228 249.531 78.5527C251.729 80.0827 253.429 82.2311 254.634 84.9981C255.838 87.765 256.44 90.9307 256.44 94.4951C256.44 98.0596 255.838 101.225 254.634 103.992C253.429 106.759 251.729 108.916 249.531 110.462ZM235.2 104.334C236.958 106.808 239.237 108.045 242.036 108.045C244.836 108.045 247.098 106.816 248.823 104.358C250.565 101.884 251.436 98.5967 251.436 94.4951C251.436 90.3936 250.565 87.1139 248.823 84.6563C247.098 82.1823 244.836 80.9453 242.036 80.9453C239.237 80.9453 236.958 82.1823 235.2 84.6563C233.459 87.1302 232.588 90.4098 232.588 94.4951C232.588 98.5804 233.459 101.86 235.2 104.334ZM274.507 90.7598C277.404 90.7598 279.829 91.6794 281.782 93.5186C283.735 95.3415 284.712 97.8154 284.712 100.94C284.712 104.244 283.426 107.044 280.854 109.339C278.299 111.618 275.133 112.757 271.357 112.757C269.095 112.757 266.963 112.366 264.961 111.585C262.959 110.804 261.226 109.673 259.761 108.191L261.104 102.894C264.098 106.295 267.516 108.045 271.357 108.143C273.783 108.143 275.768 107.492 277.314 106.189C278.877 104.871 279.658 103.121 279.658 100.94C279.658 98.9059 279.023 97.319 277.754 96.1797C276.484 95.0241 274.84 94.4463 272.822 94.4463C271.26 94.4463 269.657 94.8939 268.013 95.7891L265.62 92.542L277.07 81.5069L261.372 81.5069L261.372 76.9902L283.223 76.9903L283.223 80.8965L273.066 90.8574C273.392 90.7923 273.872 90.7598 274.507 90.7598Z" fill="#0D1846"/>
<path d="M512.006 328.041L517.011 325.209L517.011 361L512.006 361L512.006 328.041ZM547.406 356.508L547.406 361L524.14 361L524.14 357.46L528.437 353.847C530.015 352.528 531.382 351.348 532.538 350.307C533.694 349.265 534.931 348.069 536.249 346.718C537.567 345.367 538.633 344.122 539.447 342.982C540.277 341.827 540.961 340.614 541.498 339.345C542.035 338.075 542.287 336.879 542.255 335.756C542.206 333.884 541.571 332.403 540.351 331.313C539.146 330.206 537.51 329.652 535.443 329.652C533.067 329.652 531.277 330.36 530.072 331.776C528.884 333.176 528.29 335.032 528.29 337.343C528.29 337.701 528.323 338.254 528.388 339.003L523.847 336.903L523.847 336.708C523.847 333.257 524.953 330.491 527.167 328.407C529.381 326.308 532.294 325.258 535.907 325.258C537.991 325.258 539.846 325.64 541.474 326.405C543.118 327.17 544.436 328.35 545.429 329.945C546.438 331.54 546.942 333.445 546.942 335.658C546.942 336.716 546.788 337.79 546.479 338.881C546.169 339.955 545.787 340.956 545.331 341.884C544.875 342.812 544.224 343.821 543.378 344.911C542.532 346.002 541.734 346.962 540.985 347.792C540.253 348.606 539.268 349.582 538.031 350.722C536.811 351.861 535.761 352.813 534.882 353.578C534.019 354.327 532.872 355.303 531.439 356.508L547.406 356.508ZM575.531 359.462C573.35 360.992 570.852 361.757 568.036 361.757C565.22 361.757 562.714 360.992 560.517 359.462C558.319 357.916 556.61 355.759 555.39 352.992C554.185 350.225 553.583 347.06 553.583 343.495C553.583 339.947 554.185 336.789 555.39 334.022C556.61 331.239 558.319 329.083 560.517 327.553C562.714 326.023 565.22 325.258 568.036 325.258C570.852 325.258 573.35 326.023 575.531 327.553C577.729 329.083 579.429 331.231 580.634 333.998C581.838 336.765 582.44 339.931 582.44 343.495C582.44 347.06 581.838 350.225 580.634 352.992C579.429 355.759 577.729 357.916 575.531 359.462ZM561.2 353.334C562.958 355.808 565.237 357.045 568.036 357.045C570.836 357.045 573.098 355.816 574.823 353.358C576.565 350.884 577.436 347.597 577.436 343.495C577.436 339.394 576.565 336.114 574.823 333.656C573.098 331.182 570.836 329.945 568.036 329.945C565.237 329.945 562.958 331.182 561.2 333.656C559.459 336.13 558.588 339.41 558.588 343.495C558.588 347.58 559.459 350.86 561.2 353.334ZM607.343 343.202C608.987 344.032 610.272 345.163 611.2 346.596C612.128 348.012 612.592 349.566 612.592 351.259C612.592 354.351 611.444 356.874 609.149 358.827C606.854 360.78 603.917 361.757 600.336 361.757C596.755 361.757 593.817 360.78 591.522 358.827C589.228 356.874 588.08 354.351 588.08 351.259C588.08 349.566 588.544 348.012 589.472 346.596C590.399 345.163 591.685 344.032 593.329 343.202C591.799 342.372 590.611 341.282 589.765 339.931C588.918 338.58 588.495 337.107 588.495 335.512C588.495 332.501 589.602 330.043 591.815 328.139C594.029 326.218 596.869 325.258 600.336 325.258C603.803 325.258 606.643 326.218 608.856 328.139C611.07 330.043 612.177 332.501 612.177 335.512C612.177 337.107 611.754 338.58 610.907 339.931C610.061 341.282 608.873 342.372 607.343 343.202ZM605.536 331.215C604.234 330.141 602.501 329.604 600.336 329.604C598.171 329.604 596.438 330.141 595.136 331.215C593.834 332.289 593.183 333.721 593.183 335.512C593.183 337.221 593.874 338.604 595.258 339.662C596.641 340.72 598.334 341.249 600.336 341.249C602.338 341.249 604.031 340.72 605.414 339.662C606.798 338.604 607.489 337.221 607.489 335.512C607.489 333.721 606.838 332.289 605.536 331.215ZM594.843 355.751C596.21 356.858 598.041 357.411 600.336 357.411C602.631 357.411 604.462 356.858 605.829 355.751C607.196 354.628 607.88 353.131 607.88 351.259C607.88 349.452 607.172 348.004 605.756 346.913C604.34 345.806 602.533 345.253 600.336 345.253C598.139 345.253 596.332 345.806 594.916 346.913C593.5 348.004 592.792 349.452 592.792 351.259C592.792 353.131 593.476 354.628 594.843 355.751Z" fill="#0D1846"/>
<path d="M274.006 328.041L279.011 325.209L279.011 361L274.006 361L274.006 328.041ZM309.406 356.508L309.406 361L286.14 361L286.14 357.46L290.437 353.847C292.015 352.528 293.382 351.348 294.538 350.307C295.694 349.265 296.931 348.069 298.249 346.718C299.567 345.367 300.633 344.122 301.447 342.982C302.277 341.827 302.961 340.614 303.498 339.345C304.035 338.075 304.287 336.879 304.255 335.756C304.206 333.884 303.571 332.403 302.351 331.313C301.146 330.206 299.51 329.652 297.443 329.652C295.067 329.652 293.277 330.36 292.072 331.776C290.884 333.176 290.29 335.032 290.29 337.343C290.29 337.701 290.323 338.254 290.388 339.003L285.847 336.903L285.847 336.708C285.847 333.257 286.953 330.491 289.167 328.407C291.381 326.308 294.294 325.258 297.907 325.258C299.991 325.258 301.846 325.64 303.474 326.405C305.118 327.17 306.436 328.35 307.429 329.945C308.438 331.54 308.942 333.445 308.942 335.658C308.942 336.716 308.788 337.79 308.479 338.881C308.169 339.955 307.787 340.956 307.331 341.884C306.875 342.812 306.224 343.821 305.378 344.911C304.532 346.002 303.734 346.962 302.985 347.792C302.253 348.606 301.268 349.582 300.031 350.722C298.811 351.861 297.761 352.813 296.882 353.578C296.019 354.327 294.872 355.303 293.439 356.508L309.406 356.508ZM337.531 359.462C335.35 360.992 332.852 361.757 330.036 361.757C327.22 361.757 324.714 360.992 322.517 359.462C320.319 357.916 318.61 355.759 317.39 352.992C316.185 350.225 315.583 347.06 315.583 343.495C315.583 339.947 316.185 336.789 317.39 334.022C318.61 331.239 320.319 329.083 322.517 327.553C324.714 326.023 327.22 325.258 330.036 325.258C332.852 325.258 335.35 326.023 337.531 327.553C339.729 329.083 341.429 331.231 342.634 333.998C343.838 336.765 344.44 339.931 344.44 343.495C344.44 347.06 343.838 350.225 342.634 352.992C341.429 355.759 339.729 357.916 337.531 359.462ZM323.2 353.334C324.958 355.808 327.237 357.045 330.036 357.045C332.836 357.045 335.098 355.816 336.823 353.358C338.565 350.884 339.436 347.597 339.436 343.495C339.436 339.394 338.565 336.114 336.823 333.656C335.098 331.182 332.836 329.945 330.036 329.945C327.237 329.945 324.958 331.182 323.2 333.656C321.459 336.13 320.588 339.41 320.588 343.495C320.588 347.58 321.459 350.86 323.2 353.334ZM364.826 337.147C366.942 337.147 368.903 337.619 370.71 338.563C372.517 339.508 373.981 340.875 375.104 342.665C376.228 344.439 376.789 346.449 376.789 348.695C376.789 352.504 375.625 355.637 373.298 358.095C370.97 360.536 367.967 361.757 364.289 361.757C362.971 361.757 361.685 361.562 360.432 361.171C359.195 360.797 357.99 360.17 356.818 359.291C355.663 358.412 354.654 357.33 353.791 356.044C352.928 354.742 352.237 353.114 351.716 351.161C351.195 349.192 350.935 347.003 350.935 344.594C350.935 341.615 351.35 338.905 352.18 336.464C353.026 334.022 354.198 331.988 355.695 330.36C357.209 328.733 359.007 327.48 361.091 326.601C363.174 325.705 365.453 325.258 367.927 325.258C369.603 325.258 371.092 325.502 372.395 325.99L373.176 331.239C371.271 330.442 369.229 330.043 367.048 330.043C365.664 330.043 364.338 330.287 363.068 330.775C361.799 331.247 360.611 331.955 359.504 332.899C358.413 333.843 357.518 335.129 356.818 336.757C356.135 338.368 355.744 340.216 355.646 342.299C356.639 340.508 357.933 339.206 359.528 338.393C361.14 337.563 362.906 337.147 364.826 337.147ZM364.191 357.045C366.405 357.045 368.22 356.329 369.636 354.897C371.068 353.464 371.784 351.633 371.784 349.403C371.784 347.06 371.101 345.204 369.733 343.837C368.366 342.453 366.519 341.762 364.191 341.762C362.076 341.762 360.326 342.478 358.942 343.91C357.575 345.342 356.892 347.174 356.892 349.403C356.892 351.568 357.616 353.383 359.064 354.848C360.529 356.313 362.238 357.045 364.191 357.045Z" fill="#0D1846"/>
<path d="M170.041 396.994L167.209 391.989L203 391.989L203 396.994L170.041 396.994ZM198.508 361.594L203 361.594L203 384.86L199.46 384.86L195.847 380.563C194.528 378.985 193.348 377.618 192.307 376.462C191.265 375.306 190.069 374.069 188.718 372.751C187.367 371.433 186.122 370.367 184.982 369.553C183.827 368.723 182.614 368.039 181.345 367.502C180.075 366.965 178.879 366.713 177.756 366.745C175.884 366.794 174.403 367.429 173.313 368.649C172.206 369.854 171.652 371.49 171.652 373.557C171.652 375.933 172.36 377.723 173.776 378.928C175.176 380.116 177.032 380.71 179.343 380.71C179.701 380.71 180.254 380.677 181.003 380.612L178.903 385.153L178.708 385.153C175.257 385.153 172.491 384.047 170.407 381.833C168.308 379.619 167.258 376.706 167.258 373.093C167.258 371.009 167.64 369.154 168.405 367.526C169.17 365.882 170.35 364.564 171.945 363.571C173.54 362.562 175.445 362.058 177.658 362.058C178.716 362.058 179.79 362.212 180.881 362.521C181.955 362.831 182.956 363.213 183.884 363.669C184.812 364.125 185.821 364.776 186.911 365.622C188.002 366.468 188.962 367.266 189.792 368.015C190.606 368.747 191.582 369.732 192.722 370.969C193.861 372.189 194.813 373.239 195.578 374.118C196.327 374.981 197.303 376.128 198.508 377.561L198.508 361.594ZM201.462 333.469C202.992 335.65 203.757 338.148 203.757 340.964C203.757 343.78 202.992 346.286 201.462 348.483C199.916 350.681 197.759 352.39 194.992 353.61C192.225 354.815 189.06 355.417 185.495 355.417C181.947 355.417 178.789 354.815 176.022 353.61C173.239 352.39 171.083 350.681 169.553 348.483C168.023 346.286 167.258 343.78 167.258 340.964C167.258 338.148 168.023 335.65 169.553 333.469C171.083 331.271 173.231 329.571 175.998 328.366C178.765 327.162 181.931 326.56 185.495 326.56C189.06 326.56 192.225 327.162 194.992 328.366C197.759 329.571 199.916 331.271 201.462 333.469ZM195.334 347.8C197.808 346.042 199.045 343.763 199.045 340.964C199.045 338.164 197.816 335.902 195.358 334.177C192.884 332.435 189.597 331.564 185.495 331.564C181.394 331.564 178.114 332.435 175.656 334.177C173.182 335.902 171.945 338.164 171.945 340.964C171.945 343.763 173.182 346.042 175.656 347.8C178.13 349.541 181.41 350.412 185.495 350.412C189.58 350.412 192.86 349.541 195.334 347.8ZM194.089 294.064L194.089 300.705L203.757 300.705L203.757 305.71L194.089 305.71L194.089 323.264L189.89 323.264L167.99 303.708L167.99 300.705L189.646 300.705L189.646 294.064L194.089 294.064ZM189.646 305.71L176.242 305.71L189.646 317.551L189.646 305.71Z" fill="#0D1846"/>
<path d="M30.0059 328.041L35.0107 325.209L35.0107 361L30.0059 361L30.0059 328.041ZM65.4062 356.508L65.4062 361L42.1396 361L42.1396 357.46L46.4365 353.847C48.0153 352.528 49.3825 351.348 50.5381 350.307C51.6937 349.265 52.9307 348.069 54.249 346.718C55.5674 345.367 56.6335 344.122 57.4473 342.982C58.2773 341.827 58.9609 340.614 59.498 339.345C60.0352 338.075 60.2874 336.879 60.2549 335.756C60.2061 333.884 59.5713 332.403 58.3506 331.313C57.1462 330.206 55.5104 329.652 53.4434 329.652C51.0671 329.652 49.2767 330.36 48.0723 331.776C46.8841 333.176 46.29 335.032 46.29 337.343C46.29 337.701 46.3226 338.254 46.3877 339.003L41.8467 336.903L41.8467 336.708C41.8467 333.257 42.9534 330.491 45.167 328.407C47.3805 326.308 50.2939 325.258 53.9072 325.258C55.9906 325.258 57.846 325.64 59.4736 326.405C61.1175 327.17 62.4359 328.35 63.4287 329.945C64.4378 331.54 64.9424 333.445 64.9424 335.658C64.9424 336.716 64.7878 337.79 64.4785 338.881C64.1693 339.955 63.7868 340.956 63.3311 341.884C62.8753 342.812 62.2243 343.821 61.3779 344.911C60.5316 346.002 59.734 346.962 58.9853 347.792C58.2529 348.606 57.2682 349.582 56.0312 350.722C54.8105 351.861 53.7607 352.813 52.8818 353.578C52.0192 354.327 50.8717 355.303 49.4394 356.508L65.4062 356.508ZM93.5312 359.462C91.3503 360.992 88.8519 361.757 86.0361 361.757C83.2204 361.757 80.7139 360.992 78.5166 359.462C76.3193 357.916 74.6103 355.759 73.3896 352.992C72.1852 350.225 71.583 347.06 71.583 343.495C71.583 339.947 72.1852 336.789 73.3896 334.022C74.6104 331.239 76.3193 329.083 78.5166 327.553C80.7139 326.023 83.2204 325.258 86.0361 325.258C88.8519 325.258 91.3503 326.023 93.5312 327.553C95.7285 329.083 97.4294 331.231 98.6338 333.998C99.8382 336.765 100.44 339.931 100.44 343.495C100.44 347.06 99.8382 350.225 98.6338 352.992C97.4294 355.759 95.7285 357.916 93.5312 359.462ZM79.2002 353.334C80.958 355.808 83.2366 357.045 86.0361 357.045C88.8356 357.045 91.098 355.816 92.8232 353.358C94.5648 350.884 95.4355 347.597 95.4355 343.495C95.4355 339.394 94.5648 336.114 92.8232 333.656C91.098 331.182 88.8356 329.945 86.0361 329.945C83.2367 329.945 80.958 331.182 79.2002 333.656C77.4587 336.13 76.5879 339.41 76.5879 343.495C76.5879 347.58 77.4587 350.86 79.2002 353.334ZM128.346 356.508L128.346 361L105.079 361L105.079 357.46L109.376 353.847C110.955 352.528 112.322 351.348 113.478 350.307C114.633 349.265 115.87 348.069 117.188 346.718C118.507 345.367 119.573 344.122 120.387 342.982C121.217 341.827 121.9 340.614 122.437 339.345C122.975 338.075 123.227 336.879 123.194 335.756C123.146 333.884 122.511 332.403 121.29 331.313C120.086 330.206 118.45 329.652 116.383 329.652C114.007 329.652 112.216 330.36 111.012 331.776C109.824 333.176 109.229 335.032 109.229 337.343C109.229 337.701 109.262 338.254 109.327 339.003L104.786 336.903L104.786 336.708C104.786 333.258 105.893 330.491 108.106 328.407C110.32 326.308 113.233 325.258 116.847 325.258C118.93 325.258 120.785 325.64 122.413 326.405C124.057 327.17 125.375 328.35 126.368 329.945C127.377 331.54 127.882 333.445 127.882 335.658C127.882 336.716 127.727 337.79 127.418 338.881C127.109 339.955 126.726 340.956 126.271 341.884C125.815 342.812 125.164 343.821 124.317 344.911C123.471 346.002 122.673 346.962 121.925 347.792C121.192 348.606 120.208 349.582 118.971 350.722C117.75 351.861 116.7 352.813 115.821 353.578C114.959 354.327 113.811 355.303 112.379 356.508L128.346 356.508Z" fill="#0D1846"/>
<path d="M37.0059 79.041L42.0107 76.209L42.0107 112L37.0059 112L37.0059 79.041ZM72.4062 107.508L72.4062 112L49.1396 112L49.1396 108.46L53.4365 104.847C55.0153 103.528 56.3825 102.348 57.5381 101.307C58.6937 100.265 59.9307 99.0687 61.249 97.7178C62.5674 96.3669 63.6335 95.1218 64.4473 93.9824C65.2773 92.8268 65.9609 91.6143 66.498 90.3447C67.0352 89.0752 67.2874 87.8789 67.2549 86.7559C67.2061 84.8841 66.5713 83.403 65.3506 82.3125C64.1462 81.2057 62.5104 80.6523 60.4434 80.6523C58.0671 80.6523 56.2767 81.3604 55.0723 82.7764C53.8841 84.1761 53.29 86.0316 53.29 88.3428C53.29 88.7009 53.3226 89.2542 53.3877 90.0029L48.8467 87.9033L48.8467 87.708C48.8467 84.2575 49.9534 81.4906 52.167 79.4072C54.3805 77.3076 57.2939 76.2578 60.9072 76.2578C62.9906 76.2578 64.846 76.6403 66.4736 77.4053C68.1175 78.1703 69.4359 79.3503 70.4287 80.9453C71.4378 82.5404 71.9424 84.4447 71.9424 86.6582C71.9424 87.7162 71.7878 88.7904 71.4785 89.8809C71.1693 90.9551 70.7868 91.9561 70.3311 92.8838C69.8753 93.8115 69.2243 94.8206 68.3779 95.9111C67.5316 97.0016 66.734 97.9619 65.9853 98.792C65.2529 99.6058 64.2682 100.582 63.0312 101.722C61.8105 102.861 60.7607 103.813 59.8818 104.578C59.0192 105.327 57.8717 106.303 56.4394 107.508L72.4062 107.508ZM100.531 110.462C98.3503 111.992 95.8519 112.757 93.0361 112.757C90.2204 112.757 87.7139 111.992 85.5166 110.462C83.3193 108.916 81.6103 106.759 80.3896 103.992C79.1852 101.225 78.583 98.0596 78.583 94.4951C78.583 90.9469 79.1852 87.7894 80.3896 85.0225C81.6104 82.2393 83.3193 80.0827 85.5166 78.5527C87.7139 77.0228 90.2204 76.2578 93.0361 76.2578C95.8519 76.2578 98.3503 77.0228 100.531 78.5527C102.729 80.0827 104.429 82.2311 105.634 84.9981C106.838 87.765 107.44 90.9307 107.44 94.4951C107.44 98.0596 106.838 101.225 105.634 103.992C104.429 106.759 102.729 108.916 100.531 110.462ZM86.2002 104.334C87.958 106.808 90.2366 108.045 93.0361 108.045C95.8356 108.045 98.098 106.816 99.8232 104.358C101.565 101.884 102.436 98.5967 102.436 94.4951C102.436 90.3936 101.565 87.1139 99.8232 84.6563C98.098 82.1823 95.8356 80.9453 93.0361 80.9453C90.2367 80.9453 87.958 82.1823 86.2002 84.6563C84.4587 87.1302 83.5879 90.4098 83.5879 94.4951C83.5879 98.5804 84.4587 101.86 86.2002 104.334ZM116.693 79.041L121.698 76.209L121.698 112L116.693 112L116.693 79.041Z" fill="#0D1846"/>
<path d="M2387.29 324.426L2392.29 321.594L2392.29 357.385L2387.29 357.385L2387.29 324.426ZM2422.69 352.893L2422.69 357.385L2399.42 357.385L2399.42 353.845L2403.72 350.231C2405.3 348.913 2406.67 347.733 2407.82 346.691C2408.98 345.65 2410.21 344.453 2411.53 343.103C2412.85 341.752 2413.92 340.507 2414.73 339.367C2415.56 338.212 2416.24 336.999 2416.78 335.729C2417.32 334.46 2417.57 333.264 2417.54 332.141C2417.49 330.269 2416.85 328.788 2415.63 327.697C2414.43 326.591 2412.79 326.037 2410.73 326.037C2408.35 326.037 2406.56 326.745 2405.36 328.161C2404.17 329.561 2403.57 331.416 2403.57 333.728C2403.57 334.086 2403.61 334.639 2403.67 335.388L2399.13 333.288L2399.13 333.093C2399.13 329.642 2400.24 326.875 2402.45 324.792C2404.66 322.692 2407.58 321.643 2411.19 321.643C2413.27 321.643 2415.13 322.025 2416.76 322.79C2418.4 323.555 2419.72 324.735 2420.71 326.33C2421.72 327.925 2422.23 329.829 2422.23 332.043C2422.23 333.101 2422.07 334.175 2421.76 335.266C2421.45 336.34 2421.07 337.341 2420.61 338.269C2420.16 339.196 2419.51 340.205 2418.66 341.296C2417.81 342.386 2417.02 343.347 2416.27 344.177C2415.54 344.991 2414.55 345.967 2413.31 347.106C2412.09 348.246 2411.04 349.198 2410.17 349.963C2409.3 350.712 2408.15 351.688 2406.72 352.893L2422.69 352.893ZM2450.28 352.893L2450.28 357.385L2427.01 357.385L2427.01 353.845L2431.31 350.231C2432.89 348.913 2434.25 347.733 2435.41 346.691C2436.56 345.65 2437.8 344.453 2439.12 343.103C2440.44 341.752 2441.5 340.507 2442.32 339.367C2443.15 338.212 2443.83 336.999 2444.37 335.73C2444.91 334.46 2445.16 333.264 2445.13 332.141C2445.08 330.269 2444.44 328.788 2443.22 327.697C2442.02 326.591 2440.38 326.037 2438.31 326.037C2435.94 326.037 2434.15 326.745 2432.94 328.161C2431.76 329.561 2431.16 331.416 2431.16 333.728C2431.16 334.086 2431.19 334.639 2431.26 335.388L2426.72 333.288L2426.72 333.093C2426.72 329.642 2427.82 326.875 2430.04 324.792C2432.25 322.692 2435.17 321.643 2438.78 321.643C2440.86 321.643 2442.72 322.025 2444.34 322.79C2445.99 323.555 2447.31 324.735 2448.3 326.33C2449.31 327.925 2449.81 329.829 2449.81 332.043C2449.81 333.101 2449.66 334.175 2449.35 335.266C2449.04 336.34 2448.66 337.341 2448.2 338.269C2447.75 339.196 2447.1 340.205 2446.25 341.296C2445.4 342.386 2444.61 343.347 2443.86 344.177C2443.12 344.991 2442.14 345.967 2440.9 347.106C2439.68 348.246 2438.63 349.198 2437.75 349.963C2436.89 350.712 2435.74 351.688 2434.31 352.893L2450.28 352.893ZM2480.45 348.474L2473.81 348.474L2473.81 358.142L2468.81 358.142L2468.81 348.474L2451.25 348.474L2451.25 344.274L2470.81 322.375L2473.81 322.375L2473.81 344.03L2480.45 344.03L2480.45 348.474ZM2468.81 344.03L2468.81 330.627L2456.97 344.03L2468.81 344.03Z" fill="#0D1846"/>
<path d="M2179.01 326.041L2184.01 323.209L2184.01 359L2179.01 359L2179.01 326.041ZM2214.41 354.508L2214.41 359L2191.14 359L2191.14 355.46L2195.44 351.847C2197.02 350.528 2198.38 349.348 2199.54 348.307C2200.69 347.265 2201.93 346.069 2203.25 344.718C2204.57 343.367 2205.63 342.122 2206.45 340.982C2207.28 339.827 2207.96 338.614 2208.5 337.345C2209.04 336.075 2209.29 334.879 2209.25 333.756C2209.21 331.884 2208.57 330.403 2207.35 329.313C2206.15 328.206 2204.51 327.652 2202.44 327.652C2200.07 327.652 2198.28 328.36 2197.07 329.776C2195.88 331.176 2195.29 333.032 2195.29 335.343C2195.29 335.701 2195.32 336.254 2195.39 337.003L2190.85 334.903L2190.85 334.708C2190.85 331.257 2191.95 328.491 2194.17 326.407C2196.38 324.308 2199.29 323.258 2202.91 323.258C2204.99 323.258 2206.85 323.64 2208.47 324.405C2210.12 325.17 2211.44 326.35 2212.43 327.945C2213.44 329.54 2213.94 331.445 2213.94 333.658C2213.94 334.716 2213.79 335.79 2213.48 336.881C2213.17 337.955 2212.79 338.956 2212.33 339.884C2211.88 340.812 2211.22 341.821 2210.38 342.911C2209.53 344.002 2208.73 344.962 2207.99 345.792C2207.25 346.606 2206.27 347.582 2205.03 348.722C2203.81 349.861 2202.76 350.813 2201.88 351.578C2201.02 352.327 2199.87 353.303 2198.44 354.508L2214.41 354.508ZM2241.99 354.508L2241.99 359L2218.73 359L2218.73 355.46L2223.02 351.847C2224.6 350.528 2225.97 349.348 2227.13 348.307C2228.28 347.265 2229.52 346.069 2230.84 344.718C2232.16 343.367 2233.22 342.122 2234.04 340.982C2234.87 339.827 2235.55 338.614 2236.09 337.345C2236.62 336.075 2236.88 334.879 2236.84 333.756C2236.79 331.884 2236.16 330.403 2234.94 329.313C2233.73 328.206 2232.1 327.652 2230.03 327.652C2227.65 327.652 2225.86 328.36 2224.66 329.776C2223.47 331.176 2222.88 333.032 2222.88 335.343C2222.88 335.701 2222.91 336.254 2222.98 337.003L2218.43 334.903L2218.43 334.708C2218.43 331.257 2219.54 328.491 2221.75 326.407C2223.97 324.308 2226.88 323.258 2230.5 323.258C2232.58 323.258 2234.43 323.64 2236.06 324.405C2237.71 325.17 2239.02 326.35 2240.02 327.945C2241.03 329.54 2241.53 331.445 2241.53 333.658C2241.53 334.716 2241.38 335.79 2241.07 336.881C2240.76 337.955 2240.37 338.956 2239.92 339.884C2239.46 340.812 2238.81 341.821 2237.97 342.911C2237.12 344.002 2236.32 344.962 2235.57 345.792C2234.84 346.606 2233.86 347.582 2232.62 348.722C2231.4 349.861 2230.35 350.813 2229.47 351.578C2228.61 352.327 2227.46 353.303 2226.03 354.508L2241.99 354.508ZM2260.77 337.76C2263.67 337.76 2266.09 338.679 2268.04 340.519C2270 342.341 2270.97 344.815 2270.97 347.94C2270.97 351.244 2269.69 354.044 2267.12 356.339C2264.56 358.618 2261.4 359.757 2257.62 359.757C2255.36 359.757 2253.22 359.366 2251.22 358.585C2249.22 357.804 2247.49 356.673 2246.02 355.191L2247.37 349.894C2250.36 353.295 2253.78 355.045 2257.62 355.143C2260.04 355.143 2262.03 354.492 2263.58 353.189C2265.14 351.871 2265.92 350.121 2265.92 347.94C2265.92 345.906 2265.29 344.319 2264.02 343.18C2262.75 342.024 2261.1 341.446 2259.08 341.446C2257.52 341.446 2255.92 341.894 2254.27 342.789L2251.88 339.542L2263.33 328.507L2247.63 328.507L2247.63 323.99L2269.48 323.99L2269.48 327.897L2259.33 337.857C2259.65 337.792 2260.13 337.76 2260.77 337.76ZM2286.55 333.243C2289.89 333.243 2292.43 334.09 2294.17 335.782C2295.92 337.475 2296.8 339.9 2296.8 343.058L2296.8 359L2292.31 359L2292.31 356.095C2291.3 357.185 2289.88 358.072 2288.04 358.756C2286.2 359.423 2284.46 359.757 2282.81 359.757C2280.55 359.757 2278.67 359.195 2277.17 358.072C2275.69 356.949 2274.95 355.305 2274.95 353.141C2274.95 352.001 2275.2 350.992 2275.69 350.113C2276.17 349.234 2276.87 348.51 2277.79 347.94C2278.71 347.355 2279.71 346.883 2280.76 346.524C2281.82 346.15 2283.05 345.825 2284.45 345.548C2287.67 344.881 2289.63 344.417 2290.33 344.156C2291.38 343.782 2292.02 343.237 2292.26 342.521C2292.36 342.211 2292.41 341.821 2292.41 341.349C2292.41 340.144 2291.9 339.176 2290.87 338.443C2289.85 337.711 2288.39 337.345 2286.5 337.345C2284.55 337.345 2282.68 337.882 2280.89 338.956C2279.11 340.03 2277.79 341.511 2276.91 343.399L2274 339.859C2275.45 337.792 2277.27 336.173 2279.47 335.001C2281.67 333.829 2284.03 333.243 2286.55 333.243ZM2283.4 355.753C2284.87 355.753 2286.29 355.468 2287.67 354.898C2289.07 354.329 2290.22 353.531 2291.12 352.506C2292.01 351.48 2292.46 350.382 2292.46 349.21L2292.46 346.744C2291.14 347.542 2289.02 348.258 2286.11 348.893C2285.28 349.072 2284.64 349.218 2284.18 349.332C2283.73 349.43 2283.2 349.568 2282.59 349.747C2282.01 349.91 2281.56 350.081 2281.25 350.26C2280.94 350.423 2280.63 350.634 2280.3 350.895C2279.99 351.139 2279.77 351.415 2279.64 351.725C2279.53 352.034 2279.47 352.392 2279.47 352.799C2279.47 353.775 2279.77 354.516 2280.37 355.021C2280.99 355.509 2282 355.753 2283.4 355.753Z" fill="#0D1846"/>
<path d="M1373.01 326.041L1378.01 323.209L1378.01 359L1373.01 359L1373.01 326.041ZM1408.41 354.508L1408.41 359L1385.14 359L1385.14 355.46L1389.44 351.847C1391.02 350.528 1392.38 349.348 1393.54 348.307C1394.69 347.265 1395.93 346.069 1397.25 344.718C1398.57 343.367 1399.63 342.122 1400.45 340.982C1401.28 339.827 1401.96 338.614 1402.5 337.345C1403.04 336.075 1403.29 334.879 1403.25 333.756C1403.21 331.884 1402.57 330.403 1401.35 329.313C1400.15 328.206 1398.51 327.652 1396.44 327.652C1394.07 327.652 1392.28 328.36 1391.07 329.776C1389.88 331.176 1389.29 333.032 1389.29 335.343C1389.29 335.701 1389.32 336.254 1389.39 337.003L1384.85 334.903L1384.85 334.708C1384.85 331.257 1385.95 328.491 1388.17 326.407C1390.38 324.308 1393.29 323.258 1396.91 323.258C1398.99 323.258 1400.85 323.64 1402.47 324.405C1404.12 325.17 1405.44 326.35 1406.43 327.945C1407.44 329.54 1407.94 331.445 1407.94 333.658C1407.94 334.716 1407.79 335.79 1407.48 336.881C1407.17 337.955 1406.79 338.956 1406.33 339.884C1405.88 340.812 1405.22 341.821 1404.38 342.911C1403.53 344.002 1402.73 344.962 1401.99 345.792C1401.25 346.606 1400.27 347.582 1399.03 348.722C1397.81 349.861 1396.76 350.813 1395.88 351.578C1395.02 352.327 1393.87 353.303 1392.44 354.508L1408.41 354.508ZM1417.34 326.041L1422.35 323.209L1422.35 359L1417.34 359L1417.34 326.041ZM1449.74 341.202C1451.38 342.032 1452.67 343.163 1453.6 344.596C1454.52 346.012 1454.99 347.566 1454.99 349.259C1454.99 352.351 1453.84 354.874 1451.55 356.827C1449.25 358.78 1446.31 359.757 1442.73 359.757C1439.15 359.757 1436.21 358.78 1433.92 356.827C1431.62 354.874 1430.48 352.351 1430.48 349.259C1430.48 347.566 1430.94 346.012 1431.87 344.596C1432.8 343.163 1434.08 342.032 1435.73 341.202C1434.2 340.372 1433.01 339.282 1432.16 337.931C1431.31 336.58 1430.89 335.107 1430.89 333.512C1430.89 330.501 1432 328.043 1434.21 326.139C1436.43 324.218 1439.27 323.258 1442.73 323.258C1446.2 323.258 1449.04 324.218 1451.25 326.139C1453.47 328.043 1454.57 330.501 1454.57 333.512C1454.57 335.107 1454.15 336.58 1453.3 337.931C1452.46 339.282 1451.27 340.372 1449.74 341.202ZM1447.93 329.215C1446.63 328.141 1444.9 327.604 1442.73 327.604C1440.57 327.604 1438.83 328.141 1437.53 329.215C1436.23 330.289 1435.58 331.721 1435.58 333.512C1435.58 335.221 1436.27 336.604 1437.65 337.662C1439.04 338.72 1440.73 339.249 1442.73 339.249C1444.73 339.249 1446.43 338.72 1447.81 337.662C1449.19 336.604 1449.89 335.221 1449.89 333.512C1449.89 331.721 1449.23 330.289 1447.93 329.215ZM1437.24 353.751C1438.61 354.858 1440.44 355.411 1442.73 355.411C1445.03 355.411 1446.86 354.858 1448.23 353.751C1449.59 352.628 1450.28 351.131 1450.28 349.259C1450.28 347.452 1449.57 346.004 1448.15 344.913C1446.74 343.806 1444.93 343.253 1442.73 343.253C1440.54 343.253 1438.73 343.806 1437.31 344.913C1435.9 346.004 1435.19 347.452 1435.19 349.259C1435.19 351.131 1435.87 352.628 1437.24 353.751Z" fill="#0D1846"/>
<path d="M1592.01 326.041L1597.01 323.209L1597.01 359L1592.01 359L1592.01 326.041ZM1627.41 354.508L1627.41 359L1604.14 359L1604.14 355.46L1608.44 351.847C1610.02 350.528 1611.38 349.348 1612.54 348.307C1613.69 347.265 1614.93 346.069 1616.25 344.718C1617.57 343.367 1618.63 342.122 1619.45 340.982C1620.28 339.827 1620.96 338.614 1621.5 337.345C1622.04 336.075 1622.29 334.879 1622.25 333.756C1622.21 331.884 1621.57 330.403 1620.35 329.313C1619.15 328.206 1617.51 327.652 1615.44 327.652C1613.07 327.652 1611.28 328.36 1610.07 329.776C1608.88 331.176 1608.29 333.032 1608.29 335.343C1608.29 335.701 1608.32 336.254 1608.39 337.003L1603.85 334.903L1603.85 334.708C1603.85 331.257 1604.95 328.491 1607.17 326.407C1609.38 324.308 1612.29 323.258 1615.91 323.258C1617.99 323.258 1619.85 323.64 1621.47 324.405C1623.12 325.17 1624.44 326.35 1625.43 327.945C1626.44 329.54 1626.94 331.445 1626.94 333.658C1626.94 334.716 1626.79 335.79 1626.48 336.881C1626.17 337.955 1625.79 338.956 1625.33 339.884C1624.88 340.812 1624.22 341.821 1623.38 342.911C1622.53 344.002 1621.73 344.962 1620.99 345.792C1620.25 346.606 1619.27 347.582 1618.03 348.722C1616.81 349.861 1615.76 350.813 1614.88 351.578C1614.02 352.327 1612.87 353.303 1611.44 354.508L1627.41 354.508ZM1654.99 354.508L1654.99 359L1631.73 359L1631.73 355.46L1636.02 351.847C1637.6 350.528 1638.97 349.348 1640.13 348.307C1641.28 347.265 1642.52 346.069 1643.84 344.718C1645.16 343.367 1646.22 342.122 1647.04 340.982C1647.87 339.827 1648.55 338.614 1649.09 337.345C1649.62 336.075 1649.88 334.879 1649.84 333.756C1649.79 331.884 1649.16 330.403 1647.94 329.313C1646.73 328.206 1645.1 327.652 1643.03 327.652C1640.65 327.652 1638.86 328.36 1637.66 329.776C1636.47 331.176 1635.88 333.032 1635.88 335.343C1635.88 335.701 1635.91 336.254 1635.98 337.003L1631.43 334.903L1631.43 334.708C1631.43 331.257 1632.54 328.491 1634.75 326.407C1636.97 324.308 1639.88 323.258 1643.5 323.258C1645.58 323.258 1647.43 323.64 1649.06 324.405C1650.71 325.17 1652.02 326.35 1653.02 327.945C1654.03 329.54 1654.53 331.445 1654.53 333.658C1654.53 334.716 1654.38 335.79 1654.07 336.881C1653.76 337.955 1653.37 338.956 1652.92 339.884C1652.46 340.812 1651.81 341.821 1650.97 342.911C1650.12 344.002 1649.32 344.962 1648.57 345.792C1647.84 346.606 1646.86 347.582 1645.62 348.722C1644.4 349.861 1643.35 350.813 1642.47 351.578C1641.61 352.327 1640.46 353.303 1639.03 354.508L1654.99 354.508ZM1683.12 357.462C1680.94 358.992 1678.44 359.757 1675.62 359.757C1672.81 359.757 1670.3 358.992 1668.1 357.462C1665.91 355.916 1664.2 353.759 1662.98 350.992C1661.77 348.225 1661.17 345.06 1661.17 341.495C1661.17 337.947 1661.77 334.789 1662.98 332.022C1664.2 329.239 1665.91 327.083 1668.1 325.553C1670.3 324.023 1672.81 323.258 1675.62 323.258C1678.44 323.258 1680.94 324.023 1683.12 325.553C1685.32 327.083 1687.02 329.231 1688.22 331.998C1689.43 334.765 1690.03 337.931 1690.03 341.495C1690.03 345.06 1689.43 348.225 1688.22 350.992C1687.02 353.759 1685.32 355.916 1683.12 357.462ZM1668.79 351.334C1670.55 353.808 1672.82 355.045 1675.62 355.045C1678.42 355.045 1680.69 353.816 1682.41 351.358C1684.15 348.884 1685.02 345.597 1685.02 341.495C1685.02 337.394 1684.15 334.114 1682.41 331.656C1680.69 329.182 1678.42 327.945 1675.62 327.945C1672.82 327.945 1670.55 329.182 1668.79 331.656C1667.05 334.13 1666.18 337.41 1666.18 341.495C1666.18 345.58 1667.05 348.86 1668.79 351.334Z" fill="#0D1846"/>
<path d="M1194.01 326.041L1199.01 323.209L1199.01 359L1194.01 359L1194.01 326.041ZM1229.41 354.508L1229.41 359L1206.14 359L1206.14 355.46L1210.44 351.847C1212.02 350.528 1213.38 349.348 1214.54 348.307C1215.69 347.265 1216.93 346.069 1218.25 344.718C1219.57 343.367 1220.63 342.122 1221.45 340.982C1222.28 339.827 1222.96 338.614 1223.5 337.345C1224.04 336.075 1224.29 334.879 1224.25 333.756C1224.21 331.884 1223.57 330.403 1222.35 329.313C1221.15 328.206 1219.51 327.652 1217.44 327.652C1215.07 327.652 1213.28 328.36 1212.07 329.776C1210.88 331.176 1210.29 333.032 1210.29 335.343C1210.29 335.701 1210.32 336.254 1210.39 337.003L1205.85 334.903L1205.85 334.708C1205.85 331.257 1206.95 328.491 1209.17 326.407C1211.38 324.308 1214.29 323.258 1217.91 323.258C1219.99 323.258 1221.85 323.64 1223.47 324.405C1225.12 325.17 1226.44 326.35 1227.43 327.945C1228.44 329.54 1228.94 331.445 1228.94 333.658C1228.94 334.716 1228.79 335.79 1228.48 336.881C1228.17 337.955 1227.79 338.956 1227.33 339.884C1226.88 340.812 1226.22 341.821 1225.38 342.911C1224.53 344.002 1223.73 344.962 1222.99 345.792C1222.25 346.606 1221.27 347.582 1220.03 348.722C1218.81 349.861 1217.76 350.813 1216.88 351.578C1216.02 352.327 1214.87 353.303 1213.44 354.508L1229.41 354.508ZM1238.34 326.041L1243.35 323.209L1243.35 359L1238.34 359L1238.34 326.041ZM1266.22 335.147C1268.34 335.147 1270.3 335.619 1272.11 336.563C1273.91 337.508 1275.38 338.875 1276.5 340.665C1277.62 342.439 1278.19 344.449 1278.19 346.695C1278.19 350.504 1277.02 353.637 1274.69 356.095C1272.37 358.536 1269.36 359.757 1265.69 359.757C1264.37 359.757 1263.08 359.562 1261.83 359.171C1260.59 358.797 1259.39 358.17 1258.21 357.291C1257.06 356.412 1256.05 355.33 1255.19 354.044C1254.32 352.742 1253.63 351.114 1253.11 349.161C1252.59 347.192 1252.33 345.003 1252.33 342.594C1252.33 339.615 1252.75 336.905 1253.58 334.464C1254.42 332.022 1255.59 329.988 1257.09 328.36C1258.61 326.733 1260.4 325.48 1262.49 324.601C1264.57 323.705 1266.85 323.258 1269.32 323.258C1271 323.258 1272.49 323.502 1273.79 323.99L1274.57 329.239C1272.67 328.442 1270.63 328.043 1268.44 328.043C1267.06 328.043 1265.73 328.287 1264.46 328.775C1263.2 329.247 1262.01 329.955 1260.9 330.899C1259.81 331.843 1258.91 333.129 1258.21 334.757C1257.53 336.368 1257.14 338.216 1257.04 340.299C1258.04 338.508 1259.33 337.206 1260.92 336.393C1262.54 335.563 1264.3 335.147 1266.22 335.147ZM1265.59 355.045C1267.8 355.045 1269.62 354.329 1271.03 352.896C1272.46 351.464 1273.18 349.633 1273.18 347.403C1273.18 345.06 1272.5 343.204 1271.13 341.837C1269.76 340.453 1267.92 339.762 1265.59 339.762C1263.47 339.762 1261.72 340.478 1260.34 341.91C1258.97 343.342 1258.29 345.174 1258.29 347.403C1258.29 349.568 1259.01 351.383 1260.46 352.848C1261.93 354.313 1263.63 355.045 1265.59 355.045Z" fill="#0D1846"/>
<path d="M1029.04 385.994L1026.21 380.989L1062 380.989L1062 385.994L1029.04 385.994ZM1057.51 350.594L1062 350.594L1062 373.86L1058.46 373.86L1054.85 369.563C1053.53 367.985 1052.35 366.618 1051.31 365.462C1050.26 364.306 1049.07 363.069 1047.72 361.751C1046.37 360.433 1045.12 359.367 1043.98 358.553C1042.83 357.723 1041.61 357.039 1040.34 356.502C1039.08 355.965 1037.88 355.713 1036.76 355.745C1034.88 355.794 1033.4 356.429 1032.31 357.649C1031.21 358.854 1030.65 360.49 1030.65 362.557C1030.65 364.933 1031.36 366.723 1032.78 367.928C1034.18 369.116 1036.03 369.71 1038.34 369.71C1038.7 369.71 1039.25 369.677 1040 369.612L1037.9 374.153L1037.71 374.153C1034.26 374.153 1031.49 373.047 1029.41 370.833C1027.31 368.619 1026.26 365.706 1026.26 362.093C1026.26 360.009 1026.64 358.154 1027.41 356.526C1028.17 354.882 1029.35 353.564 1030.95 352.571C1032.54 351.562 1034.44 351.058 1036.66 351.058C1037.72 351.058 1038.79 351.212 1039.88 351.521C1040.96 351.831 1041.96 352.213 1042.88 352.669C1043.81 353.125 1044.82 353.776 1045.91 354.622C1047 355.468 1047.96 356.266 1048.79 357.015C1049.61 357.747 1050.58 358.732 1051.72 359.969C1052.86 361.189 1053.81 362.239 1054.58 363.118C1055.33 363.981 1056.3 365.128 1057.51 366.561L1057.51 350.594ZM1029.04 341.658L1026.21 336.653L1062 336.653L1062 341.658L1029.04 341.658ZM1057.51 306.258L1062 306.258L1062 329.524L1058.46 329.524L1054.85 325.228C1053.53 323.649 1052.35 322.282 1051.31 321.126C1050.26 319.97 1049.07 318.733 1047.72 317.415C1046.37 316.097 1045.12 315.031 1043.98 314.217C1042.83 313.387 1041.61 312.703 1040.34 312.166C1039.08 311.629 1037.88 311.377 1036.76 311.409C1034.88 311.458 1033.4 312.093 1032.31 313.313C1031.21 314.518 1030.65 316.154 1030.65 318.221C1030.65 320.597 1031.36 322.387 1032.78 323.592C1034.18 324.78 1036.03 325.374 1038.34 325.374C1038.7 325.374 1039.25 325.341 1040 325.276L1037.9 329.817L1037.71 329.817C1034.26 329.817 1031.49 328.711 1029.41 326.497C1027.31 324.284 1026.26 321.37 1026.26 317.757C1026.26 315.674 1026.64 313.818 1027.41 312.19C1028.17 310.547 1029.35 309.228 1030.95 308.235C1032.54 307.226 1034.44 306.722 1036.66 306.722C1037.72 306.722 1038.79 306.876 1039.88 307.186C1040.96 307.495 1041.96 307.877 1042.88 308.333C1043.81 308.789 1044.82 309.44 1045.91 310.286C1047 311.132 1047.96 311.93 1048.79 312.679C1049.61 313.411 1050.58 314.396 1051.72 315.633C1052.86 316.854 1053.81 317.903 1054.58 318.782C1055.33 319.645 1056.3 320.792 1057.51 322.225L1057.51 306.258Z" fill="#0D1846"/>
<path d="M961.041 388.994L958.209 383.989L994 383.989L994 388.994L961.041 388.994ZM989.508 353.594L994 353.594L994 376.86L990.46 376.86L986.847 372.563C985.528 370.985 984.348 369.618 983.307 368.462C982.265 367.306 981.069 366.069 979.718 364.751C978.367 363.433 977.122 362.367 975.982 361.553C974.827 360.723 973.614 360.039 972.345 359.502C971.075 358.965 969.879 358.713 968.756 358.745C966.884 358.794 965.403 359.429 964.313 360.649C963.206 361.854 962.652 363.49 962.652 365.557C962.652 367.933 963.36 369.723 964.776 370.928C966.176 372.116 968.032 372.71 970.343 372.71C970.701 372.71 971.254 372.677 972.003 372.612L969.903 377.153L969.708 377.153C966.257 377.153 963.491 376.047 961.407 373.833C959.308 371.619 958.258 368.706 958.258 365.093C958.258 363.009 958.64 361.154 959.405 359.526C960.17 357.882 961.35 356.564 962.945 355.571C964.54 354.562 966.445 354.058 968.658 354.058C969.716 354.058 970.79 354.212 971.881 354.521C972.955 354.831 973.956 355.213 974.884 355.669C975.812 356.125 976.821 356.776 977.911 357.622C979.002 358.468 979.962 359.266 980.792 360.015C981.606 360.747 982.582 361.732 983.722 362.969C984.861 364.189 985.813 365.239 986.578 366.118C987.327 366.981 988.303 368.128 989.508 369.561L989.508 353.594ZM961.041 344.658L958.209 339.653L994 339.653L994 344.658L961.041 344.658ZM992.462 308.721C993.992 310.902 994.757 313.4 994.757 316.216C994.757 319.032 993.992 321.538 992.462 323.735C990.916 325.933 988.759 327.642 985.992 328.862C983.225 330.067 980.06 330.669 976.495 330.669C972.947 330.669 969.789 330.067 967.022 328.862C964.239 327.642 962.083 325.933 960.553 323.735C959.023 321.538 958.258 319.032 958.258 316.216C958.258 313.4 959.023 310.902 960.553 308.721C962.083 306.523 964.231 304.823 966.998 303.618C969.765 302.414 972.931 301.812 976.495 301.812C980.06 301.812 983.225 302.414 985.992 303.618C988.759 304.823 990.916 306.523 992.462 308.721ZM986.334 323.052C988.808 321.294 990.045 319.015 990.045 316.216C990.045 313.416 988.816 311.154 986.358 309.429C983.884 307.687 980.597 306.816 976.495 306.816C972.394 306.816 969.114 307.687 966.656 309.429C964.182 311.154 962.945 313.416 962.945 316.216C962.945 319.015 964.182 321.294 966.656 323.052C969.13 324.793 972.41 325.664 976.495 325.664C980.58 325.664 983.86 324.793 986.334 323.052Z" fill="#0D1846"/>
<path d="M1093.04 387.994L1090.21 382.989L1126 382.989L1126 387.994L1093.04 387.994ZM1121.51 352.594L1126 352.594L1126 375.86L1122.46 375.86L1118.85 371.563C1117.53 369.985 1116.35 368.618 1115.31 367.462C1114.26 366.306 1113.07 365.069 1111.72 363.751C1110.37 362.433 1109.12 361.367 1107.98 360.553C1106.83 359.723 1105.61 359.039 1104.34 358.502C1103.08 357.965 1101.88 357.713 1100.76 357.745C1098.88 357.794 1097.4 358.429 1096.31 359.649C1095.21 360.854 1094.65 362.49 1094.65 364.557C1094.65 366.933 1095.36 368.723 1096.78 369.928C1098.18 371.116 1100.03 371.71 1102.34 371.71C1102.7 371.71 1103.25 371.677 1104 371.612L1101.9 376.153L1101.71 376.153C1098.26 376.153 1095.49 375.047 1093.41 372.833C1091.31 370.619 1090.26 367.706 1090.26 364.093C1090.26 362.009 1090.64 360.154 1091.41 358.526C1092.17 356.882 1093.35 355.564 1094.95 354.571C1096.54 353.562 1098.44 353.058 1100.66 353.058C1101.72 353.058 1102.79 353.212 1103.88 353.521C1104.96 353.831 1105.96 354.213 1106.88 354.669C1107.81 355.125 1108.82 355.776 1109.91 356.622C1111 357.468 1111.96 358.266 1112.79 359.015C1113.61 359.747 1114.58 360.732 1115.72 361.969C1116.86 363.189 1117.81 364.239 1118.58 365.118C1119.33 365.981 1120.3 367.128 1121.51 368.561L1121.51 352.594ZM1093.04 343.658L1090.21 338.653L1126 338.653L1126 343.658L1093.04 343.658ZM1117.09 303.668L1117.09 310.309L1126.76 310.309L1126.76 315.313L1117.09 315.313L1117.09 332.867L1112.89 332.867L1090.99 313.312L1090.99 310.309L1112.65 310.309L1112.65 303.668L1117.09 303.668ZM1112.65 315.313L1099.24 315.313L1112.65 327.154L1112.65 315.313Z" fill="#0D1846"/>
<path d="M834.076 257.104L3.07843 259.039" stroke="#0D1846" stroke-width="5"/>
<path d="M2149.25 330.041L2072.25 330.22" stroke="#0D1846" stroke-width="2"/>
<path d="M2449.07 253.342L2448.93 190.342" stroke="#0D1846" stroke-width="2"/>
<path d="M2148.92 190.041L2148.96 205.041" stroke="#0D1846" stroke-width="2"/>
<path d="M2149.04 239.041L2149.07 254.041" stroke="#0D1846" stroke-width="2"/>
<path d="M834.156 291.102L761.156 291.272" stroke="#0D1846" stroke-width="2"/>
<path d="M708.99 374.704L744 385.69L744 390.598L715.411 400.461L744 410.056L744 414.938L708.99 426.242L708.99 420.798L736.456 412.399L708.99 402.902L708.99 397.897L737.14 388.254L708.99 379.855L708.99 374.704ZM744.757 354.978C744.757 357.631 744.293 360.121 743.365 362.448C742.421 364.776 741.144 366.761 739.532 368.405C737.905 370.049 735.96 371.351 733.697 372.312C731.435 373.256 729.018 373.728 726.446 373.728C723.061 373.728 719.977 372.938 717.193 371.359C714.41 369.764 712.229 367.575 710.65 364.792C709.055 361.993 708.258 358.876 708.258 355.441C708.258 352.398 708.787 349.688 709.845 347.312C710.886 344.919 712.27 342.974 713.995 341.477L719.049 344.284C717.161 345.456 715.688 346.978 714.63 348.85C713.572 350.721 713.043 352.821 713.043 355.148C713.043 357.704 713.629 359.999 714.801 362.033C715.956 364.051 717.56 365.622 719.61 366.745C721.645 367.868 723.924 368.43 726.446 368.43C730.336 368.43 733.559 367.168 736.114 364.646C738.67 362.106 739.947 358.884 739.947 354.978C739.947 351.722 738.979 349.012 737.042 346.848C735.089 344.667 732.525 343.332 729.352 342.844L731.207 337.839C735.325 338.669 738.613 340.655 741.07 343.796C743.528 346.921 744.757 350.648 744.757 354.978ZM743.951 278.586L728.497 294.943L744 294.943L744 299.948L728.497 299.948L743.951 316.306L744 323.605L726.349 304.294L708.99 322.604L708.99 316.184L724.444 299.948L708.99 299.948L708.99 294.943L724.444 294.943L708.99 278.537L708.99 272.287L726.153 290.598L744 271.14L743.951 278.586Z" fill="#0D1846"/>
</svg>
